<svg width="34" height="34" viewBox="0 0 34 34" fill="none" xmlns="http://www.w3.org/2000/svg">
<path fill-rule="evenodd" clip-rule="evenodd" d="M24.0028 13.3761C24.1043 13.0591 24.0028 12.8262 23.5201 12.8262H21.9239C21.5181 12.8262 21.331 13.0274 21.2295 13.2493C21.2295 13.2493 20.4178 15.1036 19.2679 16.3081C18.8959 16.6568 18.7267 16.7677 18.5238 16.7677C18.4224 16.7677 18.2755 16.6568 18.2755 16.3398V13.3761C18.2755 12.9957 18.1577 12.8262 17.8195 12.8262H15.3112C15.0575 12.8262 14.905 13.0027 14.905 13.17C14.905 13.5306 15.4799 13.6138 15.5392 14.6281V16.8312C15.5392 17.3142 15.4461 17.4017 15.2432 17.4017C14.7021 17.4017 13.3858 15.5391 12.6052 13.4078C12.4522 12.9935 12.2987 12.8262 11.8908 12.8262H10.2946C9.83853 12.8262 9.74731 13.0274 9.74731 13.2493C9.74731 13.6455 10.2885 15.6108 12.267 18.21C13.586 19.9851 15.4443 20.9473 17.1354 20.9473C18.15 20.9473 18.2755 20.7336 18.2755 20.3655V19.0239C18.2755 18.5965 18.3716 18.5111 18.6929 18.5111C18.9297 18.5111 19.3355 18.6221 20.2825 19.4779C21.3648 20.4923 21.5432 20.9473 22.152 20.9473H23.7482C24.2042 20.9473 24.4322 20.7336 24.3007 20.3118C24.1567 19.8915 23.64 19.2816 22.9544 18.5587C22.5823 18.1466 22.0243 17.7029 21.8552 17.4809C21.6184 17.1957 21.6861 17.0689 21.8552 16.8153C21.8552 16.8153 23.7999 14.2478 24.0028 13.3761Z" fill="white"/>
<rect x="0.5" y="0.5" width="33" height="33" rx="16.5" stroke="white"/>
</svg>
