<svg width="34" height="34" viewBox="0 0 34 34" fill="none" xmlns="http://www.w3.org/2000/svg">
<path fill-rule="evenodd" clip-rule="evenodd" d="M24.0028 13.376C24.1043 13.059 24.0028 12.826 23.5201 12.826H21.9239C21.5181 12.826 21.331 13.0273 21.2295 13.2491C21.2295 13.2491 20.4178 15.1035 19.2679 16.308C18.8959 16.6567 18.7267 16.7676 18.5238 16.7676C18.4224 16.7676 18.2755 16.6567 18.2755 16.3397V13.376C18.2755 12.9956 18.1577 12.826 17.8195 12.826H15.3112C15.0575 12.826 14.905 13.0026 14.905 13.1699C14.905 13.5305 15.4799 13.6137 15.5392 14.628V16.831C15.5392 17.314 15.4461 17.4016 15.2432 17.4016C14.7021 17.4016 13.3858 15.539 12.6052 13.4076C12.4522 12.9934 12.2987 12.826 11.8908 12.826H10.2946C9.83853 12.826 9.74731 13.0273 9.74731 13.2491C9.74731 13.6454 10.2885 15.6107 12.267 18.2099C13.586 19.985 15.4443 20.9472 17.1354 20.9472C18.15 20.9472 18.2755 20.7335 18.2755 20.3653V19.0238C18.2755 18.5963 18.3716 18.511 18.6929 18.511C18.9297 18.511 19.3355 18.622 20.2825 19.4778C21.3648 20.4921 21.5432 20.9472 22.152 20.9472H23.7482C24.2042 20.9472 24.4322 20.7335 24.3007 20.3117C24.1567 19.8914 23.64 19.2815 22.9544 18.5586C22.5823 18.1465 22.0243 17.7027 21.8552 17.4808C21.6184 17.1956 21.6861 17.0687 21.8552 16.8152C21.8552 16.8152 23.7999 14.2476 24.0028 13.376Z" fill="url(#paint0_linear_114_4056)"/>
<rect x="0.5" y="0.5" width="33" height="33" rx="16.5" stroke="url(#paint1_linear_114_4056)"/>
<defs>
<linearGradient id="paint0_linear_114_4056" x1="17.0425" y1="12.826" x2="17.0425" y2="20.9472" gradientUnits="userSpaceOnUse">
<stop stop-color="#CC72C8"/>
<stop offset="1" stop-color="#6960E1"/>
</linearGradient>
<linearGradient id="paint1_linear_114_4056" x1="17" y1="0" x2="17" y2="34" gradientUnits="userSpaceOnUse">
<stop stop-color="#CC72C8"/>
<stop offset="1" stop-color="#6960E1"/>
</linearGradient>
</defs>
</svg>
