<svg width="34" height="34" viewBox="0 0 34 34" fill="none" xmlns="http://www.w3.org/2000/svg">
<path d="M11 22.52L11.861 19.3216C11.1666 18.0756 10.946 16.6217 11.2396 15.2266C11.5333 13.8315 12.3214 12.5888 13.4595 11.7265C14.5976 10.8643 16.0092 10.4403 17.4354 10.5324C18.8615 10.6245 20.2066 11.2265 21.2236 12.228C22.2407 13.2294 22.8616 14.5631 22.9724 15.9844C23.0832 17.4056 22.6765 18.819 21.8268 19.9652C20.9772 21.1115 19.7416 21.9137 18.3469 22.2246C16.9521 22.5355 15.4918 22.3343 14.2337 21.6579L11 22.52ZM14.3897 20.461L14.5896 20.5793C15.5009 21.118 16.5651 21.341 17.6166 21.2134C18.6681 21.0858 19.6478 20.6148 20.4029 19.8739C21.158 19.1329 21.6462 18.1637 21.7914 17.1171C21.9366 16.0705 21.7306 15.0054 21.2056 14.0878C20.6805 13.1702 19.8659 12.4516 18.8887 12.0439C17.9114 11.6363 16.8265 11.5626 15.8028 11.8343C14.7792 12.106 13.8744 12.7078 13.2295 13.5459C12.5845 14.384 12.2357 15.4114 12.2372 16.468C12.2364 17.344 12.4793 18.2031 12.9389 18.9496L13.0643 19.1559L12.583 20.9411L14.3897 20.461Z" fill="white"/>
<path fill-rule="evenodd" clip-rule="evenodd" d="M19.2435 17.2893C19.1262 17.1949 18.989 17.1286 18.8421 17.0952C18.6953 17.0618 18.5427 17.0622 18.3961 17.0965C18.1757 17.1878 18.0334 17.5327 17.891 17.7051C17.861 17.7465 17.8169 17.7755 17.767 17.7867C17.717 17.7979 17.6647 17.7905 17.6198 17.766C16.8132 17.4509 16.1371 16.873 15.7013 16.1262C15.6641 16.0796 15.6465 16.0204 15.6522 15.9611C15.6579 15.9019 15.6864 15.8471 15.7318 15.8084C15.8906 15.6516 16.0072 15.4574 16.0708 15.2437C16.0849 15.0081 16.0308 14.7733 15.9148 14.5675C15.8252 14.279 15.6547 14.022 15.4233 13.8271C15.304 13.7736 15.1717 13.7556 15.0424 13.7754C14.9131 13.7952 14.7923 13.8519 14.6946 13.9387C14.5249 14.0847 14.3902 14.2668 14.3005 14.4716C14.2107 14.6764 14.1682 14.8986 14.176 15.122C14.1765 15.2475 14.1924 15.3724 14.2234 15.4939C14.3021 15.786 14.4232 16.0651 14.5827 16.3223C14.6978 16.5193 14.8234 16.71 14.959 16.8937C15.3995 17.4968 15.9532 18.009 16.5894 18.4016C16.9086 18.6012 17.2498 18.7634 17.6063 18.8851C17.9765 19.0525 18.3853 19.1168 18.7893 19.0711C19.0194 19.0363 19.2375 18.9457 19.4243 18.8071C19.611 18.6686 19.7608 18.4864 19.8604 18.2765C19.9189 18.1498 19.9367 18.008 19.9112 17.8708C19.8502 17.5902 19.474 17.4245 19.2435 17.2893Z" fill="white"/>
<rect x="0.5" y="0.5" width="33" height="33" rx="16.5" stroke="white"/>
</svg>
