<svg style="display: none;" aria-hidden="true" xmlns="http://www.w3.org/2000/svg"
  xmlns:xlink="http://www.w3.org/1999/xlink">
  <symbol viewBox="0 0 24 24" fill="none" id="svg-slide_left">
    <path d="M14 7L10 12L14 17" stroke="#fff" stroke-width="1.5" stroke-linecap="round" stroke-linejoin="round" />
  </symbol>
  <symbol viewBox="0 0 24 24" fill="none" id="svg-slide_right">
    <path d="M10 7L14 12L10 17" stroke="#fff" stroke-width="1.5" stroke-linecap="round" stroke-linejoin="round" />
  </symbol>
  <symbol viewBox="0 0 34 34" fill="none" id="svg-vk">
    <path clip-rule="evenodd"
      d="M24.0028 13.3761C24.1043 13.0591 24.0028 12.8262 23.5201 12.8262H21.9239C21.5181 12.8262 21.331 13.0274 21.2295 13.2493C21.2295 13.2493 20.4178 15.1036 19.2679 16.3081C18.8959 16.6568 18.7267 16.7677 18.5238 16.7677C18.4224 16.7677 18.2755 16.6568 18.2755 16.3398V13.3761C18.2755 12.9957 18.1577 12.8262 17.8195 12.8262H15.3112C15.0575 12.8262 14.905 13.0027 14.905 13.17C14.905 13.5306 15.4799 13.6138 15.5392 14.6281V16.8312C15.5392 17.3142 15.4461 17.4017 15.2432 17.4017C14.7021 17.4017 13.3858 15.5391 12.6052 13.4078C12.4522 12.9935 12.2987 12.8262 11.8908 12.8262H10.2946C9.83853 12.8262 9.74731 13.0274 9.74731 13.2493C9.74731 13.6455 10.2885 15.6108 12.267 18.21C13.586 19.9851 15.4443 20.9473 17.1354 20.9473C18.15 20.9473 18.2755 20.7336 18.2755 20.3655V19.0239C18.2755 18.5965 18.3716 18.5111 18.6929 18.5111C18.9297 18.5111 19.3355 18.6221 20.2825 19.4779C21.3648 20.4923 21.5432 20.9473 22.152 20.9473H23.7482C24.2042 20.9473 24.4322 20.7336 24.3007 20.3118C24.1567 19.8915 23.64 19.2816 22.9544 18.5587C22.5823 18.1466 22.0243 17.7029 21.8552 17.4809C21.6184 17.1957 21.6861 17.0689 21.8552 16.8153C21.8552 16.8153 23.7999 14.2478 24.0028 13.3761Z"
      />
    <rect x=".5" y=".5" width="33" height="33" rx="16.5" stroke="#fff" />
  </symbol>
  <symbol viewBox="0 0 34 34" fill="none" id="svg-vk_footer">
    <path fill-rule="evenodd" clip-rule="evenodd"
      d="M24.0028 13.376C24.1043 13.059 24.0028 12.826 23.5201 12.826H21.9239C21.5181 12.826 21.331 13.0273 21.2295 13.2491C21.2295 13.2491 20.4178 15.1035 19.2679 16.308C18.8959 16.6567 18.7267 16.7676 18.5238 16.7676C18.4224 16.7676 18.2755 16.6567 18.2755 16.3397V13.376C18.2755 12.9956 18.1577 12.826 17.8195 12.826H15.3112C15.0575 12.826 14.905 13.0026 14.905 13.1699C14.905 13.5305 15.4799 13.6137 15.5392 14.628V16.831C15.5392 17.314 15.4461 17.4016 15.2432 17.4016C14.7021 17.4016 13.3858 15.539 12.6052 13.4076C12.4522 12.9934 12.2987 12.826 11.8908 12.826H10.2946C9.83853 12.826 9.74731 13.0273 9.74731 13.2491C9.74731 13.6454 10.2885 15.6107 12.267 18.2099C13.586 19.985 15.4443 20.9472 17.1354 20.9472C18.15 20.9472 18.2755 20.7335 18.2755 20.3653V19.0238C18.2755 18.5963 18.3716 18.511 18.6929 18.511C18.9297 18.511 19.3355 18.622 20.2825 19.4778C21.3648 20.4921 21.5432 20.9472 22.152 20.9472H23.7482C24.2042 20.9472 24.4322 20.7335 24.3007 20.3117C24.1567 19.8914 23.64 19.2815 22.9544 18.5586C22.5823 18.1465 22.0243 17.7027 21.8552 17.4808C21.6184 17.1956 21.6861 17.0687 21.8552 16.8152C21.8552 16.8152 23.7999 14.2476 24.0028 13.376Z"
      fill="url(#dpaint0_linear_114_4056)" />
    <rect x=".5" y=".5" width="33" height="33" rx="16.5" stroke="url(#dpaint1_linear_114_4056)" />
    <defs>
      <linearGradient id="dpaint0_linear_114_4056" x1="17.043" y1="12.826" x2="17.043" y2="20.947"
        gradientUnits="userSpaceOnUse">
        <stop stop-color="#CC72C8" />
        <stop offset="1" stop-color="#6960E1" />
      </linearGradient>
      <linearGradient id="dpaint1_linear_114_4056" x1="17" y1="0" x2="17" y2="34" gradientUnits="userSpaceOnUse">
        <stop stop-color="#CC72C8" />
        <stop offset="1" stop-color="#6960E1" />
      </linearGradient>
    </defs>
  </symbol>
  <symbol viewBox="0 0 34 34" fill="none" id="svg-whatsapp">
    <path
      d="M11 22.52L11.861 19.3216C11.1666 18.0756 10.946 16.6217 11.2396 15.2266C11.5333 13.8315 12.3214 12.5888 13.4595 11.7265C14.5976 10.8643 16.0092 10.4403 17.4354 10.5324C18.8615 10.6245 20.2066 11.2265 21.2236 12.228C22.2407 13.2294 22.8616 14.5631 22.9724 15.9844C23.0832 17.4056 22.6765 18.819 21.8268 19.9652C20.9772 21.1115 19.7416 21.9137 18.3469 22.2246C16.9521 22.5355 15.4918 22.3343 14.2337 21.6579L11 22.52ZM14.3897 20.461L14.5896 20.5793C15.5009 21.118 16.5651 21.341 17.6166 21.2134C18.6681 21.0858 19.6478 20.6148 20.4029 19.8739C21.158 19.1329 21.6462 18.1637 21.7914 17.1171C21.9366 16.0705 21.7306 15.0054 21.2056 14.0878C20.6805 13.1702 19.8659 12.4516 18.8887 12.0439C17.9114 11.6363 16.8265 11.5626 15.8028 11.8343C14.7792 12.106 13.8744 12.7078 13.2295 13.5459C12.5845 14.384 12.2357 15.4114 12.2372 16.468C12.2364 17.344 12.4793 18.2031 12.9389 18.9496L13.0643 19.1559L12.583 20.9411L14.3897 20.461Z"
      fill="#fff" />
    <path fill-rule="evenodd" clip-rule="evenodd"
      d="M19.2435 17.2893C19.1262 17.1949 18.989 17.1286 18.8421 17.0952C18.6953 17.0618 18.5427 17.0622 18.3961 17.0965C18.1757 17.1878 18.0334 17.5327 17.891 17.7051C17.861 17.7465 17.8169 17.7755 17.767 17.7867C17.717 17.7979 17.6647 17.7905 17.6198 17.766C16.8132 17.4509 16.1371 16.873 15.7013 16.1262C15.6641 16.0796 15.6465 16.0204 15.6522 15.9611C15.6579 15.9019 15.6864 15.8471 15.7318 15.8084C15.8906 15.6516 16.0072 15.4574 16.0708 15.2437C16.0849 15.0081 16.0308 14.7733 15.9148 14.5675C15.8252 14.279 15.6547 14.022 15.4233 13.8271C15.304 13.7736 15.1717 13.7556 15.0424 13.7754C14.9131 13.7952 14.7923 13.8519 14.6946 13.9387C14.5249 14.0847 14.3902 14.2668 14.3005 14.4716C14.2107 14.6764 14.1682 14.8986 14.176 15.122C14.1765 15.2475 14.1924 15.3724 14.2234 15.4939C14.3021 15.786 14.4232 16.0651 14.5827 16.3223C14.6978 16.5193 14.8234 16.71 14.959 16.8937C15.3995 17.4968 15.9532 18.009 16.5894 18.4016C16.9086 18.6012 17.2498 18.7634 17.6063 18.8851C17.9765 19.0525 18.3853 19.1168 18.7893 19.0711C19.0194 19.0363 19.2375 18.9457 19.4243 18.8071C19.611 18.6686 19.7608 18.4864 19.8604 18.2765C19.9189 18.1498 19.9367 18.008 19.9112 17.8708C19.8502 17.5902 19.474 17.4245 19.2435 17.2893Z"
      fill="#fff" />
    <rect x=".5" y=".5" width="33" height="33" rx="16.5" stroke="#fff" />
  </symbol>
  <symbol viewBox="0 0 34 34" fill="none" id="svg-whatsapp_footer">
    <path
      d="M11 22.5201L11.861 19.3217C11.1666 18.0757 10.946 16.6218 11.2396 15.2267C11.5333 13.8316 12.3214 12.5889 13.4595 11.7266C14.5976 10.8644 16.0092 10.4404 17.4354 10.5325C18.8615 10.6246 20.2066 11.2267 21.2236 12.2281C22.2407 13.2296 22.8616 14.5633 22.9724 15.9845C23.0832 17.4057 22.6765 18.8191 21.8268 19.9654C20.9772 21.1116 19.7416 21.9138 18.3469 22.2247C16.9521 22.5356 15.4918 22.3344 14.2337 21.658L11 22.5201ZM14.3897 20.4611L14.5896 20.5794C15.5009 21.1181 16.5651 21.3411 17.6166 21.2135C18.6681 21.0859 19.6478 20.6149 20.4029 19.874C21.158 19.1331 21.6462 18.1638 21.7914 17.1172C21.9366 16.0706 21.7306 15.0055 21.2056 14.0879C20.6805 13.1703 19.8659 12.4517 18.8887 12.0441C17.9114 11.6365 16.8265 11.5627 15.8028 11.8344C14.7792 12.1061 13.8744 12.7079 13.2295 13.546C12.5845 14.3841 12.2357 15.4115 12.2372 16.4681C12.2364 17.3441 12.4793 18.2032 12.9389 18.9498L13.0643 19.156L12.583 20.9412L14.3897 20.4611Z"
      fill="url(#fpaint0_linear_114_4054)" />
    <path fill-rule="evenodd" clip-rule="evenodd"
      d="M19.2435 17.2894C19.1262 17.1951 18.989 17.1287 18.8421 17.0953C18.6953 17.0619 18.5427 17.0624 18.3961 17.0967C18.1757 17.188 18.0334 17.5328 17.891 17.7052C17.861 17.7466 17.8169 17.7756 17.767 17.7868C17.717 17.798 17.6647 17.7906 17.6198 17.7661C16.8132 17.451 16.1371 16.8731 15.7013 16.1263C15.6641 16.0797 15.6465 16.0205 15.6522 15.9613C15.6579 15.902 15.6864 15.8472 15.7318 15.8085C15.8906 15.6517 16.0072 15.4575 16.0708 15.2439C16.0849 15.0082 16.0308 14.7735 15.9148 14.5677C15.8252 14.2791 15.6547 14.0222 15.4233 13.8272C15.304 13.7737 15.1717 13.7557 15.0424 13.7755C14.9131 13.7953 14.7923 13.852 14.6946 13.9388C14.5249 14.0848 14.3902 14.2669 14.3005 14.4717C14.2107 14.6765 14.1682 14.8988 14.176 15.1221C14.1765 15.2476 14.1924 15.3725 14.2234 15.4941C14.3021 15.7861 14.4232 16.0652 14.5827 16.3224C14.6978 16.5194 14.8234 16.7102 14.959 16.8938C15.3995 17.497 15.9532 18.0091 16.5894 18.4017C16.9086 18.6013 17.2498 18.7635 17.6063 18.8852C17.9765 19.0526 18.3853 19.1169 18.7893 19.0712C19.0194 19.0364 19.2375 18.9458 19.4243 18.8073C19.611 18.6687 19.7608 18.4865 19.8604 18.2766C19.9189 18.1499 19.9367 18.0082 19.9112 17.8709C19.8502 17.5903 19.474 17.4246 19.2435 17.2894Z"
      fill="url(#fpaint1_linear_114_4054)" />
    <rect x=".5" y=".5" width="33" height="33" rx="16.5" stroke="url(#fpaint2_linear_114_4054)" />
    <defs>
      <linearGradient id="fpaint0_linear_114_4054" x1="16.995" y1="10.52" x2="16.995" y2="22.52"
        gradientUnits="userSpaceOnUse">
        <stop stop-color="#CC72C8" />
        <stop offset="1" stop-color="#6960E1" />
      </linearGradient>
      <linearGradient id="fpaint1_linear_114_4054" x1="17.049" y1="13.768" x2="17.049" y2="19.085"
        gradientUnits="userSpaceOnUse">
        <stop stop-color="#CC72C8" />
        <stop offset="1" stop-color="#6960E1" />
      </linearGradient>
      <linearGradient id="fpaint2_linear_114_4054" x1="17" y1="0" x2="17" y2="34" gradientUnits="userSpaceOnUse">
        <stop stop-color="#CC72C8" />
        <stop offset="1" stop-color="#6960E1" />
      </linearGradient>
    </defs>
  </symbol>
</svg>