<?xml version="1.0" encoding="utf-8"?>
<!-- Generator: Adobe Illustrator 26.1.0, SVG Export Plug-In . SVG Version: 6.00 Build 0)  -->
<svg version="1.1" id="Слой_1" xmlns="http://www.w3.org/2000/svg" xmlns:xlink="http://www.w3.org/1999/xlink" x="0px" y="0px"
	 viewBox="0 0 225 428" style="enable-background:new 0 0 225 428;" xml:space="preserve">
<style type="text/css">
	.st0{fill:url(#SVGID_1_);}
	.st1{fill:#FFFFFF;filter:url(#Adobe_OpacityMaskFilter);}
	.st2{mask:url(#path-1-inside-1_114_3088_00000117650506377283265120000001826313075482237590_);fill:#747471;}
	.st3{opacity:0.5;}
	.st4{fill:#FFFFFF;filter:url(#Adobe_OpacityMaskFilter_00000013885067137424549800000015200795437974451856_);}
	.st5{mask:url(#path-3-outside-2_114_3088_00000016757240964408488150000007280363415436813456_);fill:#FFFFFF;}
	.st6{fill:url(#SVGID_00000149359785118285172250000003860601611053442468_);}
	.st7{fill:#FFFFFF;filter:url(#Adobe_OpacityMaskFilter_00000004510931295176713360000014677216560544675218_);}
	.st8{mask:url(#path-5-inside-3_114_3088_00000109734509846531305260000017260116306250104478_);fill:#747471;}
	.st9{fill:#FFFFFF;filter:url(#Adobe_OpacityMaskFilter_00000096737491667939852460000009282403151103944594_);}
	.st10{mask:url(#path-7-outside-4_114_3088_00000049192307979998133570000003081662159536244399_);fill:#FFFFFF;}
	.st11{fill:url(#SVGID_00000083790367545738338380000006713945994823586491_);}
	.st12{fill:#FFFFFF;filter:url(#Adobe_OpacityMaskFilter_00000127723774794492278300000006782329320829676183_);}
	.st13{mask:url(#path-9-inside-5_114_3088_00000085244795866523684800000017496854707923506336_);fill:#747471;}
	.st14{fill:#FFFFFF;filter:url(#Adobe_OpacityMaskFilter_00000083083614489731406220000013544887400719272125_);}
	.st15{mask:url(#path-11-outside-6_114_3088_00000151507540147429610530000005831076853304159151_);fill:#FFFFFF;}
	.st16{fill:url(#SVGID_00000163795250926240808050000014194967187264947647_);}
	.st17{fill:#FFFFFF;filter:url(#Adobe_OpacityMaskFilter_00000094588732738679691380000010445957488685736630_);}
	.st18{mask:url(#path-13-inside-7_114_3088_00000174574554859042708510000002800367738074688929_);fill:#747471;}
	.st19{fill:#FFFFFF;filter:url(#Adobe_OpacityMaskFilter_00000061434745112698055490000005075751922966525867_);}
	.st20{mask:url(#path-15-outside-8_114_3088_00000122689487847864716970000017483547024798016700_);fill:#FFFFFF;}
	.st21{clip-path:url(#SVGID_00000077318026396253129330000013292771643793474491_);}
	.st22{display:none;fill:url(#SVGID_00000133493063479852273550000004287121227110799799_);}
	.st23{display:none;}
	.st24{display:inline;fill:#FFFFFF;filter:url(#Adobe_OpacityMaskFilter_00000000933576352964372160000004391859043529109888_);}
	.st25{display:inline;mask:url(#path-19-inside-9_114_3088_00000080206888018620050970000010452052855637939369_);fill:#FFFFFF;}
	.st26{display:none;fill:#C5C6C8;}
	.st27{fill:#010101;filter:url(#Adobe_OpacityMaskFilter_00000029748802318229340170000015352206771734447519_);}
	.st28{fill:#010101;}
	.st29{opacity:0.35;fill:none;stroke:#000000;stroke-width:0.4355;enable-background:new    ;}
	.st30{opacity:0.4;enable-background:new    ;}
	.st31{fill-rule:evenodd;clip-rule:evenodd;}
	.st32{mask:url(#mask0_114_3088_00000065071334864829089210000004433070165421565876_);}
	.st33{fill:#FFFFFF;}
	.st34{fill:#FF0000;}
	.st35{filter:url(#Adobe_OpacityMaskFilter_00000054949673882833188810000000607751664439027848_);}
	.st36{mask:url(#mask1_114_3088_00000045615554717027700330000007236901356186527924_);}
	.st37{fill:#060606;}
	.st38{fill:#FFFFFF;filter:url(#Adobe_OpacityMaskFilter_00000008862894729971097600000000112022389064394917_);}
	.st39{mask:url(#path-39-inside-10_114_3088_00000111897806645405708570000003311051492008788658_);fill:#272422;}
	.st40{clip-path:url(#SVGID_00000032610615311015630270000010228864789323234748_);}
	.st41{fill:#191816;}
	.st42{fill:#312F2E;}
	.st43{fill:#0A0A0A;}
	.st44{fill:none;}
	.st45{fill:none;stroke:#1C1C1E;stroke-width:0.4128;}
</style>
<g>
	
		<linearGradient id="SVGID_1_" gradientUnits="userSpaceOnUse" x1="209.8827" y1="300.1935" x2="209.8827" y2="256.8495" gradientTransform="matrix(1 0 0 -1 0 430)">
		<stop  offset="0" style="stop-color:#000000"/>
		<stop  offset="7.615270e-02" style="stop-color:#D9D8D7"/>
		<stop  offset="0.9046" style="stop-color:#D9D8D7"/>
		<stop  offset="1" style="stop-color:#000000"/>
	</linearGradient>
	<path class="st0" d="M209.3,129.8h0.8c0.2,0,0.4,0.2,0.4,0.4v42.5c0,0.2-0.2,0.4-0.4,0.4h-0.8V129.8z"/>
	<defs>
		<filter id="Adobe_OpacityMaskFilter" filterUnits="userSpaceOnUse" x="209.3" y="129.8" width="1.4" height="43.3">
			<feColorMatrix  type="matrix" values="1 0 0 0 0  0 1 0 0 0  0 0 1 0 0  0 0 0 1 0"/>
		</filter>
	</defs>
	
		<mask maskUnits="userSpaceOnUse" x="209.3" y="129.8" width="1.4" height="43.3" id="path-1-inside-1_114_3088_00000117650506377283265120000001826313075482237590_">
		<path class="st1" d="M209.3,129.8h0.8c0.2,0,0.4,0.2,0.4,0.4v42.5c0,0.2-0.2,0.4-0.4,0.4h-0.8V129.8z"/>
	</mask>
	<path class="st2" d="M209.3,129.8h1.2H209.3z M210.5,173.2h-1.2H210.5z M209.3,173.2v-43.3V173.2z M210.1,129.8
		c0.3,0,0.6,0.3,0.6,0.6v42.1c0,0.3-0.3,0.6-0.6,0.6l0,0c0.1,0,0.2-0.2,0.2-0.4v-42.5C210.3,130,210.2,129.8,210.1,129.8
		L210.1,129.8z"/>
	<g class="st3">
		<defs>
			
				<filter id="Adobe_OpacityMaskFilter_00000157296098611853274670000006421071772808546445_" filterUnits="userSpaceOnUse" x="209.3" y="130.2" width="0.6" height="42.5">
				<feColorMatrix  type="matrix" values="1 0 0 0 0  0 1 0 0 0  0 0 1 0 0  0 0 0 1 0"/>
			</filter>
		</defs>
		
			<mask maskUnits="userSpaceOnUse" x="209.3" y="130.2" width="0.6" height="42.5" id="path-3-outside-2_114_3088_00000016757240964408488150000007280363415436813456_">
			
				<rect x="209.3" y="129.6" style="fill:#FFFFFF;filter:url(#Adobe_OpacityMaskFilter_00000157296098611853274670000006421071772808546445_);" width="1" height="44"/>
			<path d="M209.3,130.6h0.4c0,0,0,0,0,0v41.6c0,0,0,0,0,0h-0.4V130.6z"/>
		</mask>
		<path class="st5" d="M209.3,130.2h0.4c0.1,0,0.2,0.1,0.2,0.2l-0.4,0.6h-0.2V130.2z M209.9,172.5c0,0.1-0.1,0.2-0.2,0.2h-0.4v-0.8
			h0.2L209.9,172.5z M209.3,172.3v-41.7V172.3z M209.6,130.2c0.1,0,0.2,0.1,0.2,0.2v42c0,0.1-0.1,0.2-0.2,0.2l-0.2-0.8V131
			L209.6,130.2z"/>
	</g>
	
		<linearGradient id="SVGID_00000168117676174554581430000017897238057603454132_" gradientUnits="userSpaceOnUse" x1="15.1178" y1="335.6938" x2="15.1178" y2="322.0716" gradientTransform="matrix(1 0 0 -1 0 430)">
		<stop  offset="0" style="stop-color:#000000"/>
		<stop  offset="0.1512" style="stop-color:#D9D8D7"/>
		<stop  offset="0.8472" style="stop-color:#D9D8D7"/>
		<stop  offset="1" style="stop-color:#000000"/>
	</linearGradient>
	<path style="fill:url(#SVGID_00000168117676174554581430000017897238057603454132_);" d="M14.5,94.7c0-0.2,0.2-0.4,0.4-0.4h0.8
		v13.6h-0.8c-0.2,0-0.4-0.2-0.4-0.4V94.7z"/>
	<defs>
		
			<filter id="Adobe_OpacityMaskFilter_00000144310658829786221270000016801561806710020252_" filterUnits="userSpaceOnUse" x="14.3" y="94.3" width="1.4" height="13.6">
			<feColorMatrix  type="matrix" values="1 0 0 0 0  0 1 0 0 0  0 0 1 0 0  0 0 0 1 0"/>
		</filter>
	</defs>
	
		<mask maskUnits="userSpaceOnUse" x="14.3" y="94.3" width="1.4" height="13.6" id="path-5-inside-3_114_3088_00000109734509846531305260000017260116306250104478_">
		<path style="fill:#FFFFFF;filter:url(#Adobe_OpacityMaskFilter_00000144310658829786221270000016801561806710020252_);" d="
			M14.5,94.7c0-0.2,0.2-0.4,0.4-0.4h0.8v13.6h-0.8c-0.2,0-0.4-0.2-0.4-0.4V94.7z"/>
	</mask>
	<path class="st8" d="M14.5,94.3h1.2H14.5z M15.7,107.9h-1.2H15.7z M14.9,107.9c-0.3,0-0.6-0.3-0.6-0.6V94.9c0-0.3,0.3-0.6,0.6-0.6
		l0,0c-0.1,0-0.2,0.2-0.2,0.4v12.8C14.7,107.7,14.8,107.9,14.9,107.9L14.9,107.9z M15.7,94.3v13.6V94.3z"/>
	<g class="st3">
		<defs>
			
				<filter id="Adobe_OpacityMaskFilter_00000137834909163693869240000007093864164445486765_" filterUnits="userSpaceOnUse" x="14.9" y="94.7" width="0.8" height="12.8">
				<feColorMatrix  type="matrix" values="1 0 0 0 0  0 1 0 0 0  0 0 1 0 0  0 0 0 1 0"/>
			</filter>
		</defs>
		
			<mask maskUnits="userSpaceOnUse" x="14.9" y="94.7" width="0.8" height="12.8" id="path-7-outside-4_114_3088_00000049192307979998133570000003081662159536244399_">
			
				<rect x="14.1" y="94.1" style="fill:#FFFFFF;filter:url(#Adobe_OpacityMaskFilter_00000137834909163693869240000007093864164445486765_);" width="2" height="14"/>
			<path d="M15.1,95.2C15.1,95.2,15.1,95.1,15.1,95.2l0.6,0v12h-0.6c0,0,0,0,0,0V95.2z"/>
		</mask>
		<path class="st10" d="M14.9,95c0-0.1,0.1-0.2,0.2-0.2h0.6v0.8h-0.4L14.9,95z M15.7,107.5h-0.6c-0.1,0-0.2-0.1-0.2-0.2l0.4-0.6h0.4
			V107.5z M15.2,107.5c-0.1,0-0.2-0.1-0.2-0.2V95c0-0.1,0.1-0.2,0.2-0.2l0.2,0.8v11.1L15.2,107.5z M15.7,95.1v12V95.1z"/>
	</g>
	
		<linearGradient id="SVGID_00000105389241709519776960000012132798942932533680_" gradientUnits="userSpaceOnUse" x1="15.1178" y1="309.6876" x2="15.1178" y2="282.0305" gradientTransform="matrix(1 0 0 -1 0 430)">
		<stop  offset="0" style="stop-color:#000000"/>
		<stop  offset="0.1196" style="stop-color:#D9D8D7"/>
		<stop  offset="0.8808" style="stop-color:#D9D8D7"/>
		<stop  offset="1" style="stop-color:#000000"/>
	</linearGradient>
	<path style="fill:url(#SVGID_00000105389241709519776960000012132798942932533680_);" d="M14.5,120.7c0-0.2,0.2-0.4,0.4-0.4h0.8
		V148h-0.8c-0.2,0-0.4-0.2-0.4-0.4V120.7z"/>
	<defs>
		
			<filter id="Adobe_OpacityMaskFilter_00000088848530100401848100000005715107738343707583_" filterUnits="userSpaceOnUse" x="14.3" y="120.3" width="1.4" height="27.7">
			<feColorMatrix  type="matrix" values="1 0 0 0 0  0 1 0 0 0  0 0 1 0 0  0 0 0 1 0"/>
		</filter>
	</defs>
	
		<mask maskUnits="userSpaceOnUse" x="14.3" y="120.3" width="1.4" height="27.7" id="path-9-inside-5_114_3088_00000085244795866523684800000017496854707923506336_">
		<path style="fill:#FFFFFF;filter:url(#Adobe_OpacityMaskFilter_00000088848530100401848100000005715107738343707583_);" d="
			M14.5,120.7c0-0.2,0.2-0.4,0.4-0.4h0.8V148h-0.8c-0.2,0-0.4-0.2-0.4-0.4V120.7z"/>
	</mask>
	<path class="st13" d="M14.5,120.3h1.2H14.5z M15.7,148h-1.2H15.7z M14.9,148c-0.3,0-0.6-0.3-0.6-0.6v-26.4c0-0.3,0.3-0.6,0.6-0.6
		l0,0c-0.1,0-0.2,0.2-0.2,0.4v26.8C14.7,147.8,14.8,148,14.9,148L14.9,148z M15.7,120.3V148V120.3z"/>
	<g class="st3">
		<defs>
			
				<filter id="Adobe_OpacityMaskFilter_00000075122570508084319690000003504243778613817231_" filterUnits="userSpaceOnUse" x="14.9" y="120.7" width="0.8" height="26.8">
				<feColorMatrix  type="matrix" values="1 0 0 0 0  0 1 0 0 0  0 0 1 0 0  0 0 0 1 0"/>
			</filter>
		</defs>
		
			<mask maskUnits="userSpaceOnUse" x="14.9" y="120.7" width="0.8" height="26.8" id="path-11-outside-6_114_3088_00000151507540147429610530000005831076853304159151_">
			
				<rect x="14.1" y="120.1" style="fill:#FFFFFF;filter:url(#Adobe_OpacityMaskFilter_00000075122570508084319690000003504243778613817231_);" width="2" height="28"/>
			<path d="M15.1,121.2C15.1,121.2,15.1,121.1,15.1,121.2l0.6,0v26h-0.6c0,0,0,0,0,0V121.2z"/>
		</mask>
		<path class="st15" d="M14.9,121c0-0.1,0.1-0.2,0.2-0.2h0.6v0.8h-0.4L14.9,121z M15.7,147.6h-0.6c-0.1,0-0.2-0.1-0.2-0.2l0.4-0.6
			h0.4V147.6z M15.2,147.6c-0.1,0-0.2-0.1-0.2-0.2V121c0-0.1,0.1-0.2,0.2-0.2l0.2,0.8v25.2L15.2,147.6z M15.7,121.1v26V121.1z"/>
	</g>
	
		<linearGradient id="SVGID_00000178900797773415587980000005221193605511173311_" gradientUnits="userSpaceOnUse" x1="15.1178" y1="274.5995" x2="15.1178" y2="246.9426" gradientTransform="matrix(1 0 0 -1 0 430)">
		<stop  offset="0" style="stop-color:#000000"/>
		<stop  offset="0.1196" style="stop-color:#D9D8D7"/>
		<stop  offset="0.8808" style="stop-color:#D9D8D7"/>
		<stop  offset="1" style="stop-color:#000000"/>
	</linearGradient>
	<path style="fill:url(#SVGID_00000178900797773415587980000005221193605511173311_);" d="M14.5,155.8c0-0.2,0.2-0.4,0.4-0.4h0.8
		v27.7h-0.8c-0.2,0-0.4-0.2-0.4-0.4V155.8z"/>
	<defs>
		
			<filter id="Adobe_OpacityMaskFilter_00000011013059082209634460000007966196218147046042_" filterUnits="userSpaceOnUse" x="14.3" y="155.4" width="1.4" height="27.7">
			<feColorMatrix  type="matrix" values="1 0 0 0 0  0 1 0 0 0  0 0 1 0 0  0 0 0 1 0"/>
		</filter>
	</defs>
	
		<mask maskUnits="userSpaceOnUse" x="14.3" y="155.4" width="1.4" height="27.7" id="path-13-inside-7_114_3088_00000174574554859042708510000002800367738074688929_">
		<path style="fill:#FFFFFF;filter:url(#Adobe_OpacityMaskFilter_00000011013059082209634460000007966196218147046042_);" d="
			M14.5,155.8c0-0.2,0.2-0.4,0.4-0.4h0.8v27.7h-0.8c-0.2,0-0.4-0.2-0.4-0.4V155.8z"/>
	</mask>
	<path class="st18" d="M14.5,155.4h1.2H14.5z M15.7,183.1h-1.2H15.7z M14.9,183.1c-0.3,0-0.6-0.3-0.6-0.6V156c0-0.3,0.3-0.6,0.6-0.6
		l0,0c-0.1,0-0.2,0.2-0.2,0.4v26.8C14.7,182.9,14.8,183.1,14.9,183.1L14.9,183.1z M15.7,155.4v27.7V155.4z"/>
	<g class="st3">
		<defs>
			
				<filter id="Adobe_OpacityMaskFilter_00000162319891566083991420000003557978433971769533_" filterUnits="userSpaceOnUse" x="14.9" y="155.8" width="0.8" height="26.8">
				<feColorMatrix  type="matrix" values="1 0 0 0 0  0 1 0 0 0  0 0 1 0 0  0 0 0 1 0"/>
			</filter>
		</defs>
		
			<mask maskUnits="userSpaceOnUse" x="14.9" y="155.8" width="0.8" height="26.8" id="path-15-outside-8_114_3088_00000122689487847864716970000017483547024798016700_">
			
				<rect x="14.1" y="155.2" style="fill:#FFFFFF;filter:url(#Adobe_OpacityMaskFilter_00000162319891566083991420000003557978433971769533_);" width="2" height="28"/>
			<path d="M15.1,156.3C15.1,156.2,15.1,156.2,15.1,156.3l0.6,0v26h-0.6c0,0,0,0,0,0V156.3z"/>
		</mask>
		<path class="st20" d="M14.9,156.1c0-0.1,0.1-0.2,0.2-0.2h0.6v0.8h-0.4L14.9,156.1z M15.7,182.6h-0.6c-0.1,0-0.2-0.1-0.2-0.2
			l0.4-0.6h0.4V182.6z M15.2,182.6c-0.1,0-0.2-0.1-0.2-0.2v-26.3c0-0.1,0.1-0.2,0.2-0.2l0.2,0.8v25.2L15.2,182.6z M15.7,156.2v26
			V156.2z"/>
	</g>
	<g>
		<defs>
			<path id="SVGID_00000155120144421392724800000011064810897044997539_" d="M46.7,8.4h131.6c17.1,0,31,13.9,31,31v338.1
				c0,17.1-13.9,31-31,31H46.7c-17.1,0-31-13.9-31-31V39.4C15.7,22.3,29.6,8.4,46.7,8.4z"/>
		</defs>
		<clipPath id="SVGID_00000023977025587547654290000004767792928700259257_">
			<use xlink:href="#SVGID_00000155120144421392724800000011064810897044997539_"  style="overflow:visible;"/>
		</clipPath>
		<g style="clip-path:url(#SVGID_00000023977025587547654290000004767792928700259257_);">
			
				<linearGradient id="SVGID_00000127748599395289709100000009186399041101845385_" gradientUnits="userSpaceOnUse" x1="15.3428" y1="421.3646" x2="209.6574" y2="21.7465" gradientTransform="matrix(1 0 0 -1 0 430)">
				<stop  offset="0" style="stop-color:#95928F"/>
				<stop  offset="1" style="stop-color:#6B6B67"/>
			</linearGradient>
			<path style="display:none;fill:url(#SVGID_00000127748599395289709100000009186399041101845385_);" d="M46.7,8.4h131.6
				c17.1,0,31,13.9,31,31v338.1c0,17.1-13.9,31-31,31H46.7c-17.1,0-31-13.9-31-31V39.4C15.7,22.3,29.6,8.4,46.7,8.4z"/>
			<g class="st23">
				<defs>
					
						<filter id="Adobe_OpacityMaskFilter_00000139997421208748392040000015684742312390639019_" filterUnits="userSpaceOnUse" x="15.7" y="8.9" width="193.5" height="399.6">
						<feColorMatrix  type="matrix" values="1 0 0 0 0  0 1 0 0 0  0 0 1 0 0  0 0 0 1 0"/>
					</filter>
				</defs>
				
					<mask maskUnits="userSpaceOnUse" x="15.7" y="8.9" width="193.5" height="399.6" id="path-19-inside-9_114_3088_00000080206888018620050970000010452052855637939369_" style="display:inline;">
					<path style="fill:#FFFFFF;filter:url(#Adobe_OpacityMaskFilter_00000139997421208748392040000015684742312390639019_);" d="
						M16.6,56.8c0-16.6,0-25,3.2-31.3c2.8-5.6,7.4-10.1,13-13c6.4-3.2,14.7-3.2,31.3-3.2h96.8c16.6,0,25,0,31.3,3.2
						c5.6,2.8,10.1,7.4,13,13c3.2,6.4,3.2,14.7,3.2,31.3v303.2c0,16.6,0,25-3.2,31.3c-2.8,5.6-7.4,10.1-13,13
						c-6.4,3.2-14.7,3.2-31.3,3.2H64.1c-16.6,0-25,0-31.3-3.2c-5.6-2.8-10.1-7.4-13-13c-3.2-6.4-3.2-14.7-3.2-31.3V56.8z"/>
				</mask>
				<path class="st25" d="M15.7,39c0-16.6,13.5-30.1,30.1-30.1h133.3c16.6,0,30.1,13.5,30.1,30.1h-1.7c0-16.2-12.9-29.3-28.9-29.3
					H46.3c-16,0-28.9,13.1-28.9,29.3H15.7z M209.3,377.9c0,16.9-13.7,30.5-30.5,30.5H46.3c-16.9,0-30.5-13.7-30.5-30.5h1.7
					c0,16,12.9,28.9,28.9,28.9h132.4c16,0,28.9-12.9,28.9-28.9H209.3z M46.3,408.4c-16.9,0-30.5-13.7-30.5-30.5V39
					c0-16.6,13.5-30.1,30.1-30.1l0.4,0.8c-16,0-28.9,13.1-28.9,29.3v338.9c0,16,12.9,28.9,28.9,28.9V408.4z M179.1,8.9
					c16.6,0,30.1,13.5,30.1,30.1v338.9c0,16.9-13.7,30.5-30.5,30.5v-1.7c16,0,28.9-12.9,28.9-28.9V39c0-16.2-12.9-29.3-28.9-29.3
					L179.1,8.9z"/>
			</g>
			<rect x="167.7" y="8.9" class="st26" width="2.5" height="2.5"/>
			<rect x="54.9" y="405.6" class="st26" width="2.5" height="2.5"/>
			<rect x="16.1" y="48.9" class="st26" width="2.5" height="2.5"/>
			<rect x="206.4" y="48.9" class="st26" width="2.5" height="2.5"/>
			<rect x="16.1" y="365.9" class="st26" width="2.5" height="2.5"/>
			<rect x="206.4" y="365.9" class="st26" width="2.5" height="2.5"/>
			<path class="st23" d="M45.4,11.3h134.1c14.8,0,26.8,12,26.8,26.8v340.6c0,14.8-12,26.8-26.8,26.8H45.4c-14.8,0-26.8-12-26.8-26.8
				V38.2C18.6,23.3,30.6,11.3,45.4,11.3z"/>
			<defs>
				
					<filter id="Adobe_OpacityMaskFilter_00000097486467284879463600000000819343558517968049_" filterUnits="userSpaceOnUse" x="38" y="23.3" width="149.5" height="8.3">
					<feColorMatrix  type="matrix" values="1 0 0 0 0  0 1 0 0 0  0 0 1 0 0  0 0 0 1 0"/>
				</filter>
			</defs>
			
				<mask maskUnits="userSpaceOnUse" x="38" y="23.3" width="149.5" height="8.3" id="mask0_114_3088_00000065071334864829089210000004433070165421565876_">
				<path style="fill:#010101;filter:url(#Adobe_OpacityMaskFilter_00000097486467284879463600000000819343558517968049_);" d="
					M42,30.3h0.9v-4.9H42l-1.3,0.9v0.8l1.2-0.9H42V30.3z"/>
				<path class="st28" d="M44.1,30.3h3.4v-0.7h-2.2v-0.1l1-1c0.9-0.9,1.2-1.3,1.2-1.9v0c0-0.8-0.7-1.4-1.7-1.4c-1,0-1.8,0.6-1.8,1.6
					l0,0l0.8,0l0,0c0-0.5,0.4-0.9,0.9-0.9c0.5,0,0.8,0.3,0.8,0.8v0c0,0.4-0.2,0.6-0.9,1.3l-1.6,1.7V30.3z"/>
				<path class="st28" d="M49,27.1c0.3,0,0.5-0.2,0.5-0.5c0-0.3-0.2-0.5-0.5-0.5c-0.3,0-0.5,0.2-0.5,0.5
					C48.5,26.9,48.7,27.1,49,27.1z M49,29.7c0.3,0,0.5-0.2,0.5-0.5c0-0.3-0.2-0.5-0.5-0.5c-0.3,0-0.5,0.2-0.5,0.5
					C48.5,29.4,48.7,29.7,49,29.7z"/>
				<path class="st28" d="M52.8,30.3h0.8v-0.9h0.7v-0.7h-0.7v-3.3h-1.3c-0.7,1-1.4,2.2-2,3.3v0.7h2.4V30.3z M51.2,28.7L51.2,28.7
					c0.5-0.9,1.1-1.8,1.6-2.6h0.1v2.6H51.2z"/>
				<path class="st28" d="M56.2,30.3h0.9v-4.9h-0.9l-1.3,0.9v0.8l1.2-0.9h0.1V30.3z"/>
				<path class="st29" d="M177.5,25.2h7c0.8,0,1.4,0.6,1.4,1.4v2.1c0,0.8-0.6,1.4-1.4,1.4h-7c-0.8,0-1.4-0.6-1.4-1.4v-2.1
					C176.1,25.8,176.7,25.2,177.5,25.2z"/>
				<path class="st30" d="M186.6,27v1.7c0.4-0.1,0.6-0.5,0.6-0.9C187.2,27.5,186.9,27.2,186.6,27"/>
				<path d="M176.7,26.6c0-0.5,0.4-0.8,0.8-0.8h7c0.5,0,0.8,0.4,0.8,0.8v2.1c0,0.5-0.4,0.8-0.8,0.8h-7c-0.5,0-0.8-0.4-0.8-0.8V26.6z
					"/>
				<path class="st31" d="M169.4,26.4c1,0,2,0.4,2.7,1.1c0.1,0.1,0.1,0.1,0.2,0l0.5-0.5c0,0,0-0.1,0-0.1s0-0.1,0-0.1
					c-1.9-1.9-5-1.9-6.9,0c0,0,0,0.1,0,0.1c0,0,0,0.1,0,0.1l0.5,0.5c0.1,0.1,0.1,0.1,0.2,0C167.4,26.8,168.4,26.4,169.4,26.4z
					 M169.5,28.1c0.6,0,1.1,0.2,1.5,0.6c0.1,0.1,0.1,0.1,0.2,0l0.5-0.5c0,0,0-0.1,0-0.1c0,0,0-0.1,0-0.1c-1.3-1.2-3.2-1.2-4.5,0
					c0,0,0,0.1,0,0.1c0,0,0,0.1,0,0.1l0.5,0.5c0.1,0.1,0.1,0.1,0.2,0C168.4,28.3,168.9,28.1,169.5,28.1z M170.5,29.2
					c0,0,0,0.1,0,0.1l-0.9,0.9c0,0-0.1,0-0.1,0s-0.1,0-0.1,0l-0.9-0.9c0,0,0-0.1,0-0.1c0,0,0-0.1,0-0.1c0.6-0.5,1.4-0.5,2,0
					C170.5,29.1,170.5,29.2,170.5,29.2z"/>
				<path d="M159.3,26.6c0-0.2,0.2-0.4,0.4-0.4h0.4c0.2,0,0.4,0.2,0.4,0.4v3.3c0,0.2-0.2,0.4-0.4,0.4h-0.4c-0.2,0-0.4-0.2-0.4-0.4
					V26.6z"/>
				<path d="M161.4,25.8c0-0.2,0.2-0.4,0.4-0.4h0.4c0.2,0,0.4,0.2,0.4,0.4v4.1c0,0.2-0.2,0.4-0.4,0.4h-0.4c-0.2,0-0.4-0.2-0.4-0.4
					V25.8z"/>
				<path d="M157.3,28.1c0-0.2,0.2-0.4,0.4-0.4h0.4c0.2,0,0.4,0.2,0.4,0.4v1.9c0,0.2-0.2,0.4-0.4,0.4h-0.4c-0.2,0-0.4-0.2-0.4-0.4
					V28.1z"/>
				<path d="M155.2,29.1c0-0.2,0.2-0.4,0.4-0.4h0.4c0.2,0,0.4,0.2,0.4,0.4v0.8c0,0.2-0.2,0.4-0.4,0.4h-0.4c-0.2,0-0.4-0.2-0.4-0.4
					V29.1z"/>
			</mask>
			<g class="st32">
				<g>
					<rect x="38" y="23.3" class="st33" width="149.5" height="8.3"/>
				</g>
				<rect x="38" y="23.3" class="st34" width="149.5" height="8.3"/>
				<rect x="38" y="23.3" class="st33" width="149.5" height="8.3"/>
				<rect x="38" y="23.3" class="st33" width="149.5" height="8.3"/>
				<rect x="38" y="23.3" class="st33" width="149.5" height="8.3"/>
				<rect x="38" y="23.3" width="149.5" height="8.3"/>
				<rect x="38" y="23.3" class="st33" width="149.5" height="8.3"/>
				<rect x="38" y="23.3" width="149.5" height="8.3"/>
			</g>
			<defs>
				
					<filter id="Adobe_OpacityMaskFilter_00000162324465597704856770000002710689938369807253_" filterUnits="userSpaceOnUse" x="81.2" y="394" width="62.5" height="2.1">
					<feColorMatrix  type="matrix" values="1 0 0 0 0  0 1 0 0 0  0 0 1 0 0  0 0 0 1 0"/>
				</filter>
			</defs>
			
				<mask maskUnits="userSpaceOnUse" x="81.2" y="394" width="62.5" height="2.1" id="mask1_114_3088_00000045615554717027700330000007236901356186527924_">
				<path style="filter:url(#Adobe_OpacityMaskFilter_00000162324465597704856770000002710689938369807253_);" d="M82.3,394h60.4
					c0.6,0,1,0.5,1,1l0,0c0,0.6-0.5,1-1,1H82.3c-0.6,0-1-0.5-1-1l0,0C81.2,394.5,81.7,394,82.3,394z"/>
			</mask>
			<g class="st36">
				<g>
					<rect x="81.2" y="394" class="st33" width="62.5" height="2.1"/>
				</g>
				<rect x="81.2" y="394" class="st34" width="62.5" height="2.1"/>
				<rect x="81.2" y="394" class="st33" width="62.5" height="2.1"/>
				<rect x="81.2" y="394" class="st33" width="62.5" height="2.1"/>
				<rect x="81.2" y="394" class="st33" width="62.5" height="2.1"/>
				<rect x="81.2" y="394" width="62.5" height="2.1"/>
				<rect x="81.2" y="394" class="st33" width="62.5" height="2.1"/>
				<rect x="81.2" y="394" width="62.5" height="2.1"/>
			</g>
			<path class="st37" d="M97.7,11.3h29.6v2.1c0,1.1-0.9,2.1-2.1,2.1H99.7c-1.1,0-2.1-0.9-2.1-2.1V11.3z"/>
			<defs>
				
					<filter id="Adobe_OpacityMaskFilter_00000168075229452001001180000006766187721920056501_" filterUnits="userSpaceOnUse" x="97.5" y="11.3" width="30.1" height="4.3">
					<feColorMatrix  type="matrix" values="1 0 0 0 0  0 1 0 0 0  0 0 1 0 0  0 0 0 1 0"/>
				</filter>
			</defs>
			
				<mask maskUnits="userSpaceOnUse" x="97.5" y="11.3" width="30.1" height="4.3" id="path-39-inside-10_114_3088_00000111897806645405708570000003311051492008788658_">
				<path style="fill:#FFFFFF;filter:url(#Adobe_OpacityMaskFilter_00000168075229452001001180000006766187721920056501_);" d="
					M97.7,11.3h29.6v2.1c0,1.1-0.9,2.1-2.1,2.1H99.7c-1.1,0-2.1-0.9-2.1-2.1V11.3z"/>
			</mask>
			<path class="st39" d="M97.7,11.3h29.6H97.7z M127.5,13.4c0,1.3-1,2.3-2.3,2.3H99.7c-1.3,0-2.3-1-2.3-2.3h0.4c0,1,0.8,1.9,1.9,1.9
				h25.5c1,0,1.9-0.8,1.9-1.9H127.5z M99.7,15.7c-1.3,0-2.3-1-2.3-2.3v-2.1h0.4v2.1c0,1,0.8,1.9,1.9,1.9V15.7z M127.5,11.3v2.1
				c0,1.3-1,2.3-2.3,2.3v-0.4c1,0,1.9-0.8,1.9-1.9v-2.1H127.5z"/>
			<g>
				<defs>
					<path id="SVGID_00000176762249517576572040000000683059184104311978_" d="M99.5,12.2h25.9c0.6,0,1,0.5,1,1l0,0c0,0.6-0.5,1-1,1
						H99.5c-0.6,0-1-0.5-1-1l0,0C98.5,12.6,99,12.2,99.5,12.2z"/>
				</defs>
				<clipPath id="SVGID_00000168799811141088233370000009200022405966690699_">
					<use xlink:href="#SVGID_00000176762249517576572040000000683059184104311978_"  style="overflow:visible;"/>
				</clipPath>
				<g style="clip-path:url(#SVGID_00000168799811141088233370000009200022405966690699_);">
					<path class="st41" d="M99.5,12.2h25.9c0.6,0,1,0.5,1,1l0,0c0,0.6-0.5,1-1,1H99.5c-0.6,0-1-0.5-1-1l0,0
						C98.5,12.6,99,12.2,99.5,12.2z"/>
					<rect x="98.5" y="12.2" class="st42" width="0.4" height="0.4"/>
					<rect x="99.3" y="12.2" class="st42" width="0.4" height="0.4"/>
					<rect x="100.2" y="12.2" class="st42" width="0.4" height="0.4"/>
					<rect x="101" y="12.2" class="st42" width="0.4" height="0.4"/>
					<rect x="101.8" y="12.2" class="st42" width="0.4" height="0.4"/>
					<rect x="102.6" y="12.2" class="st42" width="0.4" height="0.4"/>
					<rect x="103.5" y="12.2" class="st42" width="0.4" height="0.4"/>
					<rect x="104.3" y="12.2" class="st42" width="0.4" height="0.4"/>
					<rect x="105.1" y="12.2" class="st42" width="0.4" height="0.4"/>
					<rect x="105.9" y="12.2" class="st42" width="0.4" height="0.4"/>
					<rect x="106.8" y="12.2" class="st42" width="0.4" height="0.4"/>
					<rect x="107.6" y="12.2" class="st42" width="0.4" height="0.4"/>
					<rect x="108.4" y="12.2" class="st42" width="0.4" height="0.4"/>
					<rect x="109.2" y="12.2" class="st42" width="0.4" height="0.4"/>
					<rect x="110.1" y="12.2" class="st42" width="0.4" height="0.4"/>
					<rect x="110.9" y="12.2" class="st42" width="0.4" height="0.4"/>
					<rect x="111.7" y="12.2" class="st42" width="0.4" height="0.4"/>
					<rect x="112.5" y="12.2" class="st42" width="0.4" height="0.4"/>
					<rect x="113.4" y="12.2" class="st42" width="0.4" height="0.4"/>
					<rect x="114.2" y="12.2" class="st42" width="0.4" height="0.4"/>
					<rect x="115" y="12.2" class="st42" width="0.4" height="0.4"/>
					<rect x="115.8" y="12.2" class="st42" width="0.4" height="0.4"/>
					<rect x="116.7" y="12.2" class="st42" width="0.4" height="0.4"/>
					<rect x="117.5" y="12.2" class="st42" width="0.4" height="0.4"/>
					<rect x="118.3" y="12.2" class="st42" width="0.4" height="0.4"/>
					<rect x="119.1" y="12.2" class="st42" width="0.4" height="0.4"/>
					<rect x="120" y="12.2" class="st42" width="0.4" height="0.4"/>
					<rect x="120.8" y="12.2" class="st42" width="0.4" height="0.4"/>
					<rect x="121.6" y="12.2" class="st42" width="0.4" height="0.4"/>
					<rect x="122.4" y="12.2" class="st42" width="0.4" height="0.4"/>
					<rect x="123.3" y="12.2" class="st42" width="0.4" height="0.4"/>
					<rect x="124.1" y="12.2" class="st42" width="0.4" height="0.4"/>
					<rect x="124.9" y="12.2" class="st42" width="0.4" height="0.4"/>
					<rect x="125.7" y="12.2" class="st42" width="0.4" height="0.4"/>
					<rect x="98.5" y="13" class="st42" width="0.4" height="0.4"/>
					<rect x="99.3" y="13" class="st42" width="0.4" height="0.4"/>
					<rect x="100.2" y="13" class="st42" width="0.4" height="0.4"/>
					<rect x="101" y="13" class="st42" width="0.4" height="0.4"/>
					<rect x="101.8" y="13" class="st42" width="0.4" height="0.4"/>
					<rect x="102.6" y="13" class="st42" width="0.4" height="0.4"/>
					<rect x="103.5" y="13" class="st42" width="0.4" height="0.4"/>
					<rect x="104.3" y="13" class="st42" width="0.4" height="0.4"/>
					<rect x="105.1" y="13" class="st42" width="0.4" height="0.4"/>
					<rect x="105.9" y="13" class="st42" width="0.4" height="0.4"/>
					<rect x="106.8" y="13" class="st42" width="0.4" height="0.4"/>
					<rect x="107.6" y="13" class="st42" width="0.4" height="0.4"/>
					<rect x="108.4" y="13" class="st42" width="0.4" height="0.4"/>
					<rect x="109.2" y="13" class="st42" width="0.4" height="0.4"/>
					<rect x="110.1" y="13" class="st42" width="0.4" height="0.4"/>
					<rect x="110.9" y="13" class="st42" width="0.4" height="0.4"/>
					<rect x="111.7" y="13" class="st42" width="0.4" height="0.4"/>
					<rect x="112.5" y="13" class="st42" width="0.4" height="0.4"/>
					<rect x="113.4" y="13" class="st42" width="0.4" height="0.4"/>
					<rect x="114.2" y="13" class="st42" width="0.4" height="0.4"/>
					<rect x="115" y="13" class="st42" width="0.4" height="0.4"/>
					<rect x="115.8" y="13" class="st42" width="0.4" height="0.4"/>
					<rect x="116.7" y="13" class="st42" width="0.4" height="0.4"/>
					<rect x="117.5" y="13" class="st42" width="0.4" height="0.4"/>
					<rect x="118.3" y="13" class="st42" width="0.4" height="0.4"/>
					<rect x="119.1" y="13" class="st42" width="0.4" height="0.4"/>
					<rect x="120" y="13" class="st42" width="0.4" height="0.4"/>
					<rect x="120.8" y="13" class="st42" width="0.4" height="0.4"/>
					<rect x="121.6" y="13" class="st42" width="0.4" height="0.4"/>
					<rect x="122.4" y="13" class="st42" width="0.4" height="0.4"/>
					<rect x="123.3" y="13" class="st42" width="0.4" height="0.4"/>
					<rect x="124.1" y="13" class="st42" width="0.4" height="0.4"/>
					<rect x="124.9" y="13" class="st42" width="0.4" height="0.4"/>
					<rect x="125.7" y="13" class="st42" width="0.4" height="0.4"/>
					<rect x="98.5" y="13.8" class="st42" width="0.4" height="0.4"/>
					<rect x="99.3" y="13.8" class="st42" width="0.4" height="0.4"/>
					<rect x="100.2" y="13.8" class="st42" width="0.4" height="0.4"/>
					<rect x="101" y="13.8" class="st42" width="0.4" height="0.4"/>
					<rect x="101.8" y="13.8" class="st42" width="0.4" height="0.4"/>
					<rect x="102.6" y="13.8" class="st42" width="0.4" height="0.4"/>
					<rect x="103.5" y="13.8" class="st42" width="0.4" height="0.4"/>
					<rect x="104.3" y="13.8" class="st42" width="0.4" height="0.4"/>
					<rect x="105.1" y="13.8" class="st42" width="0.4" height="0.4"/>
					<rect x="105.9" y="13.8" class="st42" width="0.4" height="0.4"/>
					<rect x="106.8" y="13.8" class="st42" width="0.4" height="0.4"/>
					<rect x="107.6" y="13.8" class="st42" width="0.4" height="0.4"/>
					<rect x="108.4" y="13.8" class="st42" width="0.4" height="0.4"/>
					<rect x="109.2" y="13.8" class="st42" width="0.4" height="0.4"/>
					<rect x="110.1" y="13.8" class="st42" width="0.4" height="0.4"/>
					<rect x="110.9" y="13.8" class="st42" width="0.4" height="0.4"/>
					<rect x="111.7" y="13.8" class="st42" width="0.4" height="0.4"/>
					<rect x="112.5" y="13.8" class="st42" width="0.4" height="0.4"/>
					<rect x="113.4" y="13.8" class="st42" width="0.4" height="0.4"/>
					<rect x="114.2" y="13.8" class="st42" width="0.4" height="0.4"/>
					<rect x="115" y="13.8" class="st42" width="0.4" height="0.4"/>
					<rect x="115.8" y="13.8" class="st42" width="0.4" height="0.4"/>
					<rect x="116.7" y="13.8" class="st42" width="0.4" height="0.4"/>
					<rect x="117.5" y="13.8" class="st42" width="0.4" height="0.4"/>
					<rect x="118.3" y="13.8" class="st42" width="0.4" height="0.4"/>
					<rect x="119.1" y="13.8" class="st42" width="0.4" height="0.4"/>
					<rect x="120" y="13.8" class="st42" width="0.4" height="0.4"/>
					<rect x="120.8" y="13.8" class="st42" width="0.4" height="0.4"/>
					<rect x="121.6" y="13.8" class="st42" width="0.4" height="0.4"/>
					<rect x="122.4" y="13.8" class="st42" width="0.4" height="0.4"/>
					<rect x="123.3" y="13.8" class="st42" width="0.4" height="0.4"/>
					<rect x="124.1" y="13.8" class="st42" width="0.4" height="0.4"/>
					<rect x="124.9" y="13.8" class="st42" width="0.4" height="0.4"/>
					<rect x="125.7" y="13.8" class="st42" width="0.4" height="0.4"/>
					<rect x="98.9" y="12.6" class="st42" width="0.4" height="0.4"/>
					<rect x="99.7" y="12.6" class="st42" width="0.4" height="0.4"/>
					<rect x="100.6" y="12.6" class="st42" width="0.4" height="0.4"/>
					<rect x="101.4" y="12.6" class="st42" width="0.4" height="0.4"/>
					<rect x="102.2" y="12.6" class="st42" width="0.4" height="0.4"/>
					<rect x="103" y="12.6" class="st42" width="0.4" height="0.4"/>
					<rect x="103.9" y="12.6" class="st42" width="0.4" height="0.4"/>
					<rect x="104.7" y="12.6" class="st42" width="0.4" height="0.4"/>
					<rect x="105.5" y="12.6" class="st42" width="0.4" height="0.4"/>
					<rect x="106.3" y="12.6" class="st42" width="0.4" height="0.4"/>
					<rect x="107.2" y="12.6" class="st42" width="0.4" height="0.4"/>
					<rect x="108" y="12.6" class="st42" width="0.4" height="0.4"/>
					<rect x="108.8" y="12.6" class="st42" width="0.4" height="0.4"/>
					<rect x="109.6" y="12.6" class="st42" width="0.4" height="0.4"/>
					<rect x="110.5" y="12.6" class="st42" width="0.4" height="0.4"/>
					<rect x="111.3" y="12.6" class="st42" width="0.4" height="0.4"/>
					<rect x="112.1" y="12.6" class="st42" width="0.4" height="0.4"/>
					<rect x="112.9" y="12.6" class="st42" width="0.4" height="0.4"/>
					<rect x="113.8" y="12.6" class="st42" width="0.4" height="0.4"/>
					<rect x="114.6" y="12.6" class="st42" width="0.4" height="0.4"/>
					<rect x="115.4" y="12.6" class="st42" width="0.4" height="0.4"/>
					<rect x="116.3" y="12.6" class="st42" width="0.4" height="0.4"/>
					<rect x="117.1" y="12.6" class="st42" width="0.4" height="0.4"/>
					<rect x="117.9" y="12.6" class="st42" width="0.4" height="0.4"/>
					<rect x="118.7" y="12.6" class="st42" width="0.4" height="0.4"/>
					<rect x="119.6" y="12.6" class="st42" width="0.4" height="0.4"/>
					<rect x="120.4" y="12.6" class="st42" width="0.4" height="0.4"/>
					<rect x="121.2" y="12.6" class="st42" width="0.4" height="0.4"/>
					<rect x="122" y="12.6" class="st42" width="0.4" height="0.4"/>
					<rect x="122.9" y="12.6" class="st42" width="0.4" height="0.4"/>
					<rect x="123.7" y="12.6" class="st42" width="0.4" height="0.4"/>
					<rect x="124.5" y="12.6" class="st42" width="0.4" height="0.4"/>
					<rect x="125.3" y="12.6" class="st42" width="0.4" height="0.4"/>
					<rect x="126.2" y="12.6" class="st42" width="0.4" height="0.4"/>
					<rect x="98.9" y="13.4" class="st42" width="0.4" height="0.4"/>
					<rect x="99.7" y="13.4" class="st42" width="0.4" height="0.4"/>
					<rect x="100.6" y="13.4" class="st42" width="0.4" height="0.4"/>
					<rect x="101.4" y="13.4" class="st42" width="0.4" height="0.4"/>
					<rect x="102.2" y="13.4" class="st42" width="0.4" height="0.4"/>
					<rect x="103" y="13.4" class="st42" width="0.4" height="0.4"/>
					<rect x="103.9" y="13.4" class="st42" width="0.4" height="0.4"/>
					<rect x="104.7" y="13.4" class="st42" width="0.4" height="0.4"/>
					<rect x="105.5" y="13.4" class="st42" width="0.4" height="0.4"/>
					<rect x="106.3" y="13.4" class="st42" width="0.4" height="0.4"/>
					<rect x="107.2" y="13.4" class="st42" width="0.4" height="0.4"/>
					<rect x="108" y="13.4" class="st42" width="0.4" height="0.4"/>
					<rect x="108.8" y="13.4" class="st42" width="0.4" height="0.4"/>
					<rect x="109.6" y="13.4" class="st42" width="0.4" height="0.4"/>
					<rect x="110.5" y="13.4" class="st42" width="0.4" height="0.4"/>
					<rect x="111.3" y="13.4" class="st42" width="0.4" height="0.4"/>
					<rect x="112.1" y="13.4" class="st42" width="0.4" height="0.4"/>
					<rect x="112.9" y="13.4" class="st42" width="0.4" height="0.4"/>
					<rect x="113.8" y="13.4" class="st42" width="0.4" height="0.4"/>
					<rect x="114.6" y="13.4" class="st42" width="0.4" height="0.4"/>
					<rect x="115.4" y="13.4" class="st42" width="0.4" height="0.4"/>
					<rect x="116.3" y="13.4" class="st42" width="0.4" height="0.4"/>
					<rect x="117.1" y="13.4" class="st42" width="0.4" height="0.4"/>
					<rect x="117.9" y="13.4" class="st42" width="0.4" height="0.4"/>
					<rect x="118.7" y="13.4" class="st42" width="0.4" height="0.4"/>
					<rect x="119.6" y="13.4" class="st42" width="0.4" height="0.4"/>
					<rect x="120.4" y="13.4" class="st42" width="0.4" height="0.4"/>
					<rect x="121.2" y="13.4" class="st42" width="0.4" height="0.4"/>
					<rect x="122" y="13.4" class="st42" width="0.4" height="0.4"/>
					<rect x="122.9" y="13.4" class="st42" width="0.4" height="0.4"/>
					<rect x="123.7" y="13.4" class="st42" width="0.4" height="0.4"/>
					<rect x="124.5" y="13.4" class="st42" width="0.4" height="0.4"/>
					<rect x="125.3" y="13.4" class="st42" width="0.4" height="0.4"/>
					<rect x="126.2" y="13.4" class="st42" width="0.4" height="0.4"/>
				</g>
			</g>
			<path d="M145.9,22.7v-3.1c0-1.4,1.1-2.5,2.5-2.5H76.7c1.4,0,2.5,1.1,2.5,2.5v3.1c0,4.6,3.7,8.3,8.3,8.3h3.1h44.1h3.1
				C142.2,30.9,145.9,27.2,145.9,22.7z"/>
			<ellipse class="st43" cx="122.2" cy="22.7" rx="3.1" ry="3.1"/>
			<ellipse class="st43" cx="107.8" cy="22.7" rx="3.1" ry="3.1"/>
			<ellipse class="st43" cx="136.6" cy="22.7" rx="3.1" ry="3.1"/>
			<ellipse class="st44" cx="88.4" cy="22.7" rx="3.1" ry="3.1"/>
		</g>
	</g>
	<path class="st45" d="M46.7,8.7h131.6c17,0,30.8,13.8,30.8,30.8v338.1c0,17-13.8,30.8-30.8,30.8H46.7c-17,0-30.8-13.8-30.8-30.8
		V39.4C15.9,22.4,29.7,8.7,46.7,8.7z"/>
</g>
</svg>
