<svg width="194" height="400" viewBox="0 0 194 400" fill="none" xmlns="http://www.w3.org/2000/svg" xmlns:xlink="http://www.w3.org/1999/xlink">
<g clip-path="url(#clip0_114_3101)">
<rect x="0.463379" width="193.529" height="400" rx="30.9598" fill="url(#paint0_linear_114_3101)"/>
<g filter="url(#filter0_f_114_3101)">
<mask id="path-3-inside-1_114_3101" fill="white">
<path d="M1.28687 48.3798C1.28687 31.7343 1.28687 23.4115 4.5263 17.0538C7.37579 11.4613 11.9226 6.91454 17.515 4.06506C23.8728 0.825623 32.1955 0.825623 48.841 0.825623H145.615C162.261 0.825623 170.583 0.825623 176.941 4.06506C182.534 6.91454 187.08 11.4613 189.93 17.0538C193.169 23.4115 193.169 31.7343 193.169 48.3798V351.62C193.169 368.266 193.169 376.589 189.93 382.946C187.08 388.539 182.534 393.086 176.941 395.935C170.583 399.174 162.261 399.174 145.615 399.174H48.8411C32.1955 399.174 23.8728 399.174 17.515 395.935C11.9226 393.086 7.37579 388.539 4.5263 382.946C1.28687 376.589 1.28687 368.266 1.28687 351.62V48.3798Z"/>
</mask>
<path d="M0.461272 30.547C0.461272 13.9043 13.9528 0.412826 30.5954 0.412826H163.861C180.503 0.412826 193.995 13.9043 193.995 30.547L192.344 30.547C192.344 14.3603 179.407 1.23842 163.448 1.23842H31.0082C15.0495 1.23842 2.11246 14.3603 2.11246 30.547L0.461272 30.547ZM193.995 369.453C193.995 386.324 180.318 400 163.448 400H31.0082C14.1376 400 0.461272 386.324 0.461272 369.453L2.11246 369.453C2.11246 385.412 15.0495 398.349 31.0082 398.349H163.448C179.407 398.349 192.344 385.412 192.344 369.453L193.995 369.453ZM31.0082 400C14.1376 400 0.461272 386.324 0.461272 369.453V30.547C0.461272 13.9043 13.9528 0.412826 30.5954 0.412826L31.0082 1.23842C15.0495 1.23842 2.11246 14.3603 2.11246 30.547V369.453C2.11246 385.412 15.0495 398.349 31.0082 398.349L31.0082 400ZM163.861 0.412826C180.503 0.412826 193.995 13.9043 193.995 30.547V369.453C193.995 386.324 180.318 400 163.448 400L163.448 398.349C179.407 398.349 192.344 385.412 192.344 369.453V30.547C192.344 14.3603 179.407 1.23842 163.448 1.23842L163.861 0.412826Z" fill="white" mask="url(#path-3-inside-1_114_3101)"/>
</g>
<rect x="152.404" y="0.412781" width="2.47059" height="2.47678" fill="#C5C6C8"/>
<rect x="39.5809" y="397.11" width="2.47059" height="2.47678" fill="#C5C6C8"/>
<rect x="0.875122" y="40.454" width="2.47059" height="2.47678" fill="#C5C6C8"/>
<rect x="191.11" y="40.454" width="2.47059" height="2.47678" fill="#C5C6C8"/>
<rect x="0.875122" y="357.482" width="2.47059" height="2.47678" fill="#C5C6C8"/>
<rect x="191.11" y="357.482" width="2.47059" height="2.47678" fill="#C5C6C8"/>
<rect x="3.34558" y="2.88965" width="187.765" height="394.221" rx="26.8318" fill="black"/>
<mask id="mask0_114_3101" style="mask-type:alpha" maskUnits="userSpaceOnUse" x="25" y="16" width="147" height="6">
<path d="M26.7625 21.8783H27.6465V16.9338H26.7659L25.4741 17.8418V18.6745L26.7042 17.8041H26.7625V21.8783Z" fill="#010101"/>
<path d="M28.8522 21.8783H32.2856V21.145H30.048V21.073L31.0383 20.1136C31.9395 19.2467 32.2102 18.8012 32.2102 18.2393V18.229C32.2102 17.3964 31.518 16.8104 30.5552 16.8104C29.5238 16.8104 28.8042 17.4546 28.8042 18.3764L28.8076 18.3866L29.63 18.3901L29.6334 18.3764C29.6334 17.8658 29.9863 17.5197 30.5106 17.5197C31.0246 17.5197 31.3364 17.8487 31.3364 18.3044V18.3147C31.3364 18.695 31.1479 18.9452 30.4763 19.6236L28.8522 21.2821V21.8783Z" fill="#010101"/>
<path d="M33.7345 18.6745C34.0497 18.6745 34.2793 18.4346 34.2793 18.1331C34.2793 17.8281 34.0497 17.5917 33.7345 17.5917C33.4226 17.5917 33.1896 17.8281 33.1896 18.1331C33.1896 18.4346 33.4226 18.6745 33.7345 18.6745ZM33.7345 21.2169C34.0497 21.2169 34.2793 20.9805 34.2793 20.6756C34.2793 20.3706 34.0497 20.1342 33.7345 20.1342C33.4226 20.1342 33.1896 20.3706 33.1896 20.6756C33.1896 20.9805 33.4226 21.2169 33.7345 21.2169Z" fill="#010101"/>
<path d="M37.5203 21.8783H38.3666V20.9291H39.0314V20.1993H38.3666V16.9338H37.1159C36.4443 17.9549 35.7419 19.0925 35.1011 20.2061V20.9291H37.5203V21.8783ZM35.9235 20.2198V20.1684C36.4032 19.3289 36.9754 18.414 37.4826 17.6396H37.534V20.2198H35.9235Z" fill="#010101"/>
<path d="M40.912 21.8783H41.796V16.9338H40.9154L39.6236 17.8418V18.6745L40.8538 17.8041H40.912V21.8783Z" fill="#010101"/>
<path opacity="0.35" d="M162.224 16.7297H169.241C170.033 16.7297 170.675 17.3714 170.675 18.1631V20.2271C170.675 21.0187 170.033 21.6605 169.241 21.6605H162.224C161.432 21.6605 160.79 21.0187 160.79 20.2271V18.1631C160.79 17.3714 161.432 16.7297 162.224 16.7297Z" stroke="black" stroke-width="0.435536"/>
<path opacity="0.4" d="M171.305 18.5759V20.318C171.656 20.1705 171.884 19.8272 171.884 19.4469C171.884 19.0667 171.656 18.7234 171.305 18.5759" fill="black"/>
<path d="M161.398 18.1631C161.398 17.7072 161.768 17.3375 162.224 17.3375H169.241C169.697 17.3375 170.067 17.7072 170.067 18.1631V20.2271C170.067 20.6831 169.697 21.0527 169.241 21.0527H162.224C161.768 21.0527 161.398 20.6831 161.398 20.2271V18.1631Z" fill="black"/>
<path fill-rule="evenodd" clip-rule="evenodd" d="M154.174 17.9929C155.193 17.9929 156.172 18.3923 156.91 19.1084C156.965 19.1636 157.054 19.163 157.109 19.1068L157.64 18.5596C157.668 18.5311 157.683 18.4925 157.683 18.4524C157.683 18.4123 157.667 18.3739 157.639 18.3457C155.702 16.4511 152.646 16.4511 150.71 18.3457C150.682 18.3739 150.666 18.4122 150.665 18.4524C150.665 18.4925 150.681 18.5311 150.708 18.5596L151.24 19.1068C151.294 19.163 151.383 19.1637 151.439 19.1084C152.177 18.3922 153.156 17.9929 154.174 17.9929ZM154.189 19.6791C154.748 19.679 155.288 19.8913 155.703 20.2746C155.759 20.329 155.847 20.3278 155.902 20.2719L156.432 19.7247C156.46 19.696 156.476 19.6571 156.475 19.6166C156.475 19.5762 156.459 19.5376 156.43 19.5095C155.167 18.3104 153.212 18.3104 151.949 19.5095C151.92 19.5376 151.904 19.5762 151.904 19.6167C151.903 19.6571 151.919 19.6961 151.947 19.7247L152.477 20.2719C152.532 20.3278 152.62 20.329 152.677 20.2746C153.091 19.8915 153.63 19.6793 154.189 19.6791ZM155.268 20.7814C155.269 20.8219 155.253 20.8611 155.225 20.8895L154.307 21.8349C154.28 21.8627 154.243 21.8783 154.205 21.8783C154.167 21.8783 154.13 21.8627 154.103 21.8349L153.185 20.8895C153.157 20.861 153.141 20.8219 153.142 20.7813C153.143 20.7408 153.16 20.7023 153.19 20.6751C153.776 20.1691 154.634 20.1691 155.22 20.6751C155.25 20.7024 155.267 20.7408 155.268 20.7814Z" fill="black"/>
<path d="M144.061 18.1631C144.061 17.9351 144.246 17.7503 144.474 17.7503H144.886C145.114 17.7503 145.299 17.9351 145.299 18.1631V21.4654C145.299 21.6934 145.114 21.8782 144.886 21.8782H144.474C144.246 21.8782 144.061 21.6934 144.061 21.4654V18.1631Z" fill="black"/>
<path d="M146.125 17.3375C146.125 17.1095 146.31 16.9247 146.537 16.9247H146.95C147.178 16.9247 147.363 17.1095 147.363 17.3375V21.4654C147.363 21.6934 147.178 21.8782 146.95 21.8782H146.537C146.31 21.8782 146.125 21.6934 146.125 21.4654V17.3375Z" fill="black"/>
<path d="M141.997 19.6079C141.997 19.3799 142.182 19.1951 142.41 19.1951H142.822C143.05 19.1951 143.235 19.3799 143.235 19.6079V21.4654C143.235 21.6934 143.05 21.8782 142.822 21.8782H142.41C142.182 21.8782 141.997 21.6934 141.997 21.4654V19.6079Z" fill="black"/>
<path d="M139.933 20.6399C139.933 20.4119 140.118 20.2271 140.346 20.2271H140.758C140.986 20.2271 141.171 20.4119 141.171 20.6399V21.4654C141.171 21.6934 140.986 21.8782 140.758 21.8782H140.346C140.118 21.8782 139.933 21.6934 139.933 21.4654V20.6399Z" fill="black"/>
</mask>
<g mask="url(#mask0_114_3101)">
<g filter="url(#filter1_b_114_3101)">
<rect x="22.6986" y="14.8607" width="149.471" height="8.25593" fill="white" style="mix-blend-mode:multiply"/>
</g>
<rect x="22.6986" y="14.8607" width="149.471" height="8.25593" fill="#FF0000" style="mix-blend-mode:saturation"/>
<rect x="22.6986" y="14.8607" width="149.471" height="8.25593" fill="white" style="mix-blend-mode:difference"/>
<rect x="22.6986" y="14.8607" width="149.471" height="8.25593" fill="white" style="mix-blend-mode:saturation"/>
<rect x="22.6986" y="14.8607" width="149.471" height="8.25593" fill="white" style="mix-blend-mode:overlay"/>
<rect x="22.6986" y="14.8607" width="149.471" height="8.25593" fill="black" style="mix-blend-mode:overlay"/>
<rect x="22.6986" y="14.8607" width="149.471" height="8.25593" fill="white" style="mix-blend-mode:overlay"/>
<rect x="22.6986" y="14.8607" width="149.471" height="8.25593" fill="black" style="mix-blend-mode:overlay"/>
</g>
<mask id="mask1_114_3101" style="mask-type:alpha" maskUnits="userSpaceOnUse" x="65" y="385" width="64" height="3">
<rect x="65.9757" y="385.552" width="62.5048" height="2.06398" rx="1.03199" fill="black"/>
</mask>
<g mask="url(#mask1_114_3101)">
<g filter="url(#filter2_b_114_3101)">
<rect x="65.9757" y="385.552" width="62.5048" height="2.06398" fill="white" style="mix-blend-mode:multiply"/>
</g>
<rect x="65.9757" y="385.552" width="62.5048" height="2.06398" fill="#FF0000" style="mix-blend-mode:saturation"/>
<rect x="65.9757" y="385.552" width="62.5048" height="2.06398" fill="white" style="mix-blend-mode:difference"/>
<rect x="65.9757" y="385.552" width="62.5048" height="2.06398" fill="white" style="mix-blend-mode:saturation"/>
<rect x="65.9757" y="385.552" width="62.5048" height="2.06398" fill="white" style="mix-blend-mode:overlay"/>
<rect x="65.9757" y="385.552" width="62.5048" height="2.06398" fill="black" style="mix-blend-mode:overlay"/>
<rect x="65.9757" y="385.552" width="62.5048" height="2.06398" fill="white" style="mix-blend-mode:overlay"/>
<rect x="65.9757" y="385.552" width="62.5048" height="2.06398" fill="black" style="mix-blend-mode:overlay"/>
</g>
<mask id="path-23-inside-2_114_3101" fill="white">
<path d="M82.4044 2.88965H112.051V4.95363C112.051 6.09354 111.127 7.01762 109.987 7.01762H84.4684C83.3285 7.01762 82.4044 6.09354 82.4044 4.95363V2.88965Z"/>
</mask>
<path d="M82.4044 2.88965H112.051V4.95363C112.051 6.09354 111.127 7.01762 109.987 7.01762H84.4684C83.3285 7.01762 82.4044 6.09354 82.4044 4.95363V2.88965Z" fill="#060606"/>
<path d="M82.4044 2.88965H112.051H82.4044ZM112.258 4.95363C112.258 6.20753 111.241 7.22401 109.987 7.22401H84.4684C83.2145 7.22401 82.198 6.20753 82.198 4.95363L82.6108 4.95363C82.6108 5.97955 83.4425 6.81122 84.4684 6.81122H109.987C111.013 6.81122 111.845 5.97955 111.845 4.95363L112.258 4.95363ZM84.4684 7.22401C83.2145 7.22401 82.198 6.20753 82.198 4.95363V2.88965H82.6108V4.95363C82.6108 5.97955 83.4425 6.81122 84.4684 6.81122L84.4684 7.22401ZM112.258 2.88965V4.95363C112.258 6.20753 111.241 7.22401 109.987 7.22401L109.987 6.81122C111.013 6.81122 111.845 5.97955 111.845 4.95363V2.88965H112.258Z" fill="#272422" mask="url(#path-23-inside-2_114_3101)"/>
<g clip-path="url(#clip1_114_3101)">
<rect x="83.2279" y="3.71527" width="28" height="2.06398" rx="1.03199" fill="#191816"/>
<rect x="83.2279" y="3.71527" width="0.412797" height="0.412797" fill="#312F2E"/>
<rect x="84.0535" y="3.71521" width="0.412797" height="0.412797" fill="#312F2E"/>
<rect x="84.8792" y="3.71521" width="0.412797" height="0.412797" fill="#312F2E"/>
<rect x="85.7047" y="3.71521" width="0.412797" height="0.412797" fill="#312F2E"/>
<rect x="86.5303" y="3.71521" width="0.412797" height="0.412797" fill="#312F2E"/>
<rect x="87.3558" y="3.71521" width="0.412797" height="0.412797" fill="#312F2E"/>
<rect x="88.1815" y="3.71521" width="0.412797" height="0.412797" fill="#312F2E"/>
<rect x="89.0071" y="3.71521" width="0.412797" height="0.412797" fill="#312F2E"/>
<rect x="89.8326" y="3.71521" width="0.412797" height="0.412797" fill="#312F2E"/>
<rect x="90.6582" y="3.71521" width="0.412797" height="0.412797" fill="#312F2E"/>
<rect x="91.4839" y="3.71521" width="0.412797" height="0.412797" fill="#312F2E"/>
<rect x="92.3094" y="3.71521" width="0.412797" height="0.412797" fill="#312F2E"/>
<rect x="93.135" y="3.71521" width="0.412797" height="0.412797" fill="#312F2E"/>
<rect x="93.9607" y="3.71521" width="0.412797" height="0.412797" fill="#312F2E"/>
<rect x="94.7863" y="3.71521" width="0.412797" height="0.412797" fill="#312F2E"/>
<rect x="95.6118" y="3.71521" width="0.412797" height="0.412797" fill="#312F2E"/>
<rect x="96.4375" y="3.71521" width="0.412797" height="0.412797" fill="#312F2E"/>
<rect x="97.2629" y="3.71521" width="0.412797" height="0.412797" fill="#312F2E"/>
<rect x="98.0886" y="3.71521" width="0.412797" height="0.412797" fill="#312F2E"/>
<rect x="98.9142" y="3.71521" width="0.412797" height="0.412797" fill="#312F2E"/>
<rect x="99.7397" y="3.71521" width="0.412797" height="0.412797" fill="#312F2E"/>
<rect x="100.565" y="3.71521" width="0.412797" height="0.412797" fill="#312F2E"/>
<rect x="101.391" y="3.71521" width="0.412797" height="0.412797" fill="#312F2E"/>
<rect x="102.217" y="3.71521" width="0.412797" height="0.412797" fill="#312F2E"/>
<rect x="103.042" y="3.71521" width="0.412797" height="0.412797" fill="#312F2E"/>
<rect x="103.868" y="3.71521" width="0.412797" height="0.412797" fill="#312F2E"/>
<rect x="104.693" y="3.71521" width="0.412797" height="0.412797" fill="#312F2E"/>
<rect x="105.519" y="3.71521" width="0.412797" height="0.412797" fill="#312F2E"/>
<rect x="106.345" y="3.71521" width="0.412797" height="0.412797" fill="#312F2E"/>
<rect x="107.17" y="3.71521" width="0.412797" height="0.412797" fill="#312F2E"/>
<rect x="107.996" y="3.71521" width="0.412797" height="0.412797" fill="#312F2E"/>
<rect x="108.821" y="3.71521" width="0.412797" height="0.412797" fill="#312F2E"/>
<rect x="109.647" y="3.71521" width="0.412797" height="0.412797" fill="#312F2E"/>
<rect x="110.473" y="3.71521" width="0.412797" height="0.412797" fill="#312F2E"/>
<rect x="83.2279" y="4.54059" width="0.412797" height="0.412797" fill="#312F2E"/>
<rect x="84.0535" y="4.54059" width="0.412797" height="0.412797" fill="#312F2E"/>
<rect x="84.8792" y="4.54059" width="0.412797" height="0.412797" fill="#312F2E"/>
<rect x="85.7047" y="4.54059" width="0.412797" height="0.412797" fill="#312F2E"/>
<rect x="86.5303" y="4.54059" width="0.412797" height="0.412797" fill="#312F2E"/>
<rect x="87.3558" y="4.54059" width="0.412797" height="0.412797" fill="#312F2E"/>
<rect x="88.1815" y="4.54059" width="0.412797" height="0.412797" fill="#312F2E"/>
<rect x="89.0071" y="4.54059" width="0.412797" height="0.412797" fill="#312F2E"/>
<rect x="89.8326" y="4.54059" width="0.412797" height="0.412797" fill="#312F2E"/>
<rect x="90.6582" y="4.54059" width="0.412797" height="0.412797" fill="#312F2E"/>
<rect x="91.4839" y="4.54059" width="0.412797" height="0.412797" fill="#312F2E"/>
<rect x="92.3094" y="4.54059" width="0.412797" height="0.412797" fill="#312F2E"/>
<rect x="93.135" y="4.54059" width="0.412797" height="0.412797" fill="#312F2E"/>
<rect x="93.9607" y="4.54059" width="0.412797" height="0.412797" fill="#312F2E"/>
<rect x="94.7863" y="4.54059" width="0.412797" height="0.412797" fill="#312F2E"/>
<rect x="95.6118" y="4.54059" width="0.412797" height="0.412797" fill="#312F2E"/>
<rect x="96.4375" y="4.54059" width="0.412797" height="0.412797" fill="#312F2E"/>
<rect x="97.2629" y="4.54059" width="0.412797" height="0.412797" fill="#312F2E"/>
<rect x="98.0886" y="4.54059" width="0.412797" height="0.412797" fill="#312F2E"/>
<rect x="98.9142" y="4.54059" width="0.412797" height="0.412797" fill="#312F2E"/>
<rect x="99.7397" y="4.54059" width="0.412797" height="0.412797" fill="#312F2E"/>
<rect x="100.565" y="4.54059" width="0.412797" height="0.412797" fill="#312F2E"/>
<rect x="101.391" y="4.54059" width="0.412797" height="0.412797" fill="#312F2E"/>
<rect x="102.217" y="4.54059" width="0.412797" height="0.412797" fill="#312F2E"/>
<rect x="103.042" y="4.54059" width="0.412797" height="0.412797" fill="#312F2E"/>
<rect x="103.868" y="4.54059" width="0.412797" height="0.412797" fill="#312F2E"/>
<rect x="104.693" y="4.54059" width="0.412797" height="0.412797" fill="#312F2E"/>
<rect x="105.519" y="4.54059" width="0.412797" height="0.412797" fill="#312F2E"/>
<rect x="106.345" y="4.54059" width="0.412797" height="0.412797" fill="#312F2E"/>
<rect x="107.17" y="4.54059" width="0.412797" height="0.412797" fill="#312F2E"/>
<rect x="107.996" y="4.54059" width="0.412797" height="0.412797" fill="#312F2E"/>
<rect x="108.821" y="4.54059" width="0.412797" height="0.412797" fill="#312F2E"/>
<rect x="109.647" y="4.54059" width="0.412797" height="0.412797" fill="#312F2E"/>
<rect x="110.473" y="4.54059" width="0.412797" height="0.412797" fill="#312F2E"/>
<rect x="83.2279" y="5.36621" width="0.412797" height="0.412797" fill="#312F2E"/>
<rect x="84.0535" y="5.36621" width="0.412797" height="0.412797" fill="#312F2E"/>
<rect x="84.8792" y="5.36621" width="0.412797" height="0.412797" fill="#312F2E"/>
<rect x="85.7047" y="5.36621" width="0.412797" height="0.412797" fill="#312F2E"/>
<rect x="86.5303" y="5.36621" width="0.412797" height="0.412797" fill="#312F2E"/>
<rect x="87.3558" y="5.36621" width="0.412797" height="0.412797" fill="#312F2E"/>
<rect x="88.1815" y="5.36621" width="0.412797" height="0.412797" fill="#312F2E"/>
<rect x="89.0071" y="5.36621" width="0.412797" height="0.412797" fill="#312F2E"/>
<rect x="89.8326" y="5.36621" width="0.412797" height="0.412797" fill="#312F2E"/>
<rect x="90.6582" y="5.36621" width="0.412797" height="0.412797" fill="#312F2E"/>
<rect x="91.4839" y="5.36621" width="0.412797" height="0.412797" fill="#312F2E"/>
<rect x="92.3094" y="5.36621" width="0.412797" height="0.412797" fill="#312F2E"/>
<rect x="93.135" y="5.36621" width="0.412797" height="0.412797" fill="#312F2E"/>
<rect x="93.9607" y="5.36621" width="0.412797" height="0.412797" fill="#312F2E"/>
<rect x="94.7863" y="5.36621" width="0.412797" height="0.412797" fill="#312F2E"/>
<rect x="95.6118" y="5.36621" width="0.412797" height="0.412797" fill="#312F2E"/>
<rect x="96.4375" y="5.36621" width="0.412797" height="0.412797" fill="#312F2E"/>
<rect x="97.2629" y="5.36621" width="0.412797" height="0.412797" fill="#312F2E"/>
<rect x="98.0886" y="5.36621" width="0.412797" height="0.412797" fill="#312F2E"/>
<rect x="98.9142" y="5.36621" width="0.412797" height="0.412797" fill="#312F2E"/>
<rect x="99.7397" y="5.36621" width="0.412797" height="0.412797" fill="#312F2E"/>
<rect x="100.565" y="5.36621" width="0.412797" height="0.412797" fill="#312F2E"/>
<rect x="101.391" y="5.36621" width="0.412797" height="0.412797" fill="#312F2E"/>
<rect x="102.217" y="5.36621" width="0.412797" height="0.412797" fill="#312F2E"/>
<rect x="103.042" y="5.36621" width="0.412797" height="0.412797" fill="#312F2E"/>
<rect x="103.868" y="5.36621" width="0.412797" height="0.412797" fill="#312F2E"/>
<rect x="104.693" y="5.36621" width="0.412797" height="0.412797" fill="#312F2E"/>
<rect x="105.519" y="5.36621" width="0.412797" height="0.412797" fill="#312F2E"/>
<rect x="106.345" y="5.36621" width="0.412797" height="0.412797" fill="#312F2E"/>
<rect x="107.17" y="5.36621" width="0.412797" height="0.412797" fill="#312F2E"/>
<rect x="107.996" y="5.36621" width="0.412797" height="0.412797" fill="#312F2E"/>
<rect x="108.821" y="5.36621" width="0.412797" height="0.412797" fill="#312F2E"/>
<rect x="109.647" y="5.36621" width="0.412797" height="0.412797" fill="#312F2E"/>
<rect x="110.473" y="5.36621" width="0.412797" height="0.412797" fill="#312F2E"/>
<rect x="83.6407" y="4.12805" width="0.412797" height="0.412797" fill="#312F2E"/>
<rect x="84.4663" y="4.12805" width="0.412797" height="0.412797" fill="#312F2E"/>
<rect x="85.2919" y="4.12805" width="0.412797" height="0.412797" fill="#312F2E"/>
<rect x="86.1176" y="4.12805" width="0.412797" height="0.412797" fill="#312F2E"/>
<rect x="86.9431" y="4.12805" width="0.412797" height="0.412797" fill="#312F2E"/>
<rect x="87.7687" y="4.12805" width="0.412797" height="0.412797" fill="#312F2E"/>
<rect x="88.5942" y="4.12805" width="0.412797" height="0.412797" fill="#312F2E"/>
<rect x="89.4199" y="4.12805" width="0.412797" height="0.412797" fill="#312F2E"/>
<rect x="90.2455" y="4.12805" width="0.412797" height="0.412797" fill="#312F2E"/>
<rect x="91.071" y="4.12805" width="0.412797" height="0.412797" fill="#312F2E"/>
<rect x="91.8967" y="4.12805" width="0.412797" height="0.412797" fill="#312F2E"/>
<rect x="92.7222" y="4.12805" width="0.412797" height="0.412797" fill="#312F2E"/>
<rect x="93.5479" y="4.12805" width="0.412797" height="0.412797" fill="#312F2E"/>
<rect x="94.3734" y="4.12805" width="0.412797" height="0.412797" fill="#312F2E"/>
<rect x="95.199" y="4.12805" width="0.412797" height="0.412797" fill="#312F2E"/>
<rect x="96.0247" y="4.12805" width="0.412797" height="0.412797" fill="#312F2E"/>
<rect x="96.8502" y="4.12805" width="0.412797" height="0.412797" fill="#312F2E"/>
<rect x="97.6758" y="4.12805" width="0.412797" height="0.412797" fill="#312F2E"/>
<rect x="98.5015" y="4.12805" width="0.412797" height="0.412797" fill="#312F2E"/>
<rect x="99.327" y="4.12805" width="0.412797" height="0.412797" fill="#312F2E"/>
<rect x="100.153" y="4.12805" width="0.412797" height="0.412797" fill="#312F2E"/>
<rect x="100.978" y="4.12805" width="0.412797" height="0.412797" fill="#312F2E"/>
<rect x="101.804" y="4.12805" width="0.412797" height="0.412797" fill="#312F2E"/>
<rect x="102.629" y="4.12805" width="0.412797" height="0.412797" fill="#312F2E"/>
<rect x="103.455" y="4.12805" width="0.412797" height="0.412797" fill="#312F2E"/>
<rect x="104.281" y="4.12805" width="0.412797" height="0.412797" fill="#312F2E"/>
<rect x="105.106" y="4.12805" width="0.412797" height="0.412797" fill="#312F2E"/>
<rect x="105.932" y="4.12805" width="0.412797" height="0.412797" fill="#312F2E"/>
<rect x="106.757" y="4.12805" width="0.412797" height="0.412797" fill="#312F2E"/>
<rect x="107.583" y="4.12805" width="0.412797" height="0.412797" fill="#312F2E"/>
<rect x="108.409" y="4.12805" width="0.412797" height="0.412797" fill="#312F2E"/>
<rect x="109.234" y="4.12805" width="0.412797" height="0.412797" fill="#312F2E"/>
<rect x="110.06" y="4.12805" width="0.412797" height="0.412797" fill="#312F2E"/>
<rect x="110.885" y="4.12805" width="0.412797" height="0.412797" fill="#312F2E"/>
<rect x="83.6407" y="4.95343" width="0.412797" height="0.412797" fill="#312F2E"/>
<rect x="84.4663" y="4.95343" width="0.412797" height="0.412797" fill="#312F2E"/>
<rect x="85.2919" y="4.95343" width="0.412797" height="0.412797" fill="#312F2E"/>
<rect x="86.1176" y="4.95343" width="0.412797" height="0.412797" fill="#312F2E"/>
<rect x="86.9431" y="4.95343" width="0.412797" height="0.412797" fill="#312F2E"/>
<rect x="87.7687" y="4.95343" width="0.412797" height="0.412797" fill="#312F2E"/>
<rect x="88.5942" y="4.95343" width="0.412797" height="0.412797" fill="#312F2E"/>
<rect x="89.4199" y="4.95343" width="0.412797" height="0.412797" fill="#312F2E"/>
<rect x="90.2455" y="4.95343" width="0.412797" height="0.412797" fill="#312F2E"/>
<rect x="91.071" y="4.95343" width="0.412797" height="0.412797" fill="#312F2E"/>
<rect x="91.8967" y="4.95343" width="0.412797" height="0.412797" fill="#312F2E"/>
<rect x="92.7222" y="4.95343" width="0.412797" height="0.412797" fill="#312F2E"/>
<rect x="93.5479" y="4.95343" width="0.412797" height="0.412797" fill="#312F2E"/>
<rect x="94.3734" y="4.95343" width="0.412797" height="0.412797" fill="#312F2E"/>
<rect x="95.199" y="4.95343" width="0.412797" height="0.412797" fill="#312F2E"/>
<rect x="96.0247" y="4.95343" width="0.412797" height="0.412797" fill="#312F2E"/>
<rect x="96.8502" y="4.95343" width="0.412797" height="0.412797" fill="#312F2E"/>
<rect x="97.6758" y="4.95343" width="0.412797" height="0.412797" fill="#312F2E"/>
<rect x="98.5015" y="4.95343" width="0.412797" height="0.412797" fill="#312F2E"/>
<rect x="99.327" y="4.95343" width="0.412797" height="0.412797" fill="#312F2E"/>
<rect x="100.153" y="4.95343" width="0.412797" height="0.412797" fill="#312F2E"/>
<rect x="100.978" y="4.95343" width="0.412797" height="0.412797" fill="#312F2E"/>
<rect x="101.804" y="4.95343" width="0.412797" height="0.412797" fill="#312F2E"/>
<rect x="102.629" y="4.95343" width="0.412797" height="0.412797" fill="#312F2E"/>
<rect x="103.455" y="4.95343" width="0.412797" height="0.412797" fill="#312F2E"/>
<rect x="104.281" y="4.95343" width="0.412797" height="0.412797" fill="#312F2E"/>
<rect x="105.106" y="4.95343" width="0.412797" height="0.412797" fill="#312F2E"/>
<rect x="105.932" y="4.95343" width="0.412797" height="0.412797" fill="#312F2E"/>
<rect x="106.757" y="4.95343" width="0.412797" height="0.412797" fill="#312F2E"/>
<rect x="107.583" y="4.95343" width="0.412797" height="0.412797" fill="#312F2E"/>
<rect x="108.409" y="4.95343" width="0.412797" height="0.412797" fill="#312F2E"/>
<rect x="109.234" y="4.95343" width="0.412797" height="0.412797" fill="#312F2E"/>
<rect x="110.06" y="4.95343" width="0.412797" height="0.412797" fill="#312F2E"/>
<rect x="110.885" y="4.95343" width="0.412797" height="0.412797" fill="#312F2E"/>
</g>
<path d="M130.581 14.2415V11.1455C130.581 9.78107 131.687 8.66876 133.051 8.66876H61.4044C62.7689 8.66876 63.875 9.78107 63.875 11.1455V14.2415C63.875 18.8011 67.5713 22.4975 72.1309 22.4975H75.1985H119.257H122.325C126.885 22.4975 130.581 18.8011 130.581 14.2415Z" fill="black"/>
<ellipse cx="106.904" cy="14.2416" rx="3.08824" ry="3.09598" fill="#0A0A0A"/>
<ellipse cx="92.4927" cy="14.2416" rx="3.08824" ry="3.09598" fill="#0A0A0A"/>
<ellipse cx="121.316" cy="14.2416" rx="3.08824" ry="3.09598" fill="#0A0A0A"/>
<ellipse cx="73.1397" cy="14.2416" rx="3.08824" ry="3.09598" fill="url(#pattern0)"/>
</g>
<rect x="0.669777" y="0.206398" width="193.117" height="399.587" rx="30.7534" stroke="#1C1C1E" stroke-width="0.412797"/>
<defs>
<filter id="filter0_f_114_3101" x="0.874069" y="0.412826" width="192.708" height="399.174" filterUnits="userSpaceOnUse" color-interpolation-filters="sRGB">
<feFlood flood-opacity="0" result="BackgroundImageFix"/>
<feBlend mode="normal" in="SourceGraphic" in2="BackgroundImageFix" result="shape"/>
<feGaussianBlur stdDeviation="0.206398" result="effect1_foregroundBlur_114_3101"/>
</filter>
<filter id="filter1_b_114_3101" x="2.05877" y="-5.77912" width="190.75" height="49.5356" filterUnits="userSpaceOnUse" color-interpolation-filters="sRGB">
<feFlood flood-opacity="0" result="BackgroundImageFix"/>
<feGaussianBlur in="BackgroundImage" stdDeviation="10.3199"/>
<feComposite in2="SourceAlpha" operator="in" result="effect1_backgroundBlur_114_3101"/>
<feBlend mode="normal" in="SourceGraphic" in2="effect1_backgroundBlur_114_3101" result="shape"/>
</filter>
<filter id="filter2_b_114_3101" x="45.3359" y="364.912" width="103.784" height="43.3436" filterUnits="userSpaceOnUse" color-interpolation-filters="sRGB">
<feFlood flood-opacity="0" result="BackgroundImageFix"/>
<feGaussianBlur in="BackgroundImage" stdDeviation="10.3199"/>
<feComposite in2="SourceAlpha" operator="in" result="effect1_backgroundBlur_114_3101"/>
<feBlend mode="normal" in="SourceGraphic" in2="effect1_backgroundBlur_114_3101" result="shape"/>
</filter>
<pattern id="pattern0" patternContentUnits="objectBoundingBox" width="1" height="1">
<use xlink:href="#image0_114_3101" transform="translate(-21.7634 -1.74194) scale(0.0107527)"/>
</pattern>
<linearGradient id="paint0_linear_114_3101" x1="0.463379" y1="0" x2="194.778" y2="399.618" gradientUnits="userSpaceOnUse">
<stop stop-color="#95928F"/>
<stop offset="1" stop-color="#6B6B67"/>
</linearGradient>
<clipPath id="clip0_114_3101">
<rect x="0.463379" width="193.529" height="400" rx="30.9598" fill="white"/>
</clipPath>
<clipPath id="clip1_114_3101">
<rect x="83.2279" y="3.71527" width="28" height="2.06398" rx="1.03199" fill="white"/>
</clipPath>
</defs>
</svg>
