<svg width="308" height="321" viewBox="0 0 308 321" fill="none" xmlns="http://www.w3.org/2000/svg">
<g filter="url(#filter0_d_114_3966)">
<path d="M203.551 151.926C200.973 159.755 198.735 167.647 196.635 175.628C195.499 179.958 195.003 180.055 190.773 179.725C189.856 178.833 188.408 178.671 187.735 177.482C187.122 176.624 186.325 175.914 185.404 175.402C184.482 174.89 183.457 174.589 182.406 174.523C175.338 173.303 174.267 171.057 177.132 164.4C177.666 163.575 178.145 162.716 178.564 161.828C178.752 161.373 178.972 160.932 179.223 160.509C180.33 158.913 181.392 157.272 182.431 155.655C184.594 152.146 187.85 149.445 191.699 147.966C194.851 148.716 198.437 148.286 200.254 152.104C200.865 153.768 202.336 150.744 203.551 151.926Z" fill="#EBD7DD"/>
<path d="M31.2219 110.213C30.8282 103.191 33.3058 99.453 40.6228 95.9695C42.0205 97.33 40.9764 98.5862 40.407 99.8589C39.3219 102.859 39.2459 106.134 40.1906 109.184C41.1353 112.235 43.0491 114.895 45.6415 116.761C48.4674 118.442 51.4639 116.235 53.0001 111.447C53.3695 108.821 50.5913 107.32 50.5108 104.836C50.6218 104.344 50.8939 103.903 51.2838 103.583C54.6085 103.789 57.7845 101.488 61.243 103.161C62.3122 103.667 61.9779 102.406 62.0599 101.818C62.2381 100.676 62.6844 99.5922 63.3624 98.6566C64.0404 97.7209 64.9307 96.9595 65.9603 96.4348C66.4651 96.3171 66.9932 96.3447 67.4834 96.5143C67.9737 96.6839 68.4061 96.9887 68.7308 97.3935C69.0002 97.8247 69.1334 98.327 69.1128 98.8347C68.8123 99.7671 68.4162 100.666 67.9308 101.516C67.4275 102.675 68.1621 103.479 68.6497 104.399C71.7627 110.37 70.9808 112.594 64.3885 114.6C63.3435 114.207 63.1011 114.639 63.3641 115.652C59.0051 126.916 51.5353 129.716 40.9547 124.052C36.8315 120.128 34.7203 114.687 31.2219 110.213Z" fill="#DEC4C8"/>
<path d="M55.7305 111.164C55.2198 112.102 54.8097 113.092 54.5071 114.117C54.3284 115.543 53.6219 116.85 52.5268 117.78C51.4316 118.71 50.0273 119.196 48.5905 119.141C46.2206 119.33 43.8883 120.58 43.3779 116.474C43.2212 114.985 40.6741 113.843 39.2763 112.482C38.4972 111.724 37.741 110.988 36.9849 110.252C34.5979 107.661 39.4124 107.758 38.6414 105.983C37.8705 104.207 35.1084 103.836 37.1522 101.369C38.9103 100.01 40.1764 98.1135 40.7586 95.9678C46.116 92.7126 52.2664 90.9922 58.5392 90.9942C60.0202 91.8564 61.4933 90.5721 63.0577 90.9361C64.0632 94.9001 61.8573 98.6794 58.8541 98.831C54.3356 98.8891 53.0173 101.527 51.2511 104.442C50.1087 108.321 53.6695 109.247 55.7305 111.164Z" fill="#E9D8D9"/>
<path d="M62.8001 114.123C63.8991 113.544 64.9751 112.943 66.0977 112.431C69.4654 110.897 70.396 108.015 67.5643 105.927C64.7326 103.84 65.2103 102.478 66.8965 100.287C67.3374 99.5129 68.4002 99.567 68.8189 98.816C68.9981 97.1189 67.9476 94.7598 71.0412 94.6071C71.5045 94.8027 71.9211 95.0946 72.2634 95.4632C72.6056 95.8319 72.8657 96.269 73.0263 96.7456C73.1869 97.2221 73.2444 97.7272 73.1951 98.2274C73.1457 98.7276 72.9906 99.2114 72.7399 99.6468C70.0696 104.133 71.5796 107.028 75.4569 109.554C75.8236 109.911 75.8994 110.475 75.6812 111.02C71.2348 120.907 62.8114 126.031 53.0709 129.117C50.8243 129.787 48.4269 129.764 46.1916 129.051C43.9563 128.338 41.987 126.968 40.5407 125.12C40.555 124.692 40.7168 124.283 40.9987 123.962L41.56 123.706C43.9657 124.443 46.8802 122.824 48.8644 125.691C49.4182 126.497 50.4484 125.851 51.3031 125.569C55.288 124.225 58.6568 121.496 60.7972 117.877L62.8001 114.123Z" fill="#D5B1B9"/>
<path d="M145.481 212.552C145.328 219.835 144.043 227.047 141.673 233.932C137.857 229.371 134.541 232.962 131.107 234.565C130.63 234.737 130.126 234.821 129.619 234.81C129.119 234.763 128.636 234.599 128.211 234.331C126.65 232.589 129.27 230.905 128.182 229.134C128.295 225.947 130.659 223.747 131.704 220.932C132.748 218.116 135.207 216.232 133.019 213.3C134.557 210.678 136.98 208.692 139.854 207.699C141.997 209.072 141.509 211.27 141.671 213.121C141.871 211.311 140.878 208.25 143.815 208.213C146.006 208.117 145.412 210.836 145.481 212.552Z" fill="#C5959F"/>
<path d="M265.334 171.243C269.631 166.346 274.295 161.784 279.285 157.596C281.956 157.878 285.496 155.799 286.865 159.894C285.425 164.031 283.346 167.915 280.702 171.407C280.373 172.112 279.436 172.982 280.235 173.537C281.034 174.092 281.42 172.64 282.161 172.337C286.306 171.425 286.031 174.276 285.522 176.632C285.283 177.929 284.786 179.164 284.06 180.264C283.334 181.364 282.395 182.307 281.297 183.036C279.722 183.53 278.041 183.575 276.44 183.167C275.607 182.835 274.888 182.265 274.376 181.528C273.863 180.791 273.578 179.92 273.557 179.023C273.323 173.716 270.206 172.197 265.488 172.506C265.394 172.434 265.316 172.343 265.257 172.24C265.199 172.137 265.161 172.024 265.147 171.906C265.133 171.789 265.142 171.67 265.174 171.556C265.206 171.442 265.26 171.335 265.334 171.243Z" fill="#DEC4CF"/>
<path d="M257.219 186.961C256.924 184.978 257.318 182.955 258.335 181.23C258.562 181.326 258.782 181.437 258.995 181.56C260.152 182.65 260.998 184.027 261.447 185.551C262.003 187.169 262.932 188.633 264.158 189.827C265.384 191.02 266.873 191.908 268.505 192.42C269.032 194.537 268.73 197.095 272.1 197.3C273.841 197.436 274.157 198.991 273.999 200.574C273.841 202.158 273.344 203.769 274.809 205.061L275.179 205.689C275.018 208.651 274.834 211.636 274.948 214.866C269.996 212.615 265.716 209.111 262.534 204.699C260.937 198.867 257.786 193.439 257.219 186.961Z" fill="#C58A9B"/>
<path d="M279.517 170.699C281.628 168.095 283.024 164.986 283.569 161.676C283.631 159.687 285.291 160.457 286.446 160.6C288.406 158.586 284.657 155.561 287.453 153.559C289.31 155.993 290.126 159.063 289.721 162.094C289.867 166.024 289.472 169.961 289.482 173.893C289.465 178.559 288.119 183.122 285.602 187.048C285.266 187.557 284.792 187.959 284.235 188.206C283.678 188.453 283.062 188.536 282.459 188.445C281.929 188.295 281.438 188.033 281.019 187.675C280.601 187.318 280.265 186.874 280.034 186.374C279.804 185.874 279.684 185.331 279.684 184.781C279.684 184.231 279.803 183.687 280.034 183.188L280.679 182.525C281.984 180.497 282.697 178.205 284.16 176.198C284.935 175.126 285.733 172.427 282.314 173.51L281.633 173.338C280.85 172.844 280.221 172.14 279.819 171.305L279.517 170.699Z" fill="#DABBC6"/>
<path d="M133.131 213.231C137.031 212.57 136.806 212.664 135.88 215.907C134.15 220.798 131.719 225.411 128.664 229.603C128.503 230.033 128.297 230.445 128.048 230.831C127.795 231.487 127.421 232.09 126.944 232.607C125 234.146 122.894 235.439 120.972 236.955C119.513 237.629 118.012 238.529 116.568 237.124C115.125 235.719 116.69 234.569 117.237 233.32C117.618 231.967 118.121 230.652 118.741 229.391C122.051 223.86 126.274 218.932 131.233 214.814C131.812 214.219 132.92 214.273 133.131 213.231Z" fill="#E5D2D3"/>
<path d="M203.551 151.926C201.867 152.693 201.305 154.463 199.753 156.607C199.551 151.955 197.581 150.037 193.761 149.973C193.06 149.959 192.37 149.064 191.64 148.577L191.517 147.923C191.56 147.474 191.66 147.032 191.815 146.608L192.077 145.972C192.262 145.545 192.483 145.134 192.738 144.744L193.205 144.263C195.168 140.871 199.044 140.098 201.837 137.871C202.613 137.133 203.64 136.716 204.712 136.704C207.514 136.668 208.684 137.941 207.933 140.73C206.946 144.631 205.474 148.392 203.551 151.926Z" fill="#EFE6E6"/>
<path d="M75.6812 111.02C73.0909 110.014 70.1671 109.396 69.5092 106.038C69.1423 104.077 67.8043 102.151 70.5584 100.375C72.2836 99.3363 70.8913 96.7782 71.3626 94.9645C70.3769 90.7968 74.5919 91.6465 76.2177 89.9761C80.3073 89.9461 80.2365 92.9072 79.7984 95.4662C79.3305 97.9206 78.52 100.297 77.3906 102.525C77.1233 102.799 76.6944 102.827 76.6334 103.303C76.9484 103.374 77.2486 103.5 77.52 103.675C77.8119 103.965 78.0034 104.34 78.0661 104.746C78.1288 105.152 78.0595 105.567 77.8684 105.93C77.6681 107.809 76.9059 109.583 75.6812 111.02Z" fill="#CDACB0"/>
<path d="M293.203 195.56C299.564 196.359 301.393 197.872 302.303 203.035C301.279 203.376 300.173 203.391 299.14 203.076C296.959 202.245 295.445 202.287 294.966 205.163C294.781 206.241 294.205 207.213 293.347 207.891C292.489 208.569 291.411 208.906 290.319 208.838L288.988 209.014C288.544 209.075 288.092 209.058 287.654 208.963C286.639 207.53 282.393 207.63 285.463 204.291C285.937 204.207 286.425 204.264 286.867 204.454C286.683 204.275 286.345 204.348 286.14 204.192C282.379 203.472 284.239 200.827 284.075 198.841C285.909 194.343 289.862 195.829 293.203 195.56Z" fill="#C3919A"/>
<path d="M118.741 229.391C119.161 231.939 116.998 233.978 117.214 236.416C118.964 237.139 119.664 235.548 120.816 235.465C122.969 235.957 124.859 233.787 127.066 234.82C127.412 234.989 127.716 235.233 127.956 235.535C128.195 235.837 128.362 236.189 128.446 236.565C128.515 237.074 128.469 237.592 128.31 238.081C128.086 238.551 127.778 238.976 127.401 239.335L126.867 239.884C125.989 240.083 125.173 240.491 124.489 241.074C123.804 241.658 123.272 242.399 122.937 243.234C124.794 243.526 126.402 242.15 128.146 242.466C129.891 242.783 132.069 241.829 132.605 244.578C129.609 245.227 126.636 245.898 123.661 246.478C121.922 246.915 120.122 247.06 118.335 246.908C114.418 246.349 112.922 244.492 113.726 240.641C114.29 236.488 116.03 232.585 118.741 229.391Z" fill="#CAA0AA"/>
<path d="M132.443 244.287C130.228 242.666 127.924 244.345 125.914 244.393C123.904 244.442 121.492 246.506 119.227 244.524C121.798 242.571 123.539 239.498 126.963 238.686L127.825 237.386C128.498 235.412 130.104 235.549 131.689 235.755C133.77 236.103 135.907 235.848 137.847 235.021L138.568 234.876C139.067 234.842 139.563 234.979 139.975 235.264C140.352 235.886 140.505 236.617 140.411 237.338C139.942 238.168 139.655 239.088 139.568 240.037C138.119 243.039 136.668 245.859 132.443 244.287Z" fill="#E5D2D4"/>
<path d="M287.072 204.609C285.769 205.123 285.011 205.811 286.228 207.174C286.823 207.753 287.263 208.448 287.814 209.074C283.463 208.226 280.814 204.712 277.595 202.336C275.636 202.881 276.274 204.793 275.316 205.777C275.135 205.754 274.959 205.703 274.794 205.626C274.069 203.324 273.847 200.893 274.144 198.499C274.442 196.105 275.251 193.804 276.517 191.752C276.912 191.363 277.384 191.062 277.903 190.868C278.422 190.675 278.976 190.593 279.529 190.629C280.497 190.78 281.372 191.29 281.982 192.057C282.591 192.823 282.89 193.791 282.82 194.767C283.025 196.511 283.776 198.146 284.965 199.439C286.071 200.962 284.773 203.441 286.981 204.565L287.072 204.609Z" fill="#BB7E8D"/>
<path d="M288.913 208.54C288.953 208.178 288.9 207.591 289.057 207.521C293.596 205.746 294.04 205.153 293.995 200.385C296.994 200.216 299.952 201.16 302.303 203.035C302.523 203.568 302.595 204.15 302.512 204.72C302.428 205.29 302.193 205.826 301.829 206.273C301.103 207.66 299.602 208.561 299.081 210.059C296.482 210.454 293.852 210.609 291.224 210.521C290.513 209.83 289.358 209.642 288.913 208.54Z" fill="#D1A9AF"/>
<path d="M284.965 199.439C280.83 199.47 280.304 199.002 281.246 195.375C281.719 193.651 280.914 192.69 280.13 191.525C279.076 188.94 281.422 188.684 282.719 187.718L285.605 187.229C285.413 192.835 286.378 193.908 293.203 195.56C290.349 196.659 287.028 196.724 284.965 199.439Z" fill="#B77486"/>
<path d="M201.722 137.759C199.143 140.73 195.487 142.607 193.526 146.18C190.291 147.487 188.671 151.168 185.277 152.409C183.546 153.042 181.76 154.601 181.059 151.379C182.52 148.32 184.945 145.828 187.963 144.285C192.219 141.474 196.851 139.277 201.722 137.759Z" fill="#DEC6C6"/>
<path d="M179.093 164.035L177.906 166.401C175.801 170.902 176.872 173.103 181.759 173.582C183.144 173.512 184.521 173.839 185.727 174.524C186.934 175.209 187.92 176.223 188.571 177.449C188.418 177.835 188.103 177.929 187.992 178.044C187.88 178.158 187.561 177.936 187.537 177.824C186.405 176.708 184.986 175.928 183.437 175.572C173.098 173.128 171.16 168.702 176.131 159.193C177.829 159.374 180.499 158.052 179.895 161.698C179.273 162.429 179.831 163.506 179.093 164.035Z" fill="#CA8397"/>
<path d="M76.4624 103.983C76.3562 101.992 76.8731 100.019 77.9412 98.3372C78.4392 97.2795 78.7045 96.127 78.719 94.9574C78.7335 93.7878 78.4971 92.6283 78.0255 91.5572C77.7886 90.792 76.9079 90.8259 76.1633 90.9033C73.759 91.8606 71.3107 91.3046 68.781 91.3823C68.28 91.2578 67.8035 91.0501 67.3712 90.7677C67.1914 90.5839 67.0667 90.3535 67.0112 90.1026C66.9557 89.8516 66.9717 89.5903 67.0573 89.3482C70.5049 88.3759 74.1177 88.1294 77.6674 88.6243C81.3993 88.8701 82.9188 90.8391 81.8851 94.4226C81.0432 98.4253 79.7413 102.317 78.0054 106.019C77.7446 105.169 77.1894 104.439 76.4395 103.96L76.4624 103.983Z" fill="#B59296"/>
<path d="M259.706 177.484C260.362 175.781 261.598 174.365 263.197 173.485L263.874 173.431C264.611 173.359 265.348 173.567 265.938 174.014C266.099 174.22 266.217 174.455 266.287 174.706C266.356 174.957 266.375 175.219 266.343 175.478C265.863 176.131 265.542 176.887 265.406 177.687C265.27 178.486 265.323 179.307 265.56 180.083C265.797 180.859 266.212 181.569 266.772 182.157C267.332 182.745 268.021 183.194 268.785 183.468C269.352 183.651 269.864 183.978 270.268 184.417C270.672 184.855 270.956 185.392 271.092 185.972C271.228 186.553 271.211 187.159 271.042 187.731C270.874 188.303 270.56 188.821 270.132 189.236C269.772 189.587 269.335 189.848 268.855 189.998C263.223 189.641 260.883 185.581 258.921 181.087C258.835 179.8 259.588 178.706 259.706 177.484Z" fill="#D9B8BE"/>
<path d="M180.945 151.267C184.962 152.504 187.319 149.852 189.634 147.382C190.77 146.215 191.426 144.67 193.412 146.068C193.065 146.423 192.767 146.822 192.525 147.255C192.206 147.648 191.91 148.059 191.639 148.486C188.684 151.033 185.9 153.771 183.304 156.683C181.745 156.68 180.998 158.181 179.785 158.694C178.572 159.207 177.054 160.491 176.857 157.805C177.266 157.42 177.529 156.906 177.605 156.349C178.309 154.419 179.452 152.679 180.945 151.267Z" fill="#DBB3BC"/>
<path d="M257.219 186.961C259.488 190.773 259.782 195.56 263.285 198.746C263.995 199.438 263.851 200.411 263.252 201.21C262.574 202.329 262.343 203.663 262.605 204.946C260.326 202.602 258.646 199.742 257.709 196.611C256.771 193.479 256.603 190.169 257.219 186.961Z" fill="#B67586"/>
<path d="M139.758 237.504L139.615 235.359C139.363 235.114 139.091 235.072 138.889 235.188C138.687 235.304 138.6 235.485 138.577 235.508C135.71 235.658 132.478 237.191 130.507 233.714C131.823 230.895 135.284 231.144 137.197 229.041C137.932 228.286 139.489 231.271 141.089 229.398C141.891 230.178 141.225 231 141.282 231.813L141.627 233.887C140.982 234.551 141.448 235.539 140.915 236.224C140.98 236.635 140.949 237.056 140.826 237.453C140.702 237.85 140.489 238.214 140.202 238.515C140.099 238.489 140.004 238.439 139.923 238.37C139.842 238.301 139.778 238.214 139.735 238.117C139.692 238.02 139.672 237.914 139.676 237.808C139.68 237.702 139.708 237.598 139.758 237.504Z" fill="#D3ADB5"/>
<path d="M287.542 153.468C288.046 155.657 288.388 157.881 288.563 160.121C288.594 162.29 287.259 160.544 286.535 160.508C286.452 160.212 286.31 159.935 286.12 159.694C285.929 159.452 285.692 159.251 285.423 159.101C285.154 158.951 284.859 158.856 284.553 158.82C284.247 158.785 283.938 158.811 283.642 158.896C282.871 159.148 282.04 159.158 281.262 158.926C280.483 158.694 279.794 158.23 279.285 157.596C279.635 156.778 280.72 156.809 281.07 155.991C281.844 154.668 282.982 153.595 284.348 152.899C285.626 152.182 286.688 152.191 287.542 153.468Z" fill="#E0CBCD"/>
<path d="M31.2221 110.213C32.6896 110.126 33.3357 111.067 34.1187 112.096C36.7952 115.844 39.2645 119.735 41.5155 123.752C41.4136 123.923 41.2763 124.071 41.1128 124.185C40.9493 124.299 40.7633 124.377 40.5672 124.414C40.371 124.451 40.1692 124.445 39.9753 124.398C39.7813 124.351 39.5995 124.263 39.4421 124.14C38.6688 123.788 38.6757 122.681 37.7465 122.489C35.7084 120.664 34.1409 118.374 33.1773 115.814C32.2608 114.922 32.7582 113.357 31.5718 112.559C31.2962 112.241 31.1168 111.852 31.0549 111.436C30.9929 111.021 31.0509 110.596 31.2221 110.213Z" fill="#E5D9D9"/>
<path d="M145.481 212.552C144.789 211.522 145.107 210.049 143.737 209.072C142.227 210.899 143.389 213.189 142.603 215.143C142.276 215.938 142.337 217.067 141.184 217.059C140.032 217.051 140.15 215.829 140.252 215.037C140.695 212.586 140.606 210.067 139.988 207.652C145.204 205.732 145.936 206.355 145.481 212.552Z" fill="#AC797F"/>
<path d="M176.859 157.895C178.412 159.05 178.82 157.576 179.577 156.753C180.891 155.403 182.084 155.094 183.305 156.773C182.585 158.704 181.399 160.427 179.852 161.789C179.817 161.576 179.735 161.373 179.611 161.196C179.487 161.019 179.326 160.871 179.137 160.765C178.949 160.659 178.74 160.597 178.524 160.583C178.309 160.569 178.093 160.603 177.893 160.684C176.789 160.947 176.393 160.116 176.088 159.284C176.073 159.003 176.138 158.724 176.274 158.479C176.411 158.234 176.613 158.031 176.859 157.895Z" fill="#D89CAD"/>
<path d="M291.224 210.521C293.761 209.382 296.299 208.287 299.014 210.128C297.882 210.911 296.553 211.362 295.177 211.432C293.8 211.502 292.432 211.186 291.224 210.521Z" fill="#C3919A"/>
<path d="M67.0348 89.371L67.2959 90.2489C67.0383 90.7663 66.6257 91.1902 66.1155 91.4617C65.6047 91.7179 65.0295 91.8177 64.4618 91.7486C63.8941 91.6795 63.3592 91.4447 62.9238 91.0734C61.4346 91.2281 59.908 91.9256 58.4683 90.7917C61.2597 89.9924 64.134 89.5158 67.0348 89.371Z" fill="#D6BABB"/>
<path d="M299.081 210.059C298.802 207.916 300.395 207.15 301.829 206.273C301.784 207.102 301.501 207.9 301.014 208.572C300.526 209.243 299.855 209.76 299.081 210.059Z" fill="#C3919A"/>
<path d="M259.706 177.484C260.243 178.72 259.695 179.879 259.508 181.079C259.469 181.486 259.336 181.669 259.041 181.56C258.745 181.451 258.633 181.475 258.609 181.362L258.356 181.117C258.274 180.447 258.354 179.768 258.589 179.135C258.824 178.503 259.207 177.937 259.706 177.484Z" fill="#C58A9B"/>
<path d="M187.493 177.915L188.571 177.449C189.098 177.62 189.579 177.91 189.976 178.297C190.374 178.684 190.677 179.157 190.862 179.679C190.186 179.784 189.494 179.67 188.887 179.352C188.281 179.034 187.792 178.53 187.493 177.915Z" fill="#B2808A"/>
<path d="M288.913 208.54C289.447 208.683 289.946 208.935 290.378 209.28C290.811 209.624 291.168 210.053 291.428 210.541C291.016 210.68 290.573 210.69 290.155 210.57C289.738 210.45 289.367 210.206 289.091 209.871C288.994 209.809 288.912 209.727 288.85 209.631C288.787 209.535 288.746 209.426 288.73 209.313C288.713 209.2 288.721 209.084 288.753 208.974C288.785 208.864 288.841 208.762 288.915 208.676L288.913 208.54Z" fill="#C3919A"/>
<path d="M31.704 112.331C32.2512 112.655 32.6975 113.124 32.9929 113.687C33.2883 114.25 33.4211 114.884 33.3763 115.518C32.8603 115.162 32.4385 114.685 32.1472 114.13C31.8559 113.575 31.7038 112.958 31.704 112.331Z" fill="#DEC4C8"/>
<path d="M140.937 236.201C140.803 235.785 140.8 235.338 140.927 234.921C141.054 234.503 141.307 234.134 141.65 233.865C141.733 234.283 141.711 234.715 141.587 235.123C141.462 235.53 141.239 235.901 140.937 236.201Z" fill="#C5959F"/>
<path d="M139.758 237.504L140.224 238.493C140.307 238.786 140.287 239.1 140.168 239.381C140.049 239.662 139.837 239.893 139.568 240.037C139.413 239.627 139.349 239.187 139.382 238.749C139.415 238.312 139.543 237.887 139.758 237.504Z" fill="#DDC1C6"/>
<path d="M281.071 156.082C280.928 156.475 280.691 156.827 280.38 157.107C280.068 157.387 279.693 157.586 279.287 157.687C279.422 157.289 279.657 156.932 279.97 156.651C280.282 156.37 280.661 156.174 281.071 156.082Z" fill="#DEC4CF"/>
<path d="M133.153 213.208C133.102 213.666 132.876 214.086 132.522 214.381C132.168 214.676 131.715 214.823 131.255 214.791C131.349 214.353 131.588 213.96 131.931 213.673C132.275 213.386 132.705 213.223 133.153 213.208Z" fill="#C5959F"/>
<path d="M37.8787 122.262C38.292 122.34 38.6731 122.538 38.9747 122.832C39.2762 123.125 39.4848 123.501 39.5744 123.912C39.1594 123.838 38.7761 123.641 38.4738 123.347C38.1716 123.052 37.9643 122.675 37.8787 122.262Z" fill="#DEC4C8"/>
<path d="M39.4867 124.094L41.5601 123.706L40.5408 125.12C40.2732 125.099 40.0213 124.984 39.8288 124.797C39.6363 124.61 39.5153 124.361 39.4867 124.094Z" fill="#DEC4C8"/>
<path d="M288.847 208.609L289.022 209.804C288.733 209.834 288.442 209.765 288.198 209.608C287.953 209.451 287.769 209.215 287.676 208.94L288.847 208.609Z" fill="#BB7E8D"/>
<path d="M177.676 156.552L176.928 158.008C176.869 157.716 176.91 157.413 177.046 157.148C177.182 156.883 177.404 156.673 177.676 156.552Z" fill="#D89CAD"/>
<path d="M265.334 171.243L265.596 172.211C265.519 172.376 265.389 172.511 265.226 172.595C265.064 172.679 264.879 172.707 264.699 172.675L264.309 172.295C264.355 172.037 264.477 171.799 264.66 171.612C264.843 171.424 265.077 171.296 265.334 171.243Z" fill="#D9B8BE"/>
<path d="M263.196 173.485C263.255 173.208 263.391 172.954 263.588 172.752C263.785 172.55 264.035 172.407 264.31 172.341C264.458 172.463 264.596 172.597 264.722 172.742C264.733 172.988 264.66 173.23 264.515 173.429C264.37 173.628 264.162 173.772 263.925 173.837C263.675 173.734 263.432 173.616 263.196 173.485Z" fill="#D9B8BE"/>
<path d="M179.093 164.035C179.01 163.627 179.037 163.204 179.17 162.81C179.303 162.415 179.538 162.063 179.852 161.789C179.922 162.197 179.889 162.616 179.757 163.009C179.624 163.401 179.396 163.754 179.093 164.035Z" fill="#D89CAD"/>
<path d="M62.9239 91.0734L66.2153 90.534C66.8747 90.8192 67.6441 90.8997 67.8816 91.7101C68.2269 93.7394 66.4165 95.141 66.2628 97.0411C64.3391 100.246 62.8675 103.702 61.8896 107.311C60.273 106.45 60.5209 104.82 59.8665 103.292C58.3799 103.628 58.5005 105.75 57.1717 106.061C55.8429 106.372 54.603 104.987 53.2868 104.597C52.5852 104.459 51.8737 104.377 51.1592 104.353C51.2731 103.83 51.3562 103.301 51.4078 102.768C51.3369 100.961 50.445 98.6227 51.2874 97.4821C52.6166 95.6121 54.8386 97.7302 56.7141 97.7287C58.5896 97.7272 59.5195 97.9638 59.8062 95.8812C60.0929 93.7987 62.6149 93.1788 62.9239 91.0734Z" fill="#E1CBCC"/>
<path d="M66.3086 97.0857C63.1987 94.5045 66.7713 93.0802 67.4246 91.3545C67.5241 90.882 67.8013 90.4659 68.1989 90.1921C70.8327 89.4238 73.6607 89.6779 76.1179 90.9039C76.1346 92.0786 75.8083 92.9641 74.3362 92.7344C73.993 92.6749 73.6413 92.6862 73.3027 92.7675C72.9642 92.8488 72.6459 92.9985 72.3674 93.2073C72.089 93.4162 71.8562 93.6797 71.6834 93.9819C71.5106 94.2841 71.4015 94.6184 71.3626 94.9645C69.267 95.3756 69.8414 97.6278 68.7501 98.7491C68.1805 97.9011 67.3059 97.3052 66.3086 97.0857Z" fill="#D6BABB"/>
<path d="M55.7303 111.164C50.0697 108.773 50.0697 108.773 51.1363 104.331C52.6825 106.593 54.1173 108.97 55.7303 111.164Z" fill="#E1CBCC"/>
<path d="M62.8 114.123C62.4838 114.127 62.1006 114.2 61.8505 114.09C61.6004 113.98 61.5723 113.597 61.9796 113.637C62.3869 113.677 62.415 114.06 62.8 114.123Z" fill="#D5B1B9"/>
<path d="M68.796 98.7937C68.6135 99.1725 68.3444 99.503 68.0105 99.7585C67.6766 100.014 67.2872 100.187 66.8737 100.265C67.0541 99.8842 67.3225 99.5524 67.6568 99.2966C67.9911 99.0408 68.3816 98.8684 68.796 98.7937Z" fill="#D6BABB"/>
<path d="M43.3162 108.973C43.4979 107.471 43.4762 105.951 43.2519 104.455C42.7304 102.744 43.7403 102.256 44.8603 101.564C45.3781 101.196 45.9943 100.99 46.6301 100.974C47.2659 100.957 47.8924 101.131 48.4293 101.473C49.9555 102.335 49.2289 103.677 48.9516 104.833C48.6743 105.989 48.1775 107.6 47.745 108.961C47.3124 110.323 46.8773 111.503 45.2887 111.027C44.7937 110.918 44.3419 110.665 43.9907 110.299C43.6395 109.934 43.4047 109.472 43.3162 108.973Z" fill="#EFE4E4"/>
<path d="M127.64 235.468C125.836 235.482 124.111 236.202 122.833 237.473C122.343 237.977 121.697 238.64 121.009 237.971C120.322 237.302 120.827 236.279 120.905 235.419C122.59 233.678 124.555 232.232 126.72 231.141C126.991 230.771 127.314 230.439 127.677 230.158L128.688 229.715C129.277 229.843 130.334 229.446 129.788 230.786L128.39 234.193C128.422 234.38 128.413 234.572 128.365 234.756C128.317 234.94 128.231 235.111 128.111 235.259L127.64 235.468Z" fill="#BF8695"/>
<path d="M130.53 233.736C133.143 234.72 136.264 233.346 138.6 235.531C137.869 238.116 135.806 237.668 133.908 237.647C132.009 237.626 129.933 236.23 127.895 237.499L127.617 235.446C128.012 234.627 129.075 234.681 129.539 233.975L130.53 233.736Z" fill="#DDC1C6"/>
<path d="M129.517 233.953C129.316 234.318 129.041 234.637 128.71 234.891C128.38 235.144 127.999 235.325 127.594 235.424L128.366 234.08L129.517 233.953Z" fill="#CAA0AA"/>
<path d="M263.924 173.792L264.653 172.63L265.596 172.211C267.578 170.175 270.656 172.056 272.79 169.633C272.268 172.645 274.569 173.949 275.296 175.815C276.023 177.681 274.817 180.25 276.114 182.448C275.583 184.872 273.046 185.967 272.264 188.237C271.778 188.79 271.125 189.171 270.404 189.322L269.679 189.151C269.65 187.163 270.394 185.391 266.861 184.894C262.469 184.318 262.047 178.425 265.786 174.446C265.176 174.431 264.431 174.508 263.924 173.792Z" fill="#E7D7DB"/>
<path d="M282.291 173.533C281.035 175.741 281.035 175.741 277.934 177.001C277.72 174.609 277.508 172.442 279.563 170.744C280.769 171.338 281.195 172.689 282.312 173.42L282.291 173.533Z" fill="#DABBC6"/>
<path d="M271.645 187.589C271.532 184.405 273.867 183.38 276.203 182.356C277.714 182.133 279.241 181.481 280.566 182.458C280.021 183.391 279.256 184.176 278.338 184.746C276.392 186.105 274.757 188.702 271.645 187.589Z" fill="#DABBC6"/>
<path d="M268.687 189.299L269.768 189.059C270.516 190.116 271.553 190.935 272.754 191.417C273.956 191.898 275.271 192.023 276.54 191.774C276.701 191.931 276.884 192.109 277.044 192.265C275.896 196.64 275.105 201.101 274.681 205.605C272.762 205.742 271.468 205.284 271.954 202.951C272.274 201.613 272.504 200.277 272.755 198.918C266.755 198.024 266.017 197.039 268.148 192.741C266.908 191.311 267.345 190.266 268.687 189.299Z" fill="#CF9FAC"/>
<path d="M268.687 189.299L268.193 192.695C266.236 191.771 264.396 194.258 262.639 193.083C260.883 191.908 262.022 189.408 261.006 187.839C259.734 185.844 257.813 184.197 258.7 181.451C258.946 181.282 259.22 181.156 259.508 181.079C259.985 181.231 260.913 181.332 260.938 181.535C261.569 186.114 265.606 187.192 268.687 189.299Z" fill="#CD9AA7"/>
<path d="M277.526 183.198L280.658 182.638C281.226 184.393 280.849 186.522 282.719 187.718C282.518 189.438 280.833 190.115 280.13 191.525L277.089 192.219L276.952 192.085C273.699 189.009 276.301 186.106 277.526 183.198Z" fill="#CF9FAC"/>
<path d="M282.246 173.489C281.573 173.368 280.951 173.049 280.461 172.572C279.971 172.095 279.635 171.482 279.496 170.812C281.571 170.56 281.997 171.91 282.246 173.489Z" fill="#D4A6A9"/>
<path d="M192.548 147.322L193.435 146.136L192.548 147.322Z" fill="#EBD7DD"/>
<path d="M191.64 148.577L192.526 147.345L191.64 148.577Z" fill="#EBD7DD"/>
<path d="M76.4394 103.96L76.3319 104.346L76.4623 103.983L76.4394 103.96Z" fill="#B59296"/>
<path d="M287.05 204.632L287.436 204.74L287.072 204.609L287.05 204.632Z" fill="#BB7E8D"/>
<path d="M127.054 238.73C124.833 241.109 122.216 243.085 119.318 244.568C121.176 241.697 122.572 238.2 127.054 238.73Z" fill="#DDC1C6"/>
<path d="M127.917 237.476L127.054 238.775L127.917 237.476Z" fill="#DDC1C6"/>
<path d="M138.466 235.623C138.689 235.464 138.921 235.317 139.16 235.185C139.16 235.185 139.366 235.385 139.481 235.497L138.466 235.623Z" fill="#DDC1C6"/>
<path d="M68.222 90.2144L67.4476 91.3768L66.2612 90.5786L67.296 90.2489L68.222 90.2144Z" fill="#E9D8D9"/>
<path d="M277.525 183.198L276.907 192.131C275.585 192.939 274.851 195.299 273.055 194.576C271.96 194.174 271.035 193.41 270.433 192.411C269.831 191.412 269.589 190.237 269.746 189.082L271.623 187.612C273.768 186.395 275.752 184.912 277.525 183.198Z" fill="#D9B8BE"/>
<path d="M265.6 177.205L265.196 177.436L265.19 177.029L265.6 177.205Z" fill="#D9B8BE"/>
<path d="M265.898 174.376L266.029 174.013L265.784 174.265L265.898 174.376Z" fill="#D9B8BE"/>
</g>
<defs>
<filter id="filter0_d_114_3966" x="-13.1401" y="-9.00986" width="349.168" height="347.63" filterUnits="userSpaceOnUse" color-interpolation-filters="sRGB">
<feFlood flood-opacity="0" result="BackgroundImageFix"/>
<feColorMatrix in="SourceAlpha" type="matrix" values="0 0 0 0 0 0 0 0 0 0 0 0 0 0 0 0 0 0 127 0" result="hardAlpha"/>
<feOffset dy="4"/>
<feGaussianBlur stdDeviation="7"/>
<feComposite in2="hardAlpha" operator="out"/>
<feColorMatrix type="matrix" values="0 0 0 0 0 0 0 0 0 0 0 0 0 0 0 0 0 0 0.14 0"/>
<feBlend mode="normal" in2="BackgroundImageFix" result="effect1_dropShadow_114_3966"/>
<feBlend mode="normal" in="SourceGraphic" in2="effect1_dropShadow_114_3966" result="shape"/>
</filter>
</defs>
</svg>
