<svg width="311" height="296" viewBox="0 0 311 296" fill="none" xmlns="http://www.w3.org/2000/svg">
<g filter="url(#filter0_d_114_1843)">
<path d="M145.202 190.75C138.369 186.141 131.382 181.842 124.273 177.65C120.415 175.379 120.456 174.876 121.924 170.895C123.031 170.255 123.581 168.905 124.908 168.582C125.901 168.225 126.801 167.651 127.544 166.903C128.288 166.155 128.855 165.251 129.205 164.257C132.301 157.788 134.753 157.367 140.381 161.935C141.029 162.673 141.725 163.367 142.466 164.012C142.853 164.317 143.217 164.648 143.557 165.005C144.791 166.504 146.082 167.972 147.356 169.411C150.145 172.447 151.859 176.315 152.235 180.421C150.656 183.25 150.095 186.818 145.927 187.529C144.159 187.664 146.67 189.902 145.202 190.75Z" fill="#EBD7DD"/>
<path d="M232.195 36.2526C239.06 37.7829 241.984 41.1833 243.347 49.1717C241.657 50.147 240.732 48.8006 239.662 47.9067C237.07 46.0466 233.94 45.0834 230.747 45.1631C227.555 45.2429 224.474 46.3613 221.973 48.3486C219.587 50.6111 220.897 54.0949 225.087 56.8749C227.513 57.9443 229.713 55.6788 232.126 56.2768C232.569 56.5174 232.92 56.8991 233.121 57.3613C232.019 60.5047 233.37 64.1865 230.82 67.0599C230.042 67.9514 231.346 67.9725 231.891 68.2114C232.941 68.6934 233.862 69.4175 234.578 70.3243C235.295 71.2311 235.785 72.2949 236.01 73.4284C235.986 73.9462 235.816 74.4469 235.52 74.8725C235.223 75.2982 234.812 75.6314 234.334 75.8338C233.846 75.9759 233.327 75.9675 232.844 75.8097C232.028 75.267 231.271 74.6415 230.584 73.9431C229.606 73.1437 228.633 73.632 227.614 73.8511C221.022 75.2236 219.094 73.8664 218.957 66.9772C219.619 66.0785 219.269 65.7276 218.222 65.7052C208.568 58.448 207.904 50.4983 216.231 41.8562C221.128 38.955 226.939 38.4027 232.195 36.2526Z" fill="#DEC4C8"/>
<path d="M224.618 59.5795C223.853 58.8328 223.012 58.1691 222.108 57.5993C220.784 57.0395 219.719 56.0043 219.121 54.6976C218.524 53.3908 218.439 51.9074 218.881 50.5395C219.344 48.2075 218.775 45.6232 222.865 46.2483C224.341 46.5024 226.133 44.3618 227.822 43.3865C228.764 42.843 229.677 42.3154 230.591 41.7878C233.733 40.195 232.332 44.802 234.25 44.5427C236.167 44.2834 237.276 41.7263 239.094 44.3637C239.924 46.4253 241.405 48.1593 243.311 49.3028C244.987 55.3434 244.971 61.7299 243.264 67.7659C242.031 68.9567 242.867 70.7235 242.091 72.13C238.003 72.0199 234.966 68.8696 235.636 65.9383C236.809 61.5742 234.629 59.5884 232.304 57.0961C228.882 54.9422 227.023 58.1172 224.618 59.5795Z" fill="#E9D8D9"/>
<path d="M219.847 65.5782C220.106 66.7933 220.392 67.9923 220.579 69.2116C221.14 72.8697 223.66 74.5487 226.439 72.3912C229.218 70.2338 230.399 71.0638 232.049 73.2821C232.674 73.9168 232.333 74.9249 232.942 75.532C234.526 76.1658 237.082 75.7963 236.388 78.8149C236.074 79.2076 235.679 79.5292 235.232 79.7583C234.784 79.9874 234.292 80.1188 233.79 80.1438C233.288 80.1688 232.786 80.0868 232.318 79.9033C231.85 79.7198 231.427 79.439 231.076 79.0794C227.485 75.2901 224.288 75.956 220.803 79.0006C220.36 79.2564 219.797 79.176 219.331 78.8178C211.026 71.851 208.385 62.3516 208.064 52.1393C208.03 49.7951 208.703 47.4942 209.997 45.5369C211.291 43.5797 213.145 42.057 215.317 41.1676C215.724 41.2976 216.074 41.5646 216.307 41.9233L216.4 42.533C215.037 44.6476 215.803 47.8926 212.504 49.0225C211.578 49.3362 211.919 50.5033 211.958 51.4025C212.168 55.6026 213.879 59.5865 216.779 62.6302L219.847 65.5782Z" fill="#D5B1B9"/>
<path d="M102.647 118.385C95.6806 116.257 89.0889 113.06 83.1078 108.908C88.534 106.475 85.9805 102.308 85.3714 98.5672C85.3349 98.0617 85.3921 97.5537 85.5401 97.0687C85.7212 96.6 86.0102 96.1805 86.3838 95.8442C88.4851 94.8153 89.3926 97.7941 91.3926 97.2293C94.4294 98.2045 95.9035 101.077 98.3288 102.848C100.754 104.619 101.899 107.497 105.316 106.188C107.421 108.381 108.673 111.253 108.848 114.289C106.943 115.978 104.961 114.911 103.136 114.563C104.823 115.248 108.038 115.125 107.276 117.961C106.773 120.096 104.318 118.785 102.647 118.385Z" fill="#C5959F"/>
<path d="M109.816 244.954C113.36 250.42 116.482 256.149 119.155 262.09C118.158 264.583 119.196 268.555 114.883 268.759C111.294 266.249 108.121 263.192 105.479 259.698C104.891 259.19 104.307 258.052 103.557 258.67C102.806 259.288 104.097 260.054 104.187 260.85C103.938 265.087 101.27 264.046 99.1403 262.916C97.9575 262.333 96.9041 261.519 96.0428 260.522C95.1815 259.524 94.5297 258.364 94.1263 257.109C94.0792 255.46 94.493 253.829 95.3214 252.4C95.8675 251.688 96.6111 251.152 97.4595 250.859C98.308 250.565 99.2237 250.528 100.093 250.752C105.263 251.97 107.573 249.383 108.558 244.758C108.653 244.688 108.762 244.637 108.877 244.609C108.992 244.58 109.111 244.575 109.228 244.593C109.345 244.612 109.457 244.653 109.558 244.715C109.659 244.777 109.746 244.858 109.816 244.954Z" fill="#DEC4CF"/>
<path d="M96.8954 232.872C98.8837 233.127 100.723 234.056 102.107 235.504C101.953 235.696 101.787 235.878 101.61 236.049C100.247 236.866 98.6913 237.306 97.1029 237.324C95.3951 237.419 93.7332 237.914 92.2516 238.77C90.7699 239.625 89.51 240.817 88.5739 242.248C86.393 242.18 84.0143 241.193 82.9006 244.381C82.2964 246.02 80.714 245.901 79.2329 245.318C77.7518 244.735 76.3368 243.819 74.6955 244.878L73.9905 245.063C71.1837 244.103 68.361 243.115 65.2219 242.346C68.7337 238.192 73.2701 235.027 78.3812 233.163C84.4276 233.212 90.5075 231.656 96.8954 232.872Z" fill="#C58A9B"/>
<path d="M106.483 258.75C108.415 261.49 111.028 263.679 114.064 265.103C115.962 265.703 114.77 267.092 114.318 268.164C115.723 270.598 119.653 267.812 120.819 271.047C117.973 272.173 114.796 272.124 111.989 270.91C108.168 269.982 104.487 268.531 100.7 267.472C96.2143 266.187 92.189 263.651 89.095 260.161C88.6969 259.7 88.4392 259.134 88.3526 258.531C88.266 257.928 88.354 257.312 88.6061 256.757C88.8939 256.288 89.28 255.887 89.7378 255.581C90.1956 255.275 90.7142 255.073 91.2577 254.987C91.8013 254.901 92.3569 254.933 92.8863 255.083C93.4156 255.232 93.906 255.495 94.3238 255.852L94.7868 256.654C96.3836 258.461 98.3948 259.77 99.9288 261.723C100.75 262.761 103.13 264.263 103.017 260.678L103.368 260.07C104.056 259.45 104.905 259.036 105.817 258.877L106.483 258.75Z" fill="#DABBC6"/>
<path d="M105.352 106.315C104.927 110.247 104.898 110.006 102.029 108.233C97.7929 105.238 94.0144 101.645 90.8112 97.5649C90.4406 97.2937 90.1005 96.9832 89.7966 96.639C89.2335 96.217 88.7553 95.6925 88.3871 95.093C87.4347 92.8038 86.7634 90.4261 85.827 88.1646C85.575 86.5771 85.1165 84.8876 86.8611 83.8804C88.6057 82.8732 89.2867 84.6922 90.3407 85.5585C91.539 86.2924 92.6676 87.1341 93.7125 88.0732C98.135 92.762 101.73 98.1667 104.344 104.058C104.759 104.777 104.406 105.828 105.352 106.315Z" fill="#E5D2D3"/>
<path d="M145.202 190.75C144.921 188.921 143.371 187.898 141.73 185.823C146.262 186.893 148.643 185.518 149.743 181.86C149.947 181.189 150.996 180.768 151.664 180.198L152.326 180.258C152.747 180.421 153.145 180.637 153.51 180.902L154.051 181.327C154.412 181.621 154.747 181.945 155.054 182.296L155.389 182.877C158.12 185.688 157.81 189.628 159.194 192.921C159.693 193.869 159.815 194.971 159.535 196.006C158.808 198.712 157.265 199.492 154.785 198.011C151.299 196 148.08 193.561 145.202 190.75Z" fill="#EFE6E6"/>
<path d="M219.331 78.8177C221.004 76.5985 222.393 73.9528 225.804 74.2327C227.791 74.4128 230.008 73.6489 230.968 76.7819C231.499 78.7246 234.339 78.0803 235.956 79.0269C240.235 79.2114 238.271 83.0367 239.437 85.0554C238.354 88.999 235.524 88.1258 233.18 87.0085C230.945 85.891 228.879 84.465 227.042 82.7724C226.851 82.4406 226.94 82.0202 226.499 81.8322C226.345 82.1161 226.142 82.3706 225.9 82.5841C225.542 82.7864 225.129 82.8686 224.721 82.8186C224.313 82.7685 223.932 82.589 223.635 82.3063C221.881 81.6028 220.382 80.387 219.331 78.8177Z" fill="#CDACB0"/>
<path d="M78.8376 265.162C76.3388 271.066 74.3854 272.415 69.1698 271.887C69.1199 270.808 69.4068 269.741 69.9906 268.832C71.3829 266.959 71.7539 265.491 69.1165 264.248C68.1294 263.777 67.3515 262.958 66.932 261.948C66.5125 260.938 66.481 259.809 66.8434 258.776L67.0366 257.448C67.0977 257.004 67.237 256.574 67.448 256.178C69.103 255.591 70.1615 251.477 72.5394 255.34C72.4916 255.819 72.3045 256.273 72.0013 256.646C72.2228 256.518 72.2453 256.174 72.4509 256.018C74.1663 252.594 76.2059 255.104 78.162 255.486C81.9916 258.474 79.4871 261.874 78.8376 265.162Z" fill="#C3919A"/>
<path d="M93.7124 88.0733C91.1461 87.7852 89.7721 85.1495 87.3677 84.6941C86.1959 86.1818 87.5363 87.2884 87.3027 88.4187C86.2437 90.3575 87.8191 92.7663 86.2244 94.6088C85.9683 94.8965 85.6505 95.1228 85.2947 95.2707C84.939 95.4186 84.5545 95.4844 84.17 95.4631C83.6612 95.391 83.1753 95.2052 82.7485 94.9195C82.3565 94.5767 82.0311 94.1647 81.7883 93.7041L81.4052 93.0404C81.453 92.142 81.2818 91.2456 80.9065 90.4284C80.5311 89.6111 79.9627 88.8974 79.2501 88.3484C78.4637 90.0561 79.3513 91.9771 78.5724 93.5698C77.7935 95.1625 78.1198 97.5182 75.3277 97.2866C75.5181 94.227 75.6808 91.1834 75.9309 88.1631C75.9841 86.3708 76.3336 84.5992 76.9653 82.9202C78.5689 79.3027 80.7618 78.3685 84.2499 80.1892C88.0928 81.8611 91.376 84.5967 93.7124 88.0733Z" fill="#CAA0AA"/>
<path d="M75.6526 97.2097C77.8148 95.5189 76.8252 92.8456 77.3251 90.8977C77.8251 88.9498 76.4937 86.0683 79.0169 84.4272C80.1981 87.4323 82.6818 89.9436 82.5328 93.4586L83.5484 94.642C85.2657 95.8259 84.6966 97.3344 84.0679 98.8035C83.1671 100.712 82.8314 102.838 83.1004 104.93L83.0437 105.663C82.9405 106.152 82.6737 106.592 82.2873 106.911C81.5866 107.104 80.841 107.054 80.1735 106.767C79.5023 106.09 78.6949 105.563 77.8046 105.222C75.3102 103.012 72.9904 100.848 75.6526 97.2097Z" fill="#E5D2D4"/>
<path d="M71.7957 256.802C71.6555 255.408 71.2 254.491 69.5577 255.292C68.8378 255.707 68.0497 255.941 67.2978 256.302C69.2966 252.345 73.3979 250.752 76.5603 248.299C76.5683 246.267 74.5546 246.36 73.868 245.171C73.9394 245.003 74.0365 244.848 74.1557 244.71C76.5683 244.637 78.9676 245.085 81.1906 246.022C83.4135 246.959 85.4079 248.363 87.0383 250.14C87.3056 250.625 87.4671 251.161 87.5123 251.714C87.5575 252.266 87.4853 252.821 87.3004 253.344C86.8917 254.234 86.1632 254.937 85.2597 255.316C84.3562 255.694 83.3438 255.719 82.4237 255.385C80.6896 255.109 78.912 255.387 77.344 256.18C75.5782 256.83 73.5448 254.907 71.8628 256.726L71.7957 256.802Z" fill="#BB7E8D"/>
<path d="M67.5126 257.505C67.8501 257.642 68.4294 257.75 68.4538 257.92C68.9285 262.771 69.3787 263.359 73.9787 264.612C73.3257 267.545 71.6134 270.135 69.1698 271.887C68.5973 271.954 68.0176 271.865 67.4918 271.63C66.9661 271.395 66.5139 271.022 66.1831 270.551C65.0451 269.475 64.5866 267.785 63.2866 266.877C63.6128 264.268 64.1789 261.695 64.9777 259.19C65.8361 258.694 66.3316 257.634 67.5126 257.505Z" fill="#D1A9AF"/>
<path d="M77.3439 256.18C78.4387 252.192 79.0319 251.813 82.2665 253.706C83.7965 254.63 84.9403 254.117 86.2748 253.678C89.0489 253.367 88.6574 255.695 89.2342 257.205L88.9203 260.115C83.5772 258.406 82.2831 259.043 78.8376 265.162C78.5562 262.116 79.3963 258.903 77.3439 256.18Z" fill="#B77486"/>
<path d="M159.333 192.841C157.175 189.552 156.363 185.523 153.457 182.665C153.079 179.196 149.977 176.637 149.705 173.033C149.567 171.195 148.552 169.053 151.843 169.254C154.39 171.491 156.129 174.503 156.793 177.826C158.341 182.686 159.196 187.741 159.333 192.841Z" fill="#DEC6C6"/>
<path d="M140.198 163.921L138.245 162.136C134.485 158.886 132.077 159.318 130.286 163.891C129.977 165.243 129.288 166.479 128.301 167.454C127.314 168.429 126.069 169.102 124.713 169.395C124.383 169.143 124.378 168.814 124.298 168.676C124.218 168.538 124.519 168.291 124.634 168.298C126.015 167.512 127.152 166.358 127.915 164.965C133.077 155.68 137.864 155.018 145.664 162.387C145.027 163.971 145.574 166.901 142.23 165.329C141.695 164.531 140.507 164.775 140.198 163.921Z" fill="#CA8397"/>
<path d="M225.891 81.4828C227.836 81.9218 229.595 82.9557 230.922 84.4408C231.805 85.2076 232.842 85.7762 233.963 86.1082C235.085 86.4401 236.265 86.5278 237.424 86.3652C238.225 86.3453 238.432 85.4885 238.56 84.7509C238.292 82.177 239.493 79.972 240.106 77.5164C240.362 77.0682 240.691 76.6661 241.08 76.3269C241.306 76.2038 241.562 76.1465 241.818 76.1613C242.075 76.1761 242.322 76.2625 242.532 76.4107C242.53 79.9928 241.785 83.5365 240.344 86.818C239.093 90.3425 236.785 91.2694 233.617 89.3004C229.994 87.4019 226.603 85.0911 223.512 82.414C224.401 82.3942 225.255 82.0584 225.919 81.4668L225.891 81.4828Z" fill="#B59296"/>
<path d="M105.34 237.841C106.8 238.936 107.826 240.51 108.239 242.287L108.107 242.954C107.976 243.682 107.575 244.335 106.984 244.782C106.743 244.88 106.484 244.93 106.224 244.929C105.963 244.928 105.706 244.875 105.465 244.774C104.968 244.134 104.327 243.62 103.595 243.271C102.862 242.923 102.058 242.751 101.247 242.768C100.436 242.785 99.6395 242.991 98.9217 243.37C98.2038 243.749 97.5843 244.29 97.1125 244.951C96.7822 245.447 96.3288 245.85 95.7965 246.12C95.2642 246.39 94.6712 246.518 94.0753 246.49C93.4794 246.463 92.9009 246.282 92.3963 245.964C91.8917 245.647 91.4782 245.204 91.196 244.679C90.9559 244.238 90.8236 243.746 90.8099 243.243C92.6845 237.921 97.2276 236.773 102.086 236.106C103.348 236.373 104.196 237.395 105.34 237.841Z" fill="#D9B8BE"/>
<path d="M151.982 169.174C149.7 172.704 151.611 175.693 153.358 178.593C154.173 180.003 155.481 181.054 153.596 182.585C153.349 182.155 153.046 181.76 152.695 181.409C152.404 180.995 152.088 180.599 151.751 180.221C150.103 176.685 148.225 173.262 146.129 169.972C146.555 168.472 145.314 167.346 145.15 166.039C144.987 164.732 144.163 162.922 146.802 163.463C147.062 163.961 147.484 164.354 147.999 164.578C149.666 165.781 151.029 167.354 151.982 169.174Z" fill="#DBB3BC"/>
<path d="M96.8955 232.872C92.61 234.018 87.9237 233 83.9052 235.504C83.0468 236 82.1492 235.597 81.5435 234.803C80.6507 233.847 79.4297 233.261 78.1235 233.164C80.9995 231.609 84.2081 230.77 87.4763 230.719C90.7446 230.668 93.9759 231.406 96.8955 232.872Z" fill="#B67586"/>
<path d="M80.1908 106.093L82.2939 106.538C82.5985 106.362 82.7125 106.112 82.6561 105.887C82.5997 105.661 82.4486 105.527 82.4326 105.5C83.0681 102.699 82.4716 99.172 86.3534 98.2214C88.7084 100.254 87.5276 103.517 89.0316 105.93C89.5585 106.842 86.2624 107.529 87.6303 109.578C86.661 110.137 86.0511 109.273 85.2536 109.107L83.1632 108.875C82.7002 108.073 81.6225 108.253 81.1084 107.555C80.695 107.505 80.2986 107.361 79.9499 107.134C79.6012 106.907 79.3094 106.603 79.0972 106.245C79.151 106.154 79.2248 106.075 79.3132 106.016C79.4016 105.957 79.5022 105.919 79.6074 105.904C79.7127 105.89 79.8199 105.899 79.9209 105.932C80.0219 105.965 80.1142 106.02 80.1908 106.093Z" fill="#D3ADB5"/>
<path d="M120.883 271.158C118.639 271.048 116.406 270.772 114.203 270.332C112.108 269.772 114.15 268.961 114.382 268.275C114.689 268.275 114.994 268.214 115.279 268.096C115.563 267.979 115.821 267.806 116.039 267.588C116.256 267.37 116.428 267.111 116.545 266.826C116.662 266.542 116.721 266.237 116.72 265.929C116.687 265.118 116.903 264.316 117.338 263.63C117.773 262.944 118.407 262.407 119.155 262.09C119.847 262.649 119.522 263.685 120.214 264.244C121.277 265.348 122.001 266.735 122.299 268.239C122.642 269.663 122.344 270.683 120.883 271.158Z" fill="#E0CBCD"/>
<path d="M232.195 36.2527C231.88 37.6885 230.799 38.0545 229.595 38.5281C225.262 40.085 220.846 41.4035 216.368 42.4776C216.231 42.3329 216.126 42.1607 216.061 41.9722C215.995 41.7838 215.971 41.5836 215.989 41.3849C216.007 41.1861 216.067 40.9934 216.165 40.8196C216.263 40.6458 216.397 40.4949 216.559 40.3768C217.107 39.7282 218.171 40.0359 218.608 39.1937C220.918 37.7286 223.548 36.8427 226.274 36.6114C227.381 35.9719 228.753 36.8762 229.843 35.9516C230.224 35.7726 230.647 35.7058 231.064 35.7592C231.48 35.8125 231.873 35.9837 232.195 36.2527Z" fill="#E5D9D9"/>
<path d="M102.647 118.385C103.827 117.999 105.158 118.705 106.47 117.652C105.123 115.702 102.603 116.198 100.937 114.911C100.261 114.379 99.1575 114.131 99.4783 113.024C99.7991 111.917 100.943 112.363 101.677 112.677C103.916 113.77 106.364 114.368 108.856 114.431C109.286 119.972 108.487 120.507 102.647 118.385Z" fill="#AC797F"/>
<path d="M146.714 163.44C145.181 164.62 146.488 165.414 147.074 166.366C148.016 167.997 147.989 169.23 146.042 169.949C144.379 168.731 143.044 167.12 142.154 165.262C142.369 165.286 142.586 165.262 142.79 165.191C142.994 165.121 143.18 165.005 143.333 164.852C143.486 164.7 143.603 164.515 143.675 164.312C143.748 164.108 143.773 163.891 143.75 163.677C143.797 162.543 144.704 162.388 145.588 162.32C145.862 162.383 146.113 162.521 146.312 162.719C146.511 162.917 146.65 163.167 146.714 163.44Z" fill="#D89CAD"/>
<path d="M64.9776 259.19C65.3847 261.941 65.7481 264.681 63.2386 266.794C62.7929 265.491 62.7195 264.089 63.0267 262.746C63.3338 261.403 64.0094 260.171 64.9776 259.19Z" fill="#C3919A"/>
<path d="M242.516 76.3831L241.6 76.3956C241.172 76.0071 240.876 75.4948 240.754 74.93C240.646 74.3688 240.707 73.7881 240.927 73.2606C241.148 72.7331 241.52 72.2821 241.995 71.9641C242.251 70.489 241.995 68.8302 243.478 67.753C243.488 70.6566 243.165 73.5522 242.516 76.3831Z" fill="#D6BABB"/>
<path d="M63.2866 266.877C65.4248 267.191 65.7289 268.932 66.1832 270.551C65.3974 270.282 64.7061 269.793 64.1923 269.141C63.6784 268.489 63.364 267.703 63.2866 266.877Z" fill="#C3919A"/>
<path d="M105.34 237.841C104.004 238.022 103.038 237.179 101.934 236.673C101.552 236.525 101.413 236.347 101.598 236.093C101.784 235.838 101.791 235.723 101.906 235.731L102.211 235.555C102.877 235.658 103.51 235.919 104.054 236.317C104.599 236.715 105.039 237.237 105.34 237.841Z" fill="#C58A9B"/>
<path d="M124.558 168.231L124.713 169.395C124.405 169.856 123.995 170.24 123.515 170.517C123.035 170.794 122.497 170.957 121.944 170.994C122.027 170.314 122.325 169.679 122.796 169.182C123.266 168.685 123.884 168.351 124.558 168.231Z" fill="#B2808A"/>
<path d="M67.5125 257.505C67.2294 257.98 66.8516 258.391 66.4027 258.714C65.9537 259.036 65.4433 259.263 64.903 259.38C64.8818 258.947 64.993 258.517 65.2217 258.148C65.4504 257.779 65.7858 257.488 66.1836 257.314C66.2693 257.237 66.3704 257.181 66.48 257.147C66.5895 257.113 66.7051 257.103 66.8187 257.118C66.9323 257.133 67.0414 257.172 67.1385 257.233C67.2356 257.293 67.3185 257.374 67.3816 257.47L67.5125 257.505Z" fill="#C3919A"/>
<path d="M230.026 36.1408C229.566 36.5794 228.993 36.8812 228.371 37.0124C227.748 37.1436 227.102 37.099 226.505 36.8837C226.988 36.484 227.561 36.2075 228.174 36.0781C228.788 35.9487 229.423 35.9702 230.026 36.1408Z" fill="#DEC4C8"/>
<path d="M81.1242 107.582C81.5609 107.567 81.9919 107.685 82.3592 107.921C82.7265 108.157 83.0126 108.5 83.1791 108.903C82.754 108.869 82.344 108.731 81.9855 108.501C81.627 108.27 81.3312 107.955 81.1242 107.582Z" fill="#C5959F"/>
<path d="M80.1908 106.093L79.1131 106.273C78.8077 106.273 78.5116 106.169 78.2737 105.978C78.0358 105.786 77.8704 105.52 77.8046 105.222C78.2421 105.184 78.6825 105.242 79.0948 105.393C79.507 105.544 79.8812 105.783 80.1908 106.093Z" fill="#DDC1C6"/>
<path d="M120.127 264.22C119.787 263.976 119.513 263.651 119.328 263.276C119.144 262.9 119.054 262.485 119.068 262.066C119.414 262.305 119.693 262.628 119.878 263.005C120.064 263.382 120.149 263.801 120.127 264.22Z" fill="#DEC4CF"/>
<path d="M105.368 106.343C104.941 106.169 104.598 105.837 104.411 105.417C104.223 104.996 104.205 104.519 104.36 104.085C104.756 104.296 105.07 104.632 105.252 105.041C105.435 105.45 105.475 105.908 105.368 106.343Z" fill="#C5959F"/>
<path d="M218.791 39.383C218.603 39.7594 218.309 40.0723 217.944 40.2827C217.58 40.4931 217.161 40.5917 216.742 40.5661C216.926 40.187 217.22 39.8717 217.585 39.6608C217.95 39.4499 218.37 39.3532 218.791 39.383Z" fill="#DEC4C8"/>
<path d="M216.591 40.4322L216.4 42.533L215.317 41.1676C215.41 40.9159 215.588 40.7045 215.821 40.5702C216.054 40.4359 216.326 40.3871 216.591 40.4322Z" fill="#DEC4C8"/>
<path d="M67.4647 257.422L66.2667 257.266C66.3162 256.979 66.4618 256.718 66.6794 256.526C66.897 256.333 67.1737 256.22 67.4639 256.206L67.4647 257.422Z" fill="#BB7E8D"/>
<path d="M147.785 164.591L146.588 163.476C146.885 163.498 147.165 163.621 147.383 163.824C147.6 164.026 147.742 164.297 147.785 164.591Z" fill="#D89CAD"/>
<path d="M109.816 244.954L108.812 244.943C108.675 244.823 108.58 244.662 108.544 244.483C108.507 244.304 108.53 244.118 108.61 243.954L109.081 243.682C109.317 243.796 109.513 243.978 109.644 244.205C109.775 244.432 109.835 244.693 109.816 244.954Z" fill="#D9B8BE"/>
<path d="M108.239 242.287C108.489 242.419 108.697 242.619 108.838 242.864C108.979 243.108 109.048 243.388 109.037 243.67C108.88 243.78 108.713 243.876 108.539 243.958C108.299 243.901 108.086 243.765 107.934 243.572C107.782 243.378 107.7 243.139 107.702 242.892C107.869 242.681 108.049 242.479 108.239 242.287Z" fill="#D9B8BE"/>
<path d="M140.198 163.921C140.614 163.952 141.013 164.093 141.357 164.328C141.7 164.564 141.975 164.886 142.154 165.262C141.742 165.218 141.347 165.073 141.006 164.839C140.664 164.605 140.387 164.289 140.198 163.921Z" fill="#D89CAD"/>
<path d="M241.995 71.9641L241.62 75.2782C241.166 75.8352 240.879 76.5538 240.035 76.562C237.988 76.3425 237.131 74.2193 235.345 73.5548C232.783 70.8322 229.858 68.4765 226.651 66.5543C227.918 65.2325 229.42 65.9143 231.068 65.6999C231.149 64.1781 229.074 63.7171 229.136 62.3539C229.198 60.9907 230.868 60.174 231.601 59.0134C231.925 58.3758 232.197 57.7133 232.414 57.0323C232.887 57.284 233.373 57.5078 233.872 57.7024C235.63 58.1254 238.123 57.9028 238.992 59.0236C240.43 60.8111 237.787 62.3736 237.279 64.1789C236.77 65.9841 236.29 66.8146 238.216 67.6567C240.142 68.4988 240.053 71.0944 241.995 71.9641Z" fill="#E1CBCC"/>
<path d="M235.289 73.5867C238.619 71.2957 239.018 75.1209 240.501 76.2188C240.929 76.4431 241.254 76.8229 241.409 77.28C241.433 80.0234 240.419 82.6759 238.571 84.7072C237.436 84.4039 236.673 83.8491 237.294 82.495C237.445 82.1808 237.529 81.8393 237.543 81.4914C237.557 81.1435 237.5 80.7965 237.374 80.4717C237.249 80.147 237.059 79.8513 236.815 79.6029C236.571 79.3545 236.279 79.1585 235.956 79.0271C236.131 76.8986 233.807 76.839 233.025 75.484C233.996 75.1664 234.807 74.4867 235.289 73.5867Z" fill="#D6BABB"/>
<path d="M224.618 59.5795C228.457 54.782 228.457 54.782 232.442 57.0163C229.845 57.8891 227.167 58.6237 224.618 59.5795Z" fill="#E1CBCC"/>
<path d="M219.847 65.5781C219.929 65.2726 219.964 64.8842 220.137 64.6733C220.311 64.4625 220.688 64.5398 220.539 64.9209C220.39 65.302 220.013 65.2247 219.847 65.5781Z" fill="#D5B1B9"/>
<path d="M232.969 75.516C232.654 75.2373 232.41 74.8885 232.254 74.4977C232.099 74.1069 232.038 73.685 232.077 73.2661C232.394 73.5431 232.64 73.8917 232.795 74.2829C232.95 74.6742 233.01 75.0968 232.969 75.516Z" fill="#D6BABB"/>
<path d="M230.101 48.2285C231.497 48.8116 232.965 49.204 234.466 49.395C236.254 49.3583 236.449 50.4627 236.811 51.7287C237.025 52.3272 237.055 52.9761 236.898 53.5924C236.74 54.2087 236.403 54.7642 235.928 55.188C234.684 56.4225 233.589 55.3583 232.552 54.7771C231.515 54.196 230.1 53.28 228.908 52.4936C227.715 51.7072 226.698 50.9675 227.588 49.5684C227.827 49.1216 228.194 48.7556 228.641 48.5171C229.088 48.2785 229.596 48.178 230.101 48.2285Z" fill="#EFE4E4"/>
<path d="M85.4448 94.9851C85.9216 93.2455 85.6981 91.3893 84.8223 89.8139C84.471 89.2056 84.008 88.4036 84.8388 87.924C85.6695 87.4444 86.5169 88.2087 87.323 88.5176C88.5409 90.6122 89.3981 92.8967 89.8587 95.2759C90.1418 95.6383 90.3728 96.0386 90.5453 96.4649L90.6962 97.5577C90.4127 98.09 90.5083 99.2147 89.367 98.3251L86.4679 96.0537C86.279 96.0332 86.0967 95.9729 85.933 95.8767C85.7693 95.7806 85.6279 95.6508 85.5182 95.4959L85.4448 94.9851Z" fill="#BF8695"/>
<path d="M86.3257 98.2374C84.6692 100.484 85.1421 103.861 82.4049 105.516C80.1158 104.109 81.1077 102.246 81.6439 100.424C82.18 98.603 84.0888 96.9848 83.4217 94.6784L85.4726 94.9691C86.1529 95.5719 85.8119 96.5799 86.3654 97.219L86.3257 98.2374Z" fill="#DDC1C6"/>
<path d="M86.3931 97.2031C86.096 96.9108 85.8633 96.5598 85.7096 96.1724C85.5558 95.7851 85.4846 95.3699 85.5003 94.9533L86.5829 96.0611L86.3931 97.2031Z" fill="#CAA0AA"/>
<path d="M107.746 242.904L108.666 243.922L108.812 244.943C110.233 247.404 107.586 249.854 109.337 252.567C106.581 251.246 104.701 253.106 102.707 253.298C100.714 253.49 98.5696 251.631 96.102 252.282C93.913 251.112 93.5495 248.372 91.5777 247.003C91.1777 246.385 90.9885 245.653 91.0384 244.918L91.4007 244.266C93.3216 244.78 94.8249 245.977 96.2634 242.713C98.012 238.643 103.797 239.838 106.61 244.518C106.791 243.935 106.919 243.198 107.746 242.904Z" fill="#E7D7DB"/>
<path d="M103.001 260.65C101.218 258.84 101.218 258.84 100.848 255.514C103.209 255.958 105.352 256.343 106.427 258.782C105.527 259.781 104.112 259.824 103.105 260.701L103.001 260.65Z" fill="#DABBC6"/>
<path d="M92.3691 246.583C95.4645 247.34 95.8152 249.866 96.1659 252.392C95.9695 253.907 96.182 255.554 94.8815 256.563C94.1321 255.785 93.5841 254.835 93.285 253.797C92.5072 251.555 90.4526 249.275 92.3691 246.583Z" fill="#DABBC6"/>
<path d="M91.5277 243.271L91.4645 244.377C90.2441 244.809 89.1743 245.585 88.3841 246.61C87.5939 247.636 87.1169 248.867 87.0106 250.156C86.8168 250.268 86.5952 250.396 86.4014 250.508C82.504 248.213 78.4257 246.24 74.2069 244.607C74.5961 242.723 75.3887 241.602 77.5022 242.704C78.7021 243.376 79.9255 243.96 81.1649 244.572C83.6572 239.04 84.8052 238.598 88.3621 241.817C90.0758 241.012 90.9626 241.717 91.5277 243.271Z" fill="#CF9FAC"/>
<path d="M91.5277 243.271L88.3941 241.873C89.8151 240.241 87.9224 237.794 89.5308 236.423C91.1391 235.052 93.2354 236.828 95.0214 236.277C97.2866 235.596 99.3944 234.194 101.795 235.795C101.891 236.078 101.938 236.375 101.933 236.674C101.658 237.091 101.308 237.956 101.106 237.926C96.5279 237.287 94.3929 240.88 91.5277 243.271Z" fill="#CD9AA7"/>
<path d="M94.9963 253.436L94.6834 256.603C92.8401 256.672 90.8937 255.731 89.2342 257.205C87.6339 256.544 87.4406 254.738 86.2748 253.678L86.4333 250.563L86.5994 250.467C90.4443 248.174 92.5306 251.467 94.9963 253.436Z" fill="#CF9FAC"/>
<path d="M103.057 260.618C103.356 260.003 103.832 259.492 104.424 259.15C105.017 258.808 105.698 258.651 106.38 258.7C106.058 260.765 104.643 260.808 103.057 260.618Z" fill="#D4A6A9"/>
<path d="M152.624 181.413L153.524 182.589L152.624 181.413Z" fill="#EBD7DD"/>
<path d="M151.664 180.198L152.608 181.386L151.664 180.198Z" fill="#EBD7DD"/>
<path d="M225.919 81.4668L225.577 81.2586L225.892 81.4828L225.919 81.4668Z" fill="#B59296"/>
<path d="M71.7797 256.774L71.5709 257.116L71.7957 256.802L71.7797 256.774Z" fill="#BB7E8D"/>
<path d="M82.4657 93.5343C80.7795 90.7503 79.5899 87.6945 78.9498 84.5028C81.2077 87.0707 84.1941 89.3655 82.4657 93.5343Z" fill="#DDC1C6"/>
<path d="M83.4376 94.706L82.422 93.5225L83.4376 94.706Z" fill="#DDC1C6"/>
<path d="M82.3527 105.361C82.4452 105.619 82.523 105.882 82.5857 106.149C82.5857 106.149 82.3365 106.293 82.198 106.373L82.3527 105.361Z" fill="#DDC1C6"/>
<path d="M241.381 77.2959L240.473 76.2347L241.564 75.31L241.6 76.3955L241.381 77.2959Z" fill="#E9D8D9"/>
<path d="M94.9963 253.436L86.5675 250.412C86.1494 248.92 84.0786 247.572 85.2621 246.041C85.9466 245.096 86.9333 244.414 88.0584 244.106C89.1836 243.799 90.3797 243.884 91.4485 244.349L92.353 246.555C92.9411 248.951 93.8292 251.263 94.9963 253.436Z" fill="#D9B8BE"/>
<path d="M104.006 243.589L103.893 243.138L104.286 243.243L104.006 243.589Z" fill="#D9B8BE"/>
<path d="M106.647 244.645L106.961 244.869L106.785 244.565L106.647 244.645Z" fill="#D9B8BE"/>
</g>
<defs>
<filter id="filter0_d_114_1843" x="-28" y="-9.58984" width="352.21" height="322.809" filterUnits="userSpaceOnUse" color-interpolation-filters="sRGB">
<feFlood flood-opacity="0" result="BackgroundImageFix"/>
<feColorMatrix in="SourceAlpha" type="matrix" values="0 0 0 0 0 0 0 0 0 0 0 0 0 0 0 0 0 0 127 0" result="hardAlpha"/>
<feOffset dy="4"/>
<feGaussianBlur stdDeviation="7"/>
<feComposite in2="hardAlpha" operator="out"/>
<feColorMatrix type="matrix" values="0 0 0 0 0 0 0 0 0 0 0 0 0 0 0 0 0 0 0.14 0"/>
<feBlend mode="normal" in2="BackgroundImageFix" result="effect1_dropShadow_114_1843"/>
<feBlend mode="normal" in="SourceGraphic" in2="effect1_dropShadow_114_1843" result="shape"/>
</filter>
</defs>
</svg>
