<svg width="322" height="320" viewBox="0 0 322 320" fill="none" xmlns="http://www.w3.org/2000/svg">
<g filter="url(#filter0_d_114_1768)">
<path d="M202.691 150.936C200.113 158.765 197.876 166.657 195.775 174.638C194.639 178.968 194.143 179.065 189.913 178.735C188.996 177.843 187.548 177.681 186.875 176.492C186.262 175.634 185.466 174.923 184.544 174.411C183.622 173.899 182.598 173.599 181.546 173.533C174.478 172.313 173.407 170.067 176.272 163.409C176.807 162.585 177.285 161.726 177.704 160.838C177.892 160.383 178.112 159.942 178.363 159.519C179.471 157.923 180.532 156.282 181.571 154.664C183.734 151.155 186.99 148.454 190.839 146.975C193.991 147.726 197.577 147.296 199.394 151.114C200.006 152.778 201.476 149.754 202.691 150.936Z" fill="#EBD7DD"/>
<path d="M30.3622 109.223C29.9685 102.2 32.4461 98.4628 39.763 94.9793C41.1608 96.3397 40.1166 97.5959 39.5472 98.8686C38.4621 101.869 38.3861 105.143 39.3308 108.194C40.2755 111.244 42.1893 113.905 44.7817 115.771C47.6076 117.452 50.6042 115.244 52.1404 110.457C52.5097 107.831 49.7316 106.33 49.651 103.846C49.7621 103.353 50.0341 102.913 50.4241 102.593C53.7487 102.799 56.9247 100.498 60.3832 102.171C61.4525 102.677 61.1182 101.416 61.2002 100.827C61.3783 99.6853 61.8247 98.602 62.5027 97.6663C63.1807 96.7307 64.0709 95.9693 65.1006 95.4446C65.6054 95.3269 66.1334 95.3544 66.6237 95.5241C67.1139 95.6937 67.5464 95.9985 67.871 96.4033C68.1405 96.8345 68.2737 97.3368 68.2531 97.8445C67.9526 98.7768 67.5565 99.6755 67.071 100.526C66.5678 101.685 67.3023 102.489 67.79 103.409C70.9029 109.38 70.1211 111.604 63.5288 113.61C62.4838 113.216 62.2413 113.649 62.5043 114.662C58.1453 125.926 50.6755 128.726 40.095 123.062C35.9717 119.138 33.8606 113.697 30.3622 109.223Z" fill="#DEC4C8"/>
<path d="M54.8705 110.173C54.3598 111.112 53.9497 112.102 53.6471 113.126C53.4684 114.553 52.7619 115.86 51.6668 116.79C50.5717 117.72 49.1674 118.205 47.7305 118.151C45.3606 118.34 43.0283 119.59 42.5179 115.484C42.3612 113.995 39.8141 112.852 38.4163 111.492C37.6372 110.734 36.8811 109.998 36.1249 109.262C33.738 106.671 38.5524 106.767 37.7815 104.992C37.0105 103.217 34.2484 102.846 36.2922 100.379C38.0504 99.0195 39.3165 97.1232 39.8986 94.9775C45.256 91.7223 51.4064 90.0019 57.6792 90.0038C59.1602 90.8661 60.6333 89.5817 62.1977 89.9458C63.2032 93.9098 60.9973 97.6891 57.9941 97.8407C53.4756 97.8987 52.1573 100.537 50.3911 103.452C49.2487 107.331 52.8095 108.256 54.8705 110.173Z" fill="#E9D8D9"/>
<path d="M61.9402 113.133C63.0392 112.554 64.1153 111.953 65.2378 111.441C68.6055 109.906 69.5361 107.025 66.7044 104.937C63.8727 102.849 64.3505 101.487 66.0366 99.2965C66.4775 98.5225 67.5404 98.5767 67.959 97.8256C68.1382 96.1286 67.0878 93.7695 70.1813 93.6168C70.6447 93.8124 71.0613 94.1042 71.4035 94.4729C71.7457 94.8416 72.0058 95.2787 72.1664 95.7552C72.327 96.2318 72.3846 96.7369 72.3352 97.2371C72.2858 97.7373 72.1307 98.2211 71.88 98.6565C69.2097 103.142 70.7197 106.038 74.5971 108.564C74.9637 108.921 75.0395 109.485 74.8213 110.03C70.3749 119.916 61.9515 125.041 52.211 128.126C49.9645 128.796 47.5671 128.774 45.3318 128.061C43.0965 127.348 41.1271 125.978 39.6808 124.13C39.6951 123.702 39.857 123.293 40.1388 122.971L40.7001 122.715C43.1059 123.453 46.0204 121.834 48.0045 124.7C48.5583 125.507 49.5885 124.861 50.4432 124.579C54.4282 123.235 57.7969 120.506 59.9373 116.887L61.9402 113.133Z" fill="#D5B1B9"/>
<path d="M144.622 211.562C144.468 218.844 143.183 226.057 140.813 232.942C136.997 228.381 133.682 231.971 130.247 233.575C129.771 233.747 129.266 233.83 128.759 233.82C128.259 233.773 127.777 233.609 127.351 233.341C125.79 231.598 128.41 229.915 127.323 228.144C127.435 224.956 129.799 222.757 130.844 219.942C131.889 217.126 134.347 215.242 132.159 212.31C133.697 209.688 136.12 207.702 138.994 206.708C141.137 208.082 140.649 210.28 140.811 212.131C141.011 210.32 140.018 207.26 142.956 207.222C145.146 207.126 144.552 209.846 144.622 211.562Z" fill="#C5959F"/>
<path d="M264.474 170.253C268.771 165.356 273.435 160.794 278.425 156.606C281.096 156.888 284.636 154.809 286.005 158.904C284.565 163.041 282.486 166.925 279.842 170.417C279.513 171.121 278.577 171.992 279.375 172.547C280.174 173.101 280.56 171.65 281.302 171.347C285.446 170.435 285.171 173.286 284.662 175.642C284.423 176.939 283.926 178.174 283.2 179.274C282.474 180.374 281.535 181.317 280.437 182.046C278.862 182.54 277.181 182.585 275.581 182.176C274.747 181.844 274.029 181.275 273.516 180.538C273.003 179.801 272.718 178.93 272.697 178.033C272.463 172.726 269.346 171.207 264.628 171.516C264.534 171.443 264.456 171.353 264.397 171.25C264.339 171.147 264.301 171.033 264.287 170.916C264.273 170.798 264.282 170.679 264.314 170.565C264.346 170.452 264.401 170.345 264.474 170.253Z" fill="#DEC4CF"/>
<path d="M256.36 185.971C256.064 183.988 256.458 181.965 257.476 180.24C257.702 180.336 257.923 180.446 258.136 180.57C259.292 181.66 260.139 183.037 260.588 184.561C261.143 186.178 262.072 187.643 263.298 188.836C264.524 190.029 266.013 190.918 267.645 191.43C268.172 193.547 267.87 196.104 271.24 196.309C272.982 196.445 273.297 198 273.139 199.584C272.981 201.168 272.484 202.779 273.949 204.07L274.319 204.698C274.158 207.66 273.975 210.646 274.088 213.875C269.136 211.625 264.856 208.12 261.674 203.708C260.077 197.876 256.926 192.449 256.36 185.971Z" fill="#C58A9B"/>
<path d="M278.657 169.709C280.768 167.105 282.165 163.995 282.709 160.686C282.771 158.697 284.432 159.466 285.586 159.61C287.546 157.596 283.797 154.571 286.593 152.569C288.451 155.002 289.266 158.073 288.861 161.104C289.008 165.034 288.612 168.971 288.622 172.902C288.605 177.569 287.259 182.132 284.742 186.058C284.407 186.567 283.932 186.968 283.375 187.216C282.818 187.463 282.202 187.546 281.599 187.454C281.069 187.305 280.578 187.042 280.16 186.685C279.741 186.327 279.405 185.884 279.174 185.384C278.944 184.884 278.824 184.34 278.824 183.79C278.824 183.24 278.943 182.697 279.174 182.198L279.82 181.534C281.124 179.507 281.837 177.215 283.3 175.208C284.075 174.136 284.873 171.437 281.454 172.52L280.774 172.348C279.99 171.854 279.361 171.15 278.959 170.315L278.657 169.709Z" fill="#DABBC6"/>
<path d="M132.271 212.24C136.171 211.58 135.946 211.673 135.021 214.917C133.29 219.807 130.859 224.421 127.804 228.612C127.643 229.043 127.437 229.454 127.189 229.84C126.936 230.497 126.561 231.1 126.084 231.617C124.14 233.156 122.034 234.449 120.113 235.965C118.653 236.639 117.152 237.539 115.709 236.134C114.265 234.729 115.83 233.579 116.378 232.329C116.758 230.977 117.261 229.662 117.881 228.401C121.191 222.87 125.414 217.941 130.373 213.824C130.952 213.229 132.06 213.283 132.271 212.24Z" fill="#E5D2D3"/>
<path d="M202.691 150.936C201.007 151.703 200.445 153.473 198.893 155.617C198.692 150.964 196.721 149.046 192.901 148.983C192.201 148.969 191.51 148.074 190.78 147.586L190.658 146.933C190.7 146.483 190.8 146.042 190.955 145.618L191.217 144.982C191.402 144.554 191.623 144.143 191.878 143.753L192.345 143.273C194.308 139.881 198.184 139.108 200.977 136.88C201.753 136.142 202.781 135.725 203.853 135.713C206.654 135.677 207.825 136.95 207.073 139.739C206.086 143.64 204.614 147.402 202.691 150.936Z" fill="#EFE6E6"/>
<path d="M74.8213 110.03C72.231 109.024 69.3072 108.406 68.6493 105.048C68.2824 103.086 66.9444 101.16 69.6985 99.385C71.4237 98.3461 70.0315 95.788 70.5028 93.9742C69.517 89.8066 73.7321 90.6563 75.3579 88.9858C79.4474 88.9559 79.3766 91.9169 78.9385 94.4759C78.4706 96.9303 77.6601 99.3063 76.5307 101.534C76.2635 101.809 75.8345 101.837 75.7735 102.312C76.0886 102.384 76.3887 102.51 76.6601 102.685C76.952 102.974 77.1435 103.35 77.2062 103.756C77.269 104.162 77.1997 104.577 77.0085 104.94C76.8083 106.819 76.046 108.593 74.8213 110.03Z" fill="#CDACB0"/>
<path d="M292.343 194.57C298.704 195.369 300.533 196.882 301.443 202.045C300.419 202.386 299.313 202.4 298.28 202.086C296.099 201.255 294.585 201.297 294.107 204.173C293.921 205.251 293.345 206.222 292.487 206.901C291.629 207.579 290.551 207.916 289.459 207.848L288.128 208.023C287.684 208.085 287.232 208.068 286.794 207.973C285.779 206.54 281.533 206.639 284.604 203.301C285.077 203.217 285.565 203.273 286.007 203.464C285.824 203.285 285.486 203.357 285.28 203.202C281.519 202.482 283.379 199.837 283.215 197.85C285.049 193.353 289.002 194.839 292.343 194.57Z" fill="#C3919A"/>
<path d="M117.881 228.401C118.301 230.949 116.138 232.988 116.354 235.425C118.104 236.149 118.805 234.558 119.956 234.475C122.11 234.967 123.999 232.796 126.206 233.83C126.552 233.998 126.857 234.243 127.096 234.545C127.335 234.847 127.503 235.199 127.587 235.575C127.655 236.084 127.609 236.602 127.45 237.09C127.227 237.561 126.919 237.986 126.541 238.345L126.007 238.894C125.129 239.092 124.313 239.501 123.629 240.084C122.944 240.668 122.412 241.409 122.077 242.244C123.935 242.536 125.542 241.16 127.286 241.476C129.031 241.793 131.209 240.838 131.745 243.588C128.749 244.237 125.776 244.908 122.802 245.488C121.062 245.924 119.262 246.07 117.475 245.918C113.558 245.358 112.062 243.502 112.866 239.65C113.43 235.498 115.17 231.595 117.881 228.401Z" fill="#CAA0AA"/>
<path d="M131.583 243.297C129.368 241.675 127.065 243.355 125.054 243.403C123.044 243.451 120.633 245.516 118.367 243.534C120.938 241.58 122.68 238.508 126.103 237.695L126.966 236.396C127.638 234.422 129.244 234.559 130.829 234.765C132.911 235.113 135.048 234.858 136.987 234.03L137.708 233.886C138.208 233.852 138.704 233.989 139.115 234.274C139.492 234.896 139.646 235.627 139.551 236.347C139.082 237.177 138.795 238.098 138.708 239.047C137.26 242.049 135.808 244.869 131.583 243.297Z" fill="#E5D2D4"/>
<path d="M286.212 203.619C284.909 204.133 284.151 204.821 285.368 206.183C285.963 206.763 286.403 207.458 286.954 208.084C282.603 207.236 279.955 203.722 276.735 201.346C274.777 201.891 275.414 203.803 274.456 204.787C274.275 204.764 274.099 204.713 273.934 204.636C273.209 202.333 272.987 199.903 273.284 197.509C273.582 195.115 274.391 192.814 275.658 190.762C276.052 190.373 276.524 190.072 277.043 189.878C277.562 189.684 278.116 189.603 278.67 189.639C279.637 189.79 280.512 190.3 281.122 191.066C281.731 191.833 282.03 192.8 281.96 193.777C282.166 195.52 282.916 197.156 284.105 198.449C285.211 199.971 283.914 202.451 286.121 203.575L286.212 203.619Z" fill="#BB7E8D"/>
<path d="M288.054 207.55C288.094 207.188 288.04 206.601 288.197 206.531C292.736 204.756 293.18 204.162 293.135 199.395C296.134 199.226 299.093 200.17 301.443 202.045C301.663 202.578 301.735 203.16 301.652 203.73C301.569 204.3 301.333 204.836 300.969 205.282C300.243 206.67 298.742 207.571 298.221 209.069C295.622 209.464 292.992 209.619 290.364 209.531C289.654 208.84 288.499 208.651 288.054 207.55Z" fill="#D1A9AF"/>
<path d="M284.105 198.449C279.97 198.48 279.444 198.012 280.387 194.384C280.859 192.661 280.055 191.7 279.27 190.535C278.216 187.95 280.562 187.694 281.859 186.728L284.745 186.239C284.553 191.845 285.518 192.917 292.343 194.57C289.489 195.668 286.168 195.734 284.105 198.449Z" fill="#B77486"/>
<path d="M200.862 136.769C198.283 139.739 194.627 141.617 192.667 145.19C189.431 146.496 187.811 150.178 184.417 151.419C182.686 152.051 180.901 153.611 180.199 150.389C181.66 147.33 184.086 144.838 187.103 143.295C191.359 140.484 195.991 138.287 200.862 136.769Z" fill="#DEC6C6"/>
<path d="M178.233 163.045L177.046 165.41C174.941 169.912 176.012 172.112 180.9 172.592C182.284 172.522 183.661 172.848 184.867 173.533C186.074 174.218 187.06 175.233 187.711 176.459C187.558 176.845 187.243 176.939 187.132 177.053C187.021 177.168 186.701 176.946 186.677 176.833C185.545 175.717 184.126 174.938 182.577 174.581C172.239 172.138 170.3 167.712 175.271 158.202C176.969 158.384 179.639 157.062 179.036 160.707C178.413 161.439 178.971 162.516 178.233 163.045Z" fill="#CA8397"/>
<path d="M75.6024 102.992C75.4962 101.002 76.0131 99.0283 77.0812 97.3469C77.5793 96.2891 77.8445 95.1366 77.859 93.967C77.8736 92.7975 77.6371 91.638 77.1655 90.5669C76.9287 89.8017 76.0479 89.8356 75.3033 89.9129C72.8991 90.8703 70.4507 90.3142 67.921 90.3919C67.42 90.2675 66.9435 90.0597 66.5112 89.7773C66.3315 89.5936 66.2067 89.3631 66.1512 89.1122C66.0957 88.8613 66.1117 88.5999 66.1973 88.3578C69.6449 87.3855 73.2577 87.139 76.8074 87.634C80.5394 87.8798 82.0588 89.8487 81.0252 93.4322C80.1832 97.4349 78.8813 101.326 77.1454 105.029C76.8846 104.179 76.3294 103.449 75.5795 102.97L75.6024 102.992Z" fill="#B59296"/>
<path d="M258.846 176.494C259.503 174.791 260.739 173.375 262.337 172.495L263.014 172.441C263.751 172.368 264.488 172.577 265.078 173.024C265.239 173.23 265.357 173.465 265.427 173.716C265.496 173.967 265.515 174.229 265.483 174.488C265.003 175.141 264.682 175.897 264.546 176.697C264.41 177.496 264.463 178.317 264.7 179.093C264.937 179.869 265.352 180.579 265.912 181.167C266.472 181.754 267.161 182.203 267.925 182.478C268.493 182.661 269.004 182.988 269.408 183.426C269.812 183.865 270.096 184.401 270.232 184.982C270.368 185.563 270.351 186.169 270.182 186.741C270.014 187.313 269.701 187.831 269.272 188.245C268.913 188.596 268.475 188.858 267.995 189.007C262.363 188.65 260.023 184.591 258.061 180.097C257.975 178.81 258.728 177.715 258.846 176.494Z" fill="#D9B8BE"/>
<path d="M180.085 150.277C184.102 151.514 186.46 148.862 188.774 146.392C189.91 145.225 190.566 143.68 192.552 145.078C192.205 145.433 191.907 145.831 191.665 146.264C191.346 146.657 191.05 147.069 190.779 147.496C187.824 150.043 185.04 152.781 182.444 155.693C180.885 155.69 180.138 157.191 178.925 157.704C177.712 158.216 176.194 159.501 175.997 156.815C176.406 156.429 176.669 155.916 176.745 155.359C177.449 153.429 178.592 151.689 180.085 150.277Z" fill="#DBB3BC"/>
<path d="M256.36 185.971C258.628 189.783 258.922 194.57 262.425 197.756C263.135 198.447 262.991 199.421 262.392 200.219C261.714 201.339 261.483 202.673 261.745 203.956C259.466 201.611 257.786 198.752 256.849 195.62C255.911 192.489 255.743 189.179 256.36 185.971Z" fill="#B67586"/>
<path d="M138.898 236.514L138.755 234.369C138.503 234.124 138.231 234.082 138.029 234.198C137.827 234.313 137.74 234.495 137.717 234.518C134.85 234.668 131.618 236.201 129.647 232.724C130.963 229.905 134.424 230.154 136.337 228.051C137.072 227.296 138.629 230.281 140.229 228.407C141.031 229.188 140.365 230.01 140.422 230.823L140.767 232.897C140.122 233.561 140.588 234.549 140.055 235.234C140.12 235.645 140.089 236.066 139.966 236.463C139.842 236.86 139.629 237.224 139.342 237.525C139.239 237.498 139.144 237.448 139.063 237.379C138.982 237.31 138.918 237.224 138.875 237.127C138.833 237.029 138.812 236.924 138.816 236.818C138.82 236.711 138.848 236.608 138.898 236.514Z" fill="#D3ADB5"/>
<path d="M286.682 152.478C287.187 154.667 287.528 156.891 287.703 159.13C287.734 161.299 286.399 159.554 285.675 159.518C285.592 159.222 285.451 158.945 285.26 158.703C285.069 158.462 284.832 158.26 284.563 158.11C284.295 157.961 283.999 157.865 283.693 157.83C283.388 157.795 283.078 157.821 282.782 157.906C282.011 158.157 281.18 158.168 280.402 157.936C279.624 157.703 278.934 157.24 278.425 156.606C278.775 155.788 279.86 155.819 280.21 155.001C280.984 153.678 282.122 152.604 283.488 151.909C284.766 151.192 285.828 151.201 286.682 152.478Z" fill="#E0CBCD"/>
<path d="M30.3622 109.223C31.8298 109.136 32.4759 110.077 33.2588 111.106C35.9353 114.854 38.4047 118.744 40.6556 122.761C40.5537 122.933 40.4165 123.081 40.253 123.195C40.0894 123.309 39.9034 123.387 39.7073 123.424C39.5112 123.461 39.3094 123.455 39.1154 123.408C38.9214 123.361 38.7397 123.273 38.5823 123.15C37.809 122.798 37.8158 121.691 36.8866 121.499C34.8485 119.674 33.281 117.384 32.3175 114.824C31.4009 113.932 31.8983 112.367 30.712 111.568C30.4363 111.251 30.257 110.862 30.195 110.446C30.133 110.031 30.1911 109.606 30.3622 109.223Z" fill="#E5D9D9"/>
<path d="M144.622 211.562C143.929 210.532 144.247 209.059 142.877 208.082C141.367 209.909 142.529 212.199 141.744 214.152C141.416 214.948 141.477 216.077 140.325 216.069C139.172 216.061 139.29 214.839 139.392 214.047C139.836 211.596 139.746 209.077 139.129 206.661C144.344 204.742 145.076 205.365 144.622 211.562Z" fill="#AC797F"/>
<path d="M175.999 156.905C177.552 158.06 177.96 156.586 178.717 155.763C180.031 154.413 181.224 154.104 182.446 155.783C181.725 157.714 180.539 159.437 178.992 160.799C178.957 160.585 178.875 160.383 178.751 160.206C178.628 160.028 178.466 159.881 178.277 159.775C178.089 159.669 177.88 159.607 177.664 159.593C177.449 159.579 177.233 159.613 177.033 159.694C175.929 159.957 175.533 159.126 175.228 158.294C175.213 158.013 175.278 157.734 175.414 157.489C175.551 157.243 175.753 157.041 175.999 156.905Z" fill="#D89CAD"/>
<path d="M290.364 209.531C292.901 208.391 295.439 207.297 298.154 209.137C297.022 209.921 295.693 210.372 294.317 210.442C292.941 210.511 291.572 210.196 290.364 209.531Z" fill="#C3919A"/>
<path d="M66.1751 88.3808L66.4361 89.2587C66.1786 89.776 65.7659 90.2 65.2558 90.4714C64.7449 90.7276 64.1697 90.8274 63.602 90.7583C63.0344 90.6893 62.4994 90.4544 62.0641 90.0831C60.5749 90.2378 59.0483 90.9353 57.6085 89.8014C60.4 89.0022 63.2742 88.5255 66.1751 88.3808Z" fill="#D6BABB"/>
<path d="M298.221 209.069C297.942 206.926 299.536 206.159 300.969 205.282C300.925 206.111 300.642 206.91 300.154 207.581C299.667 208.253 298.995 208.769 298.221 209.069Z" fill="#C3919A"/>
<path d="M258.846 176.494C259.383 177.73 258.835 178.889 258.649 180.089C258.609 180.496 258.476 180.679 258.181 180.57C257.886 180.46 257.773 180.484 257.749 180.372L257.497 180.126C257.414 179.457 257.494 178.777 257.729 178.145C257.964 177.513 258.347 176.947 258.846 176.494Z" fill="#C58A9B"/>
<path d="M186.633 176.924L187.711 176.459C188.238 176.63 188.719 176.92 189.116 177.307C189.514 177.694 189.817 178.166 190.002 178.689C189.326 178.794 188.634 178.679 188.028 178.362C187.421 178.044 186.932 177.54 186.633 176.924Z" fill="#B2808A"/>
<path d="M288.054 207.55C288.587 207.693 289.086 207.945 289.518 208.289C289.951 208.634 290.308 209.063 290.568 209.551C290.156 209.689 289.713 209.699 289.295 209.58C288.878 209.46 288.507 209.216 288.231 208.881C288.134 208.819 288.052 208.737 287.99 208.641C287.927 208.545 287.887 208.436 287.87 208.323C287.853 208.209 287.861 208.094 287.893 207.984C287.925 207.874 287.981 207.772 288.055 207.685L288.054 207.55Z" fill="#C3919A"/>
<path d="M30.8443 111.341C31.3914 111.664 31.8378 112.134 32.1332 112.697C32.4286 113.26 32.5613 113.894 32.5166 114.528C32.0006 114.171 31.5788 113.695 31.2874 113.14C30.9961 112.585 30.844 111.967 30.8443 111.341Z" fill="#DEC4C8"/>
<path d="M140.077 235.211C139.943 234.795 139.94 234.348 140.067 233.93C140.195 233.513 140.447 233.144 140.79 232.874C140.873 233.293 140.851 233.725 140.727 234.132C140.603 234.54 140.379 234.91 140.077 235.211Z" fill="#C5959F"/>
<path d="M138.898 236.514L139.364 237.502C139.447 237.796 139.427 238.11 139.308 238.391C139.189 238.671 138.977 238.903 138.708 239.047C138.553 238.637 138.49 238.197 138.522 237.759C138.555 237.322 138.683 236.897 138.898 236.514Z" fill="#DDC1C6"/>
<path d="M280.212 155.092C280.069 155.485 279.831 155.837 279.52 156.117C279.208 156.397 278.833 156.596 278.427 156.696C278.562 156.298 278.797 155.942 279.11 155.661C279.422 155.38 279.802 155.184 280.212 155.092Z" fill="#DEC4CF"/>
<path d="M132.293 212.218C132.242 212.675 132.016 213.096 131.662 213.39C131.309 213.685 130.855 213.833 130.395 213.801C130.49 213.363 130.728 212.97 131.072 212.683C131.416 212.396 131.845 212.232 132.293 212.218Z" fill="#C5959F"/>
<path d="M37.019 121.271C37.4322 121.35 37.8134 121.548 38.1149 121.842C38.4165 122.135 38.6251 122.511 38.7146 122.922C38.2996 122.847 37.9163 122.65 37.6141 122.356C37.3118 122.062 37.1046 121.684 37.019 121.271Z" fill="#DEC4C8"/>
<path d="M38.6267 123.104L40.7001 122.716L39.6808 124.13C39.4132 124.108 39.1613 123.994 38.9688 123.807C38.7763 123.619 38.6553 123.371 38.6267 123.104Z" fill="#DEC4C8"/>
<path d="M287.987 207.619L288.162 208.814C287.873 208.844 287.583 208.775 287.338 208.618C287.093 208.461 286.91 208.225 286.817 207.95L287.987 207.619Z" fill="#BB7E8D"/>
<path d="M176.816 155.561L176.068 157.017C176.009 156.726 176.05 156.422 176.186 156.158C176.322 155.893 176.544 155.683 176.816 155.561Z" fill="#D89CAD"/>
<path d="M264.474 170.253L264.736 171.221C264.659 171.386 264.529 171.521 264.367 171.605C264.204 171.689 264.019 171.717 263.839 171.684L263.45 171.305C263.495 171.047 263.617 170.809 263.8 170.622C263.983 170.434 264.217 170.305 264.474 170.253Z" fill="#D9B8BE"/>
<path d="M262.337 172.494C262.396 172.218 262.531 171.964 262.728 171.762C262.925 171.559 263.176 171.417 263.45 171.35C263.598 171.472 263.736 171.607 263.863 171.752C263.874 171.998 263.801 172.24 263.656 172.439C263.511 172.638 263.302 172.782 263.065 172.847C262.815 172.743 262.572 172.626 262.337 172.494Z" fill="#D9B8BE"/>
<path d="M178.233 163.045C178.15 162.637 178.177 162.214 178.31 161.819C178.443 161.425 178.678 161.073 178.992 160.799C179.062 161.207 179.029 161.626 178.897 162.018C178.764 162.411 178.536 162.764 178.233 163.045Z" fill="#D89CAD"/>
<path d="M62.064 90.0831L65.3555 89.5437C66.0148 89.829 66.7843 89.9094 67.0218 90.7199C67.367 92.7491 65.5566 94.1507 65.4029 96.0508C63.4793 99.2558 62.0077 102.712 61.0297 106.32C59.4131 105.46 59.6611 103.83 59.0066 102.302C57.52 102.637 57.6406 104.76 56.3118 105.071C54.983 105.381 53.7431 103.996 52.4269 103.606C51.7254 103.468 51.0139 103.387 50.2994 103.363C50.4133 102.84 50.4963 102.311 50.548 101.778C50.4771 99.971 49.5851 97.6324 50.4275 96.4918C51.7567 94.6218 53.9788 96.7399 55.8543 96.7384C57.7298 96.7369 58.6596 96.9735 58.9463 94.8909C59.233 92.8084 61.755 92.1885 62.064 90.0831Z" fill="#E1CBCC"/>
<path d="M65.4488 96.0956C62.3389 93.5144 65.9115 92.0901 66.5649 90.3644C66.6644 89.8918 66.9416 89.4758 67.3392 89.202C69.9729 88.4337 72.801 88.6878 75.2582 89.9137C75.2749 91.0885 74.9486 91.974 73.4765 91.7443C73.1332 91.6848 72.7815 91.6961 72.443 91.7774C72.1044 91.8587 71.7861 92.0084 71.5077 92.2172C71.2292 92.4261 70.9965 92.6896 70.8237 92.9918C70.6509 93.294 70.5417 93.6283 70.5029 93.9744C68.4072 94.3855 68.9816 96.6377 67.8903 97.7589C67.3208 96.911 66.4461 96.3151 65.4488 96.0956Z" fill="#D6BABB"/>
<path d="M54.8705 110.173C49.2099 107.783 49.2099 107.783 50.2765 103.34C51.8227 105.603 53.2575 107.98 54.8705 110.173Z" fill="#E1CBCC"/>
<path d="M61.9402 113.133C61.6239 113.137 61.2408 113.21 60.9906 113.1C60.7405 112.99 60.7125 112.607 61.1198 112.646C61.5271 112.686 61.5551 113.07 61.9402 113.133Z" fill="#D5B1B9"/>
<path d="M67.9362 97.8033C67.7537 98.1822 67.4846 98.5127 67.1507 98.7682C66.8167 99.0237 66.4273 99.197 66.0138 99.2742C66.1942 98.8938 66.4626 98.562 66.7969 98.3062C67.1312 98.0505 67.5218 97.8781 67.9362 97.8033Z" fill="#D6BABB"/>
<path d="M42.4563 107.983C42.638 106.481 42.6164 104.961 42.392 103.464C41.8705 101.754 42.8804 101.266 44.0004 100.574C44.5182 100.205 45.1345 99.9996 45.7703 99.9834C46.4061 99.9672 47.0325 100.141 47.5694 100.483C49.0956 101.344 48.3691 102.687 48.0918 103.843C47.8145 104.999 47.3177 106.61 46.8851 107.971C46.4526 109.332 46.0174 110.513 44.4289 110.036C43.9339 109.928 43.4821 109.674 43.1309 109.309C42.7797 108.943 42.5449 108.482 42.4563 107.983Z" fill="#EFE4E4"/>
<path d="M126.78 234.478C124.976 234.492 123.251 235.212 121.973 236.483C121.483 236.986 120.837 237.65 120.15 236.981C119.462 236.312 119.967 235.288 120.045 234.429C121.73 232.687 123.695 231.241 125.86 230.151C126.132 229.78 126.454 229.449 126.817 229.167L127.828 228.725C128.417 228.853 129.474 228.455 128.928 229.795L127.53 233.203C127.562 233.39 127.553 233.582 127.505 233.766C127.457 233.949 127.371 234.121 127.252 234.268L126.78 234.478Z" fill="#BF8695"/>
<path d="M129.67 232.746C132.283 233.729 135.404 232.356 137.74 234.54C137.009 237.126 134.946 236.678 133.048 236.657C131.149 236.636 129.073 235.239 127.035 236.508L126.757 234.456C127.152 233.637 128.215 233.691 128.68 232.985L129.67 232.746Z" fill="#DDC1C6"/>
<path d="M128.657 232.962C128.456 233.328 128.181 233.647 127.851 233.9C127.52 234.154 127.139 234.335 126.734 234.433L127.506 233.09L128.657 232.962Z" fill="#CAA0AA"/>
<path d="M263.064 172.802L263.793 171.64L264.736 171.221C266.718 169.184 269.796 171.066 271.931 168.643C271.409 171.655 273.709 172.959 274.436 174.825C275.164 176.691 273.957 179.26 275.254 181.457C274.724 183.882 272.186 184.977 271.405 187.246C270.918 187.8 270.266 188.18 269.544 188.332L268.819 188.161C268.791 186.173 269.534 184.401 266.002 183.904C261.61 183.328 261.187 177.435 264.926 173.456C264.316 173.441 263.571 173.518 263.064 172.802Z" fill="#E7D7DB"/>
<path d="M281.432 172.543C280.175 174.751 280.175 174.751 277.075 176.011C276.86 173.618 276.648 171.452 278.703 169.753C279.909 170.348 280.335 171.698 281.453 172.43L281.432 172.543Z" fill="#DABBC6"/>
<path d="M270.785 186.599C270.672 183.414 273.008 182.39 275.343 181.366C276.854 181.143 278.381 180.491 279.706 181.468C279.161 182.401 278.396 183.186 277.479 183.756C275.532 185.114 273.897 187.711 270.785 186.599Z" fill="#DABBC6"/>
<path d="M267.827 188.309L268.908 188.069C269.656 189.126 270.693 189.945 271.895 190.427C273.096 190.908 274.411 191.032 275.681 190.784C275.841 190.94 276.024 191.119 276.185 191.275C275.036 195.649 274.245 200.111 273.821 204.615C271.902 204.752 270.608 204.294 271.094 201.961C271.414 200.623 271.644 199.287 271.896 197.928C265.895 197.034 265.158 196.049 267.288 191.751C266.048 190.321 266.485 189.276 267.827 188.309Z" fill="#CF9FAC"/>
<path d="M267.827 188.309L267.333 191.705C265.376 190.781 263.536 193.268 261.78 192.093C260.023 190.918 261.162 188.417 260.146 186.849C258.875 184.854 256.953 183.207 257.84 180.461C258.086 180.292 258.36 180.166 258.649 180.089C259.125 180.241 260.053 180.342 260.079 180.545C260.709 185.124 264.746 186.202 267.827 188.309Z" fill="#CD9AA7"/>
<path d="M276.666 182.208L279.799 181.648C280.366 183.403 279.989 185.532 281.859 186.728C281.658 188.448 279.973 189.125 279.27 190.535L276.229 191.229L276.092 191.095C272.839 188.019 275.442 185.116 276.666 182.208Z" fill="#CF9FAC"/>
<path d="M281.386 172.498C280.713 172.378 280.091 172.058 279.601 171.581C279.111 171.104 278.775 170.492 278.636 169.822C280.711 169.57 281.137 170.92 281.386 172.498Z" fill="#D4A6A9"/>
<path d="M191.688 146.332L192.575 145.145L191.688 146.332Z" fill="#EBD7DD"/>
<path d="M190.78 147.586L191.666 146.355L190.78 147.586Z" fill="#EBD7DD"/>
<path d="M75.5795 102.97L75.4721 103.356L75.6025 102.992L75.5795 102.97Z" fill="#B59296"/>
<path d="M286.19 203.642L286.576 203.75L286.213 203.619L286.19 203.642Z" fill="#BB7E8D"/>
<path d="M126.194 237.739C123.973 240.119 121.356 242.094 118.458 243.578C120.316 240.707 121.712 237.209 126.194 237.739Z" fill="#DDC1C6"/>
<path d="M127.057 236.485L126.194 237.784L127.057 236.485Z" fill="#DDC1C6"/>
<path d="M137.606 234.633C137.829 234.474 138.061 234.327 138.3 234.194C138.3 234.194 138.507 234.395 138.621 234.507L137.606 234.633Z" fill="#DDC1C6"/>
<path d="M67.3621 89.2242L66.5878 90.3865L65.4014 89.5883L66.4361 89.2587L67.3621 89.2242Z" fill="#E9D8D9"/>
<path d="M276.666 182.208L276.047 191.141C274.725 191.949 273.991 194.308 272.195 193.586C271.1 193.184 270.175 192.42 269.573 191.421C268.972 190.421 268.729 189.247 268.886 188.092L270.763 186.622C272.909 185.405 274.892 183.921 276.666 182.208Z" fill="#D9B8BE"/>
<path d="M264.74 176.215L264.336 176.446L264.331 176.039L264.74 176.215Z" fill="#D9B8BE"/>
<path d="M265.038 173.386L265.169 173.023L264.924 173.275L265.038 173.386Z" fill="#D9B8BE"/>
</g>
<defs>
<filter id="filter0_d_114_1768" x="-13.9999" y="-10" width="349.168" height="347.63" filterUnits="userSpaceOnUse" color-interpolation-filters="sRGB">
<feFlood flood-opacity="0" result="BackgroundImageFix"/>
<feColorMatrix in="SourceAlpha" type="matrix" values="0 0 0 0 0 0 0 0 0 0 0 0 0 0 0 0 0 0 127 0" result="hardAlpha"/>
<feOffset dy="4"/>
<feGaussianBlur stdDeviation="7"/>
<feComposite in2="hardAlpha" operator="out"/>
<feColorMatrix type="matrix" values="0 0 0 0 0 0 0 0 0 0 0 0 0 0 0 0 0 0 0.14 0"/>
<feBlend mode="normal" in2="BackgroundImageFix" result="effect1_dropShadow_114_1768"/>
<feBlend mode="normal" in="SourceGraphic" in2="effect1_dropShadow_114_1768" result="shape"/>
</filter>
</defs>
</svg>
