<svg width="54" height="54" viewBox="0 0 54 54" fill="none" xmlns="http://www.w3.org/2000/svg">
<path fill-rule="evenodd" clip-rule="evenodd" d="M37.2544 16.8789C37.8778 16.1862 37.8217 15.1192 37.1289 14.4957C36.4362 13.8722 35.3692 13.9284 34.7458 14.6211L21.2121 29.6586L19.0542 27.9323C18.3265 27.3501 17.2646 27.4681 16.6823 28.1958C16.1001 28.9236 16.2181 29.9855 16.9459 30.5677L18.9505 32.1714L17.3362 33.9651C16.3395 35.0726 14.6521 35.2106 13.4887 34.2799L5.55423 27.9323C4.82648 27.3501 3.76455 27.4681 3.18235 28.1958C2.60014 28.9236 2.71813 29.9855 3.44589 30.5677L11.3803 36.9153C13.9398 38.9629 17.6521 38.6592 19.8448 36.2229L21.5904 34.2833L24.8803 36.9153C27.4398 38.9629 31.1521 38.6592 33.3448 36.2229L50.7544 16.8789C51.3778 16.1862 51.3217 15.1192 50.6289 14.4957C49.9362 13.8722 48.8692 13.9284 48.2458 14.6211L30.8362 33.9651C29.8395 35.0726 28.1521 35.2106 26.9887 34.2799L23.852 31.7705L37.2544 16.8789Z" fill="#6960E1"/>
</svg>
