<svg width="34" height="34" viewBox="0 0 34 34" fill="none" xmlns="http://www.w3.org/2000/svg">
<path d="M11 22.5201L11.861 19.3217C11.1666 18.0757 10.946 16.6218 11.2396 15.2267C11.5333 13.8316 12.3214 12.5889 13.4595 11.7266C14.5976 10.8644 16.0092 10.4404 17.4354 10.5325C18.8615 10.6246 20.2066 11.2267 21.2236 12.2281C22.2407 13.2296 22.8616 14.5633 22.9724 15.9845C23.0832 17.4057 22.6765 18.8191 21.8268 19.9654C20.9772 21.1116 19.7416 21.9138 18.3469 22.2247C16.9521 22.5356 15.4918 22.3344 14.2337 21.658L11 22.5201ZM14.3897 20.4611L14.5896 20.5794C15.5009 21.1181 16.5651 21.3411 17.6166 21.2135C18.6681 21.0859 19.6478 20.6149 20.4029 19.874C21.158 19.1331 21.6462 18.1638 21.7914 17.1172C21.9366 16.0706 21.7306 15.0055 21.2056 14.0879C20.6805 13.1703 19.8659 12.4517 18.8887 12.0441C17.9114 11.6365 16.8265 11.5627 15.8028 11.8344C14.7792 12.1061 13.8744 12.7079 13.2295 13.546C12.5845 14.3841 12.2357 15.4115 12.2372 16.4681C12.2364 17.3441 12.4793 18.2032 12.9389 18.9498L13.0643 19.156L12.583 20.9412L14.3897 20.4611Z" fill="url(#paint0_linear_114_4054)"/>
<path fill-rule="evenodd" clip-rule="evenodd" d="M19.2435 17.2894C19.1262 17.1951 18.989 17.1287 18.8421 17.0953C18.6953 17.0619 18.5427 17.0624 18.3961 17.0967C18.1757 17.188 18.0334 17.5328 17.891 17.7052C17.861 17.7466 17.8169 17.7756 17.767 17.7868C17.717 17.798 17.6647 17.7906 17.6198 17.7661C16.8132 17.451 16.1371 16.8731 15.7013 16.1263C15.6641 16.0797 15.6465 16.0205 15.6522 15.9613C15.6579 15.902 15.6864 15.8472 15.7318 15.8085C15.8906 15.6517 16.0072 15.4575 16.0708 15.2439C16.0849 15.0082 16.0308 14.7735 15.9148 14.5677C15.8252 14.2791 15.6547 14.0222 15.4233 13.8272C15.304 13.7737 15.1717 13.7557 15.0424 13.7755C14.9131 13.7953 14.7923 13.852 14.6946 13.9388C14.5249 14.0848 14.3902 14.2669 14.3005 14.4717C14.2107 14.6765 14.1682 14.8988 14.176 15.1221C14.1765 15.2476 14.1924 15.3725 14.2234 15.4941C14.3021 15.7861 14.4232 16.0652 14.5827 16.3224C14.6978 16.5194 14.8234 16.7102 14.959 16.8938C15.3995 17.497 15.9532 18.0091 16.5894 18.4017C16.9086 18.6013 17.2498 18.7635 17.6063 18.8852C17.9765 19.0526 18.3853 19.1169 18.7893 19.0712C19.0194 19.0364 19.2375 18.9458 19.4243 18.8073C19.611 18.6687 19.7608 18.4865 19.8604 18.2766C19.9189 18.1499 19.9367 18.0082 19.9112 17.8709C19.8502 17.5903 19.474 17.4246 19.2435 17.2894Z" fill="url(#paint1_linear_114_4054)"/>
<rect x="0.5" y="0.5" width="33" height="33" rx="16.5" stroke="url(#paint2_linear_114_4054)"/>
<defs>
<linearGradient id="paint0_linear_114_4054" x1="16.9952" y1="10.5201" x2="16.9952" y2="22.5201" gradientUnits="userSpaceOnUse">
<stop stop-color="#CC72C8"/>
<stop offset="1" stop-color="#6960E1"/>
</linearGradient>
<linearGradient id="paint1_linear_114_4054" x1="17.0488" y1="13.7677" x2="17.0488" y2="19.0855" gradientUnits="userSpaceOnUse">
<stop stop-color="#CC72C8"/>
<stop offset="1" stop-color="#6960E1"/>
</linearGradient>
<linearGradient id="paint2_linear_114_4054" x1="17" y1="0" x2="17" y2="34" gradientUnits="userSpaceOnUse">
<stop stop-color="#CC72C8"/>
<stop offset="1" stop-color="#6960E1"/>
</linearGradient>
</defs>
</svg>
