<svg width="60" height="60" viewBox="0 0 60 60" fill="none" xmlns="http://www.w3.org/2000/svg">
<path fill-rule="evenodd" clip-rule="evenodd" d="M44.1667 21.25C44.1667 19.0409 42.3758 17.25 40.1667 17.25H19.8334C17.6242 17.25 15.8334 19.0409 15.8334 21.25L15.8334 25.0417H21.5C24.2385 25.0417 26.4584 27.2616 26.4584 30C26.4584 32.7384 24.2385 34.9583 21.5 34.9583H15.8334L15.8334 38.75C15.8334 40.9591 17.6242 42.75 19.8334 42.75H31.8334C32.3857 42.75 32.8334 42.3023 32.8334 41.75V38.25C32.8334 36.0409 34.6242 34.25 36.8334 34.25H43.1667C43.719 34.25 44.1667 33.8023 44.1667 33.25V21.25ZM24.3334 30C24.3334 28.4352 23.0648 27.1667 21.5 27.1667H15.8334V32.8333H21.5C23.0648 32.8333 24.3334 31.5648 24.3334 30ZM44.6606 36.5189C44.9723 36.7917 45.0039 37.2655 44.7311 37.5772L40.4029 42.5238C39.7862 43.2286 38.724 43.3229 37.9927 42.7379L35.1982 40.5023C34.8747 40.2436 34.8223 39.7716 35.0811 39.4481C35.3398 39.1247 35.8118 39.0723 36.1352 39.331L38.9297 41.5666C39.0342 41.6502 39.1859 41.6367 39.274 41.536L43.6023 36.5895C43.875 36.2777 44.3489 36.2461 44.6606 36.5189Z" fill="url(#paint0_linear_114_1989)"/>
<rect x="0.5" y="0.5" width="59" height="59" rx="29.5" stroke="url(#paint1_linear_114_1989)"/>
<defs>
<linearGradient id="paint0_linear_114_1989" x1="30.375" y1="17.25" x2="30.375" y2="43.1214" gradientUnits="userSpaceOnUse">
<stop stop-color="#CC72C8"/>
<stop offset="1" stop-color="#6960E1"/>
</linearGradient>
<linearGradient id="paint1_linear_114_1989" x1="30" y1="0" x2="30" y2="60" gradientUnits="userSpaceOnUse">
<stop stop-color="#CC72C8"/>
<stop offset="1" stop-color="#6960E1"/>
</linearGradient>
</defs>
</svg>
