<svg width="60" height="60" viewBox="0 0 60 60" fill="none" xmlns="http://www.w3.org/2000/svg">
<path fill-rule="evenodd" clip-rule="evenodd" d="M21.5 17.3381H26.4584C29.588 17.3381 32.125 19.8751 32.125 23.0047V40.0047H27.875C27.875 37.2663 25.6551 35.0464 22.9167 35.0464C20.5705 35.0464 18.6059 36.6751 18.0904 38.8646C16.7195 37.8303 15.8334 36.1877 15.8334 34.3381V23.0047C15.8334 19.8751 18.3704 17.3381 21.5 17.3381ZM25.75 40.0047C25.75 41.5695 24.4815 42.8381 22.9167 42.8381C21.3519 42.8381 20.0834 41.5695 20.0834 40.0047C20.0834 39.9453 20.0852 39.8862 20.0888 39.8276C20.1803 38.3453 21.4114 37.1714 22.9167 37.1714C24.4815 37.1714 25.75 38.4399 25.75 40.0047ZM41.3334 40.0047C41.3334 41.5695 40.0648 42.8381 38.5 42.8381C36.9352 42.8381 35.6667 41.5695 35.6667 40.0047C35.6667 38.4399 36.9352 37.1714 38.5 37.1714C40.0648 37.1714 41.3334 38.4399 41.3334 40.0047ZM38.5 35.0464C40.9398 35.0464 42.9679 36.8085 43.3813 39.1294C43.8679 38.6206 44.1667 37.9309 44.1667 37.1714V29.5447C44.1667 28.7616 43.8426 28.0133 43.2712 27.4777L39.3174 23.7711C38.7923 23.2787 38.0994 23.0047 37.3796 23.0047H34.25V37.4494C35.1177 36.0094 36.6964 35.0464 38.5 35.0464Z" fill="url(#paint0_linear_114_1996)"/>
<rect x="0.5" y="0.5" width="59" height="59" rx="29.5" stroke="url(#paint1_linear_114_1996)"/>
<defs>
<linearGradient id="paint0_linear_114_1996" x1="30" y1="17.3381" x2="30" y2="42.8381" gradientUnits="userSpaceOnUse">
<stop stop-color="#CC72C8"/>
<stop offset="1" stop-color="#6960E1"/>
</linearGradient>
<linearGradient id="paint1_linear_114_1996" x1="30" y1="0" x2="30" y2="60" gradientUnits="userSpaceOnUse">
<stop stop-color="#CC72C8"/>
<stop offset="1" stop-color="#6960E1"/>
</linearGradient>
</defs>
</svg>
