<svg width="60" height="60" viewBox="0 0 60 60" fill="none" xmlns="http://www.w3.org/2000/svg">
<path fill-rule="evenodd" clip-rule="evenodd" d="M19.5372 21.3255L28.285 17.4376C29.3192 16.9779 30.4998 16.9779 31.5341 17.4376L40.2621 21.3167C41.7178 21.9637 42.664 23.4184 42.5935 25.0098C42.16 34.7929 39.5926 38.7707 31.985 43.7408C30.7267 44.5629 29.0936 44.561 27.8351 43.7393C20.2633 38.7954 17.5826 34.888 17.2069 24.9883C17.1469 23.4074 18.0915 21.968 19.5372 21.3255ZM34.724 28.5427C34.9967 28.231 34.9651 27.7572 34.6534 27.4844C34.3417 27.2117 33.8679 27.2433 33.5951 27.555L29.2669 32.5015C29.1788 32.6022 29.027 32.6157 28.9225 32.5321L26.1281 30.2965C25.8046 30.0378 25.3326 30.0902 25.0739 30.4137C24.8151 30.7371 24.8676 31.2091 25.191 31.4679L27.9855 33.7034C28.7168 34.2885 29.779 34.1941 30.3957 33.4893L34.724 28.5427Z" fill="url(#paint0_linear_114_2004)"/>
<rect x="0.5" y="0.5" width="59" height="59" rx="29.5" stroke="url(#paint1_linear_114_2004)"/>
<defs>
<linearGradient id="paint0_linear_114_2004" x1="29.9007" y1="17.0928" x2="29.9007" y2="44.3565" gradientUnits="userSpaceOnUse">
<stop stop-color="#CC72C8"/>
<stop offset="1" stop-color="#6960E1"/>
</linearGradient>
<linearGradient id="paint1_linear_114_2004" x1="30" y1="0" x2="30" y2="60" gradientUnits="userSpaceOnUse">
<stop stop-color="#CC72C8"/>
<stop offset="1" stop-color="#6960E1"/>
</linearGradient>
</defs>
</svg>
