<svg width="60" height="60" viewBox="0 0 60 60" fill="none" xmlns="http://www.w3.org/2000/svg">
<path fill-rule="evenodd" clip-rule="evenodd" d="M31.1163 15.1163C31.1163 14.4998 30.6165 14 30 14C29.3835 14 28.8837 14.4998 28.8837 15.1163V16.6047C28.8837 17.2212 29.3835 17.7209 30 17.7209C30.6165 17.7209 31.1163 17.2212 31.1163 16.6047V15.1163ZM42.802 18.7764C43.238 18.3404 43.238 17.6337 42.802 17.1977C42.3661 16.7618 41.6593 16.7618 41.2234 17.1977L40.1709 18.2502C39.735 18.6861 39.735 19.3929 40.1709 19.8288C40.6069 20.2648 41.3137 20.2648 41.7496 19.8288L42.802 18.7764ZM38.9302 26.2849H21.0698V36.9301C21.0698 38.0347 21.9652 38.9301 23.0698 38.9301H36.9302C38.0348 38.9301 38.9302 38.0347 38.9302 36.9301V26.2849ZM38.6122 24.7849H21.3878C21.4644 24.6659 21.554 24.5545 21.6556 24.4529L24.453 21.6554C24.8281 21.2804 25.3368 21.0697 25.8672 21.0697H34.1328C34.6633 21.0697 35.172 21.2804 35.547 21.6554L38.3445 24.4529C38.4461 24.5545 38.5356 24.6659 38.6122 24.7849ZM27.7616 30.0001C27.7616 29.5859 28.0974 29.2501 28.5116 29.2501H31.4884C31.9026 29.2501 32.2384 29.5859 32.2384 30.0001C32.2384 30.4143 31.9026 30.7501 31.4884 30.7501H28.5116C28.0974 30.7501 27.7616 30.4143 27.7616 30.0001ZM30 42.2791C30.6165 42.2791 31.1163 42.7789 31.1163 43.3954V44.8838C31.1163 45.5003 30.6165 46 30 46C29.3835 46 28.8837 45.5003 28.8837 44.8838V43.3954C28.8837 42.7789 29.3835 42.2791 30 42.2791ZM19.8289 40.1708C20.2649 40.6067 20.2649 41.3135 19.8289 41.7494L18.7765 42.8019C18.3406 43.2378 17.6338 43.2378 17.1978 42.8019C16.7619 42.3659 16.7619 41.6591 17.1978 41.2232L18.2503 40.1708C18.6862 39.7348 19.393 39.7348 19.8289 40.1708ZM44.8837 31.1164C45.5002 31.1164 46 30.6166 46 30.0001C46 29.3836 45.5002 28.8838 44.8837 28.8838H43.3954C42.7788 28.8838 42.2791 29.3836 42.2791 30.0001C42.2791 30.6166 42.7788 31.1164 43.3954 31.1164H44.8837ZM17.7209 30.0001C17.7209 30.6166 17.2212 31.1164 16.6047 31.1164H15.1163C14.4998 31.1164 14 30.6166 14 30.0001C14 29.3836 14.4998 28.8838 15.1163 28.8838H16.6047C17.2212 28.8838 17.7209 29.3836 17.7209 30.0001ZM41.2232 42.802C41.6592 43.2379 42.366 43.2379 42.8019 42.802C43.2378 42.366 43.2378 41.6593 42.8019 41.2233L41.7495 40.1709C41.3135 39.7349 40.6067 39.7349 40.1708 40.1709C39.7349 40.6068 39.7349 41.3136 40.1708 41.7495L41.2232 42.802ZM19.8288 19.8289C19.3928 20.2649 18.686 20.2649 18.2501 19.8289L17.1977 18.7765C16.7617 18.3406 16.7617 17.6338 17.1977 17.1978C17.6336 16.7619 18.3404 16.7619 18.7763 17.1978L19.8288 18.2503C20.2647 18.6862 20.2647 19.393 19.8288 19.8289Z" fill="url(#paint0_linear_114_2011)"/>
<rect x="0.5" y="0.5" width="59" height="59" rx="29.5" stroke="url(#paint1_linear_114_2011)"/>
<defs>
<linearGradient id="paint0_linear_114_2011" x1="30" y1="14" x2="30" y2="46" gradientUnits="userSpaceOnUse">
<stop stop-color="#CC72C8"/>
<stop offset="1" stop-color="#6960E1"/>
</linearGradient>
<linearGradient id="paint1_linear_114_2011" x1="30" y1="0" x2="30" y2="60" gradientUnits="userSpaceOnUse">
<stop stop-color="#CC72C8"/>
<stop offset="1" stop-color="#6960E1"/>
</linearGradient>
</defs>
</svg>
